<svg width="573" height="260" viewBox="0 0 573 260" fill="none" xmlns="http://www.w3.org/2000/svg">
<path d="M572.828 100.417C578.074 156.203 462.869 203.396 305.822 230.105C153.62 255.99 9.30901 240.234 0.844202 194.371C-11.8826 125.416 121.077 78.3005 278.764 55.6592C443.368 32.0242 568.512 54.5336 572.828 100.417Z" fill="#FCF7F4"/>
<path d="M426.675 179.811L224.968 189.525V60.0437L426.675 95.043V179.811Z" fill="#EB5F21"/>
<path d="M224.968 91.3361L431.511 116.813" stroke="#EBEDEE" stroke-width="1.33333" stroke-miterlimit="10"/>
<path d="M224.968 125.68L430.862 137.997" stroke="#EBEDEE" stroke-width="1.33333" stroke-miterlimit="10"/>
<path d="M224.968 159.515L430.076 159.385" stroke="#EBEDEE" stroke-width="1.33333" stroke-miterlimit="10"/>
<path d="M333.367 78.8528V184.292" stroke="#EBEDEE" stroke-width="1.33333" stroke-miterlimit="10"/>
<path d="M224.968 60.0437V189.525" stroke="#474A54" stroke-miterlimit="10"/>
<path d="M178.34 226.358C178.34 241.089 169.426 253.031 158.431 253.031C147.436 253.031 138.522 241.089 138.522 226.358C138.522 211.627 147.436 199.684 158.431 199.684C169.426 199.684 178.34 211.627 178.34 226.358Z" stroke="#474A54" stroke-miterlimit="10"/>
<path d="M184.235 87.8153L184.103 188.179" stroke="#474A54" stroke-miterlimit="10"/>
<path d="M101.839 234.864V240.531C101.839 241.613 100.825 242.41 99.772 242.156L29.8388 225.266C29.0874 225.084 28.5582 224.413 28.5582 223.641V212.883C28.5582 211.96 27.8089 211.212 26.8842 211.212C25.9594 211.212 25.2101 210.464 25.2101 209.541V194.808C25.2101 193.885 25.9594 193.137 26.8842 193.137H31.0538C31.6407 193.137 32.1857 193.444 32.4882 193.947L33.319 195.325C33.584 195.766 34.0388 196.06 34.5499 196.123L79.9866 201.667C80.5512 201.735 81.1113 201.514 81.4759 201.078C81.987 200.465 82.4981 199.853 83.0092 199.24C83.3275 198.859 83.7989 198.639 84.2956 198.639H137.475" stroke="#474A54" stroke-miterlimit="10"/>
<path d="M37.407 207.53L74.0808 213.806" stroke="#474A54" stroke-miterlimit="10"/>
<path d="M40.5505 210.668L70.4134 216.42" stroke="#474A54" stroke-miterlimit="10"/>
<path d="M111.279 224.015L131.712 223.22C132.185 219.545 133.469 213.397 137.475 207.006C139.693 203.468 142.37 199.196 147.429 196.547C150.982 194.686 154.101 194.467 166.814 194.978C172.156 195.193 178.701 195.516 186.199 196.023C185.849 194.106 185.5 192.188 185.151 190.271C185.096 189.913 184.902 188.971 184.103 188.179C182.859 186.946 181.192 187.106 180.959 187.132C180.375 187.133 177.888 187.133 177.292 187.132C160.043 187.13 158.585 187.087 155.812 187.656C153.323 188.166 148.364 189.236 143.237 192.886C138.313 196.392 135.761 200.479 134.331 202.823C129.485 210.763 128.651 218.699 128.568 223.22" stroke="#474A54" stroke-miterlimit="10"/>
<path d="M183.055 237.341C183.418 229.55 182.443 223.286 181.484 219.036C180.557 214.934 179.719 211.221 177.292 207.007C173.573 200.549 168.391 196.85 165.242 194.978" stroke="#474A54" stroke-miterlimit="10"/>
<path d="M122.841 223.565C122.774 226.403 122.937 235.098 129.092 243.094C130.754 245.253 137.872 253.882 149.524 254.6C154.059 254.88 157.768 253.867 160.065 253.031" stroke="#474A54" stroke-miterlimit="10"/>
<path d="M251.164 197.07V227.09" stroke="#474A54" stroke-miterlimit="10"/>
<path d="M238.59 200.731V227.09H247.706" stroke="#474A54" stroke-miterlimit="10"/>
<path d="M287.187 186.529V216.944L282.075 222.174C282.67 217.852 282.427 214.239 282.075 211.714C281.133 204.966 278.618 200.344 276.835 197.07C275.742 195.06 275.206 194.413 274.74 193.932C272.111 191.222 267.965 189.971 264.262 190.271C257.854 190.79 252.816 195.95 246.973 198.639C245.689 199.23 244.537 199.623 244.353 199.685C244.353 199.685 242.324 200.371 240.162 200.731C226.314 203.032 210.822 202.3 210.822 202.3C204.012 202.823 194.581 202.823 181.221 202.614" stroke="#474A54" stroke-miterlimit="10"/>
<path d="M327.917 184.567V210.647C334.117 210.13 340.316 209.614 346.516 209.098C347.261 210.605 348.541 212.62 350.708 214.329C356.878 219.195 364.756 217.246 365.901 216.944" stroke="#474A54" stroke-miterlimit="10"/>
<path d="M279.455 216.944C279.455 227.92 274.412 236.818 268.191 236.818C261.97 236.818 256.927 227.92 256.927 216.944C256.927 205.968 261.97 197.07 268.191 197.07C274.412 197.07 279.455 205.968 279.455 216.944Z" stroke="#474A54" stroke-miterlimit="10"/>
<path d="M373.236 199.946C373.236 209.334 369.483 216.944 364.853 216.944C360.224 216.944 356.471 209.334 356.471 199.946C356.471 190.559 360.224 182.949 364.853 182.949C369.483 182.949 373.236 190.559 373.236 199.946Z" stroke="#474A54" stroke-miterlimit="10"/>
<path d="M391.573 198.377C391.573 207.476 388.054 214.852 383.714 214.852C379.374 214.852 375.855 207.476 375.855 198.377C375.855 189.279 379.374 181.903 383.714 181.903C388.054 181.903 391.573 189.279 391.573 198.377Z" stroke="#474A54" stroke-miterlimit="10"/>
<path d="M408.338 196.286C408.338 204.518 405.171 211.191 401.265 211.191C397.359 211.191 394.192 204.518 394.192 196.286C394.192 188.053 397.359 181.38 401.265 181.38C405.171 181.38 408.338 188.053 408.338 196.286Z" stroke="#474A54" stroke-miterlimit="10"/>
<path d="M411.106 180.561V198.377H408.246" stroke="#474A54" stroke-miterlimit="10"/>
<path d="M370.616 212.237C371.743 213.046 373.694 214.227 376.379 214.852C379.6 215.602 382.288 215.181 383.714 214.852" stroke="#474A54" stroke-miterlimit="10"/>
<path d="M389.477 209.622C390.548 210.189 391.955 210.794 393.668 211.191C397.008 211.965 399.852 211.569 401.527 211.191" stroke="#474A54" stroke-miterlimit="10"/>
<path d="M84.0354 204.392C89.2589 204.629 93.357 204.845 96.085 204.915C96.7961 204.933 98.224 204.962 99.2288 205.961C100.058 206.785 100.236 207.909 100.277 208.576V212.76C100.175 213.199 99.8338 214.407 98.7047 215.375C97.8991 216.065 97.0574 216.32 96.6091 216.42C92.5926 216.247 88.576 216.072 84.5594 215.898C83.7697 215.739 82.0148 215.278 80.3682 213.806C78.6061 212.23 77.9686 210.392 77.7485 209.622" stroke="#474A54" stroke-miterlimit="10"/>
<path d="M224.968 60.0443L158.955 80.964C144.417 79.2979 123.112 78.5153 98.1809 83.5791C75.1795 88.2509 57.0927 96.2743 44.742 102.93C42.8687 101.327 39.9899 101.991 38.9929 104.244C36.9074 108.957 34.5808 115.044 32.6916 122.281C29.6121 134.079 29.1659 143.289 28.5004 158.891C28.1531 167.029 27.9286 178.094 28.4166 191.317" stroke="#474A54" stroke-miterlimit="10"/>
<path d="M187.77 191.317L426.675 179.811" stroke="#474A54" stroke-miterlimit="10"/>
<path d="M36.3591 122.281C58.5382 117.574 80.7174 112.867 102.896 108.159C103.097 108.066 104.55 107.423 106.04 108.159C106.998 108.634 107.455 109.423 107.611 109.729" stroke="#474A54" stroke-miterlimit="10"/>
<path d="M28.5581 157.542L94.43 155.673C95.367 155.617 98.2004 155.328 100.801 153.138C103.609 150.772 104.3 147.744 104.468 146.862C105.865 132.043 107.262 117.225 108.659 102.407C108.725 100.185 109.24 91.6129 115.994 85.1482C118.896 82.3702 121.989 80.9022 124.164 80.1117" stroke="#474A54" stroke-miterlimit="10"/>
<path d="M40.5505 222.174L111.279 236.817V119.666C111.216 119.004 110.798 113.63 114.946 109.729C118.112 106.751 122.739 105.758 126.996 107.114C140.283 107.943 153.569 108.773 166.856 109.603" stroke="#474A54" stroke-miterlimit="10"/>
<path d="M144.285 152.615H121.233C118.339 152.615 115.994 150.273 115.994 147.384V117.051C115.994 114.162 118.339 111.821 121.233 111.821H144.285C147.179 111.821 149.525 114.162 149.525 117.051V147.384C149.525 150.273 147.179 152.615 144.285 152.615Z" stroke="#474A54" stroke-miterlimit="10"/>
<path d="M448.114 226.903H518.859" stroke="#474A54" stroke-miterlimit="10"/>
<path d="M518.859 226.85L499.729 216.454" stroke="#474A54" stroke-miterlimit="10"/>
<path d="M499.729 236.992L518.859 226.596" stroke="#474A54" stroke-miterlimit="10"/>
<path d="M260.945 52.3706C284.847 40.1345 318.552 17.7994 332.951 6.23848C338.048 2.14678 345.448 3.86907 348.328 9.73062C351.976 17.1523 356.028 24.3751 360.463 31.3565C361.574 33.1048 363.222 35.0728 365.258 34.675C366.658 34.4012 367.574 33.0817 368.265 31.8357C369.665 29.3092 370.765 26.6206 371.551 23.8426C373.246 17.8434 380.499 15.3717 385.905 18.4898L421.154 43.9811C404.061 21.3024 399.372 8.53799 401.58 8.91127C438.556 31.4416 487.267 72.4688 529.687 73.5771" stroke="#474A54" stroke-miterlimit="10"/>
<path d="M469.277 126.376C469.277 132.948 478.714 132.399 481.081 132.638L458.975 131.403C458.309 131.365 458.022 131.777 458.622 131.911C467.968 133.99 485.057 137.019 483.515 136.979C473.316 136.712 463.371 135.453 453.242 134.884C452.548 134.845 452.278 135.285 452.923 135.406C464.774 137.622 476.816 139.635 489.015 141.437C489.66 141.532 489.511 141.951 488.832 141.951L465.955 141.958C465.316 141.958 465.122 142.345 465.701 142.467L472.07 143.805C474.119 144.236 473.448 145.606 471.183 145.603C465.364 145.595 459.544 145.615 453.727 145.664C453.121 145.669 452.876 146.078 453.424 146.173C461.795 147.61 474.136 148.596 481.915 149.708" stroke="#474A54" stroke-miterlimit="10"/>
<path d="M469.277 126.376V134.1" stroke="#474A54" stroke-miterlimit="10"/>
<path d="M469.277 143.218V170.417" stroke="#474A54" stroke-miterlimit="10"/>
<path d="M469.277 136.121V138.4" stroke="#474A54" stroke-miterlimit="10"/>
<path d="M519.818 87.1327C519.818 93.7041 529.256 93.1557 531.623 93.3942L509.516 92.1591C508.851 92.1216 508.564 92.5338 509.165 92.6671C518.51 94.7468 535.599 97.7756 534.057 97.7353C523.858 97.4686 513.913 96.2097 503.784 95.6404C503.089 95.6015 502.819 96.0411 503.465 96.1621C515.315 98.3788 527.358 100.391 539.557 102.193C540.201 102.288 540.053 102.708 539.373 102.708L516.497 102.714C515.858 102.714 515.664 103.102 516.243 103.224L522.611 104.562C524.661 104.992 523.989 106.363 521.725 106.359C515.906 106.351 510.086 106.371 504.268 106.42C503.663 106.425 503.418 106.835 503.966 106.929C512.337 108.366 524.677 109.352 532.456 110.464" stroke="#474A54" stroke-miterlimit="10"/>
<path d="M519.818 87.1328V94.8564" stroke="#474A54" stroke-miterlimit="10"/>
<path d="M519.818 103.975V131.174" stroke="#474A54" stroke-miterlimit="10"/>
<path d="M519.818 96.8774V99.1567" stroke="#474A54" stroke-miterlimit="10"/>
</svg>
