<svg width="42" height="42" viewBox="0 0 42 42" fill="none" xmlns="http://www.w3.org/2000/svg"><path d="M0 4C0 1.79086 1.79086 0 4 0H38C40.2091 0 42 1.79086 42 4V38C42 40.2091 40.2091 42 38 42H4C1.79086 42 0 40.2091 0 38V4Z" fill="#19AA1E"/><path fill-rule="evenodd" clip-rule="evenodd" d="M0 4C0 1.79086 1.79086 0 4 0H38C40.2091 0 42 1.79086 42 4V13.7798L0 7.21826V4Z" fill="#FFB919"/><path fill-rule="evenodd" clip-rule="evenodd" d="M0 37.4048L42 30.8433V37.999C42 40.2081 40.2091 41.999 38 41.999H4C1.79086 41.999 0 40.2081 0 37.999V37.4048Z" fill="#82D714"/><path fill-rule="evenodd" clip-rule="evenodd" d="M0 6.38818L14.6605 8.67889C16.4854 7.52335 18.6565 6.88959 20.9994 6.88959C24.2445 6.88959 27.1614 8.10494 29.2841 10.2378C29.5513 10.5076 29.8033 10.7889 30.0413 11.0816L42 12.9498V14.6105L31.2553 12.9307C32.0595 14.468 32.4808 16.1767 32.4834 17.9117C32.4834 20.1617 31.9807 22.4053 30.9397 24.6578L30.9092 24.7265L30.4663 25.6733H29.4228C27.2644 25.6733 25.834 26.3186 24.8974 27.4626C24.1631 28.3598 23.738 29.5714 23.5955 30.8923L23.5904 30.933L23.57 31.1443L23.5611 31.2359L23.5433 31.4154C23.4886 32.0059 23.453 32.506 23.4339 32.9132L42 30.0117V31.6724L0 38.2353V36.5745L18.5865 33.6704L18.5789 33.2976L18.5763 33.1932L18.5738 33.1385L18.5712 33.0558C18.5547 32.604 18.5127 32.0249 18.4465 31.3225L18.4338 31.1888L18.4109 30.9585C18.2785 29.6299 17.8598 28.4044 17.1255 27.4932C16.2003 26.3415 14.7839 25.6861 12.6421 25.6733H11.5324L11.0908 24.7265C10.0295 22.4511 9.51532 20.1846 9.51532 17.9117C9.51532 15.0534 10.6747 12.2893 12.7159 10.2378L12.8941 10.0635L0 8.04767V6.38818Z" fill="white"/><path fill-rule="evenodd" clip-rule="evenodd" d="M20.9993 8.53027C26.8635 8.53027 30.843 13.043 30.843 17.912C30.843 19.8667 30.4167 21.9003 29.4215 24.0332C23.6527 24.0332 22.2287 28.1641 21.9589 30.7653L21.9411 30.9371C21.8507 31.8662 21.7973 32.6106 21.7833 33.1706L20.2205 33.4149V33.364C20.1987 32.537 20.1427 31.7112 20.0525 30.8888L20.0487 30.843C19.7993 28.2481 18.4057 24.0332 12.5785 24.0332C11.582 21.9003 11.1557 19.8667 11.1557 17.912C11.1557 13.043 15.1364 8.53027 20.9993 8.53027Z" fill="#0073FA"/></svg>