<svg width="42" height="42" viewBox="0 0 42 42" fill="none" xmlns="http://www.w3.org/2000/svg"><path d="M21 2.625C12.3013 2.625 5.25 9.67627 5.25 18.375C5.25 22.7228 7.01164 26.6595 9.86081 29.5095C12.7108 32.361 19.425 36.4875 19.8188 40.8188C19.8778 41.4682 20.3479 42 21 42C21.6521 42 22.1222 41.4682 22.1812 40.8188C22.575 36.4875 29.2892 32.361 32.1392 29.5095C34.9884 26.6595 36.75 22.7228 36.75 18.375C36.75 9.67627 29.6987 2.625 21 2.625Z" fill="#FF4433"/><path d="M21 23.8878C24.0445 23.8878 26.5125 21.4197 26.5125 18.3753C26.5125 15.3308 24.0445 12.8628 21 12.8628C17.9556 12.8628 15.4875 15.3308 15.4875 18.3753C15.4875 21.4197 17.9556 23.8878 21 23.8878Z" fill="white"/></svg>