<svg width="255" height="71" viewBox="0 0 255 71" fill="none" xmlns="http://www.w3.org/2000/svg">
<path d="M91.623 38.895V32.2358H69.248V38.895H76.8427H91.623Z" fill="#EA5B0C"/>
<path d="M111.419 32.2358H103.824V50.078H111.419V32.2358Z" fill="#EA5B0C"/>
<path d="M56.9981 27.7197H65.7428V21.0605H40.7051V27.7197H49.4034H56.9981Z" fill="#EA5B0C"/>
<path d="M148.673 31.0915C148.673 27.9194 147.693 25.4539 145.732 23.6873C143.772 21.9284 141.009 21.0452 137.435 21.0452H123.666V50.078H131.268V40.9304H137.435C141.001 40.9304 143.772 40.0702 145.732 38.3497C147.693 36.6292 148.673 34.2098 148.673 31.0915ZM140.908 34.4633H136.293H131.268V27.5123H136.293H140.908V34.4633Z" fill="#40444E"/>
<path d="M162.488 32.6353H163.631L169.149 21.0452H176.713L162.735 50.0857H155.256L159.424 41.3835L148.596 21.0452H156.445L162.488 32.6353Z" fill="#40444E"/>
<path d="M198.155 21.0452H209.516V50.0857H202.531V30.4386H201.389L198.078 40.892H190.637L187.326 30.4386H186.184V50.0857H179.191V21.0452H190.553L193.779 31.5753H194.921L198.155 21.0452Z" fill="#40444E"/>
<path d="M91.621 43.4114H69.2461V50.0705H91.621V43.4114Z" fill="#40444E"/>
<path d="M76.8408 27.7197H91.621V21.0605H69.2461V27.7197H76.8408Z" fill="#40444E"/>
<path d="M111.418 27.7197H120.163V21.0605H95.125V27.7197H103.823H111.418Z" fill="#40444E"/>
<path d="M56.997 32.2358H49.4023V50.078H56.997V32.2358Z" fill="#40444E"/>
<path d="M218.115 24.6857C218.03 24.5935 217.922 24.5167 217.798 24.4399C218.061 24.4015 218.254 24.3094 218.377 24.1711C218.508 24.0252 218.57 23.8485 218.57 23.6258C218.57 23.4491 218.532 23.2955 218.439 23.1649C218.354 23.0267 218.238 22.9345 218.099 22.8808C217.96 22.827 217.729 22.804 217.412 22.804H216.162V25.7303H216.756V24.5091H216.88C217.019 24.5091 217.119 24.5167 217.181 24.5398C217.243 24.5628 217.304 24.6012 217.358 24.6627C217.412 24.7241 217.52 24.8701 217.675 25.0928L218.107 25.7303H218.817L218.454 25.1619C218.315 24.9392 218.2 24.7779 218.115 24.6857ZM217.204 24.0405H216.764V23.2955H217.227C217.466 23.2955 217.613 23.2955 217.659 23.3032C217.752 23.3186 217.829 23.357 217.883 23.4184C217.937 23.4799 217.96 23.5643 217.96 23.6565C217.96 23.7487 217.937 23.8178 217.899 23.8792C217.86 23.933 217.806 23.9791 217.729 24.0021C217.667 24.0329 217.49 24.0405 217.204 24.0405Z" fill="#40444E"/>
<path d="M217.328 20.9836C215.484 20.9836 213.979 22.4814 213.979 24.317C213.979 26.1527 215.484 27.6505 217.328 27.6505C219.173 27.6505 220.678 26.1527 220.678 24.317C220.678 22.4814 219.173 20.9836 217.328 20.9836ZM217.328 27.1435C215.761 27.1435 214.488 25.8762 214.488 24.3247C214.488 22.7656 215.761 21.4982 217.328 21.4982C218.887 21.4982 220.161 22.7656 220.161 24.3247C220.161 25.8762 218.887 27.1435 217.328 27.1435Z" fill="#40444E"/>
</svg>
