<svg width="24" height="24" viewBox="0 0 24 24" fill="none" xmlns="http://www.w3.org/2000/svg">
<g clip-path="url(#clip0_2549_5854)">
<path d="M17.0002 3H21.0002C21.2655 3 21.5198 3.10536 21.7074 3.29289C21.8949 3.48043 22.0002 3.73478 22.0002 4V20C22.0002 20.2652 21.8949 20.5196 21.7074 20.7071C21.5198 20.8946 21.2655 21 21.0002 21H3.00024C2.73503 21 2.48067 20.8946 2.29314 20.7071C2.1056 20.5196 2.00024 20.2652 2.00024 20V4C2.00024 3.73478 2.1056 3.48043 2.29314 3.29289C2.48067 3.10536 2.73503 3 3.00024 3H7.00024V1H9.00024V3H15.0002V1H17.0002V3ZM15.0002 5H9.00024V7H7.00024V5H4.00024V9H20.0002V5H17.0002V7H15.0002V5ZM20.0002 11H4.00024V19H20.0002V11Z" fill="white"/>
</g>
<defs>
<clipPath id="clip0_2549_5854">
<rect width="24" height="24" fill="white"/>
</clipPath>
</defs>
</svg>
