<svg width="24" height="24" viewBox="0 0 24 24" fill="none" xmlns="http://www.w3.org/2000/svg">
<path d="M8.96476 18C8.84588 18.8343 8.42997 19.5977 7.79343 20.1499C7.1569 20.7022 6.34247 21.0063 5.49976 21.0063C4.65704 21.0063 3.84261 20.7022 3.20608 20.1499C2.56954 19.5977 2.15364 18.8343 2.03476 18H0.999756V6C0.999756 5.73478 1.10511 5.48043 1.29265 5.29289C1.48019 5.10536 1.73454 5 1.99976 5H15.9998C16.265 5 16.5193 5.10536 16.7069 5.29289C16.8944 5.48043 16.9998 5.73478 16.9998 6V8H19.9998L22.9998 12.056V18H20.9648C20.8459 18.8343 20.43 19.5977 19.7934 20.1499C19.1569 20.7022 18.3425 21.0063 17.4998 21.0063C16.657 21.0063 15.8426 20.7022 15.2061 20.1499C14.5695 19.5977 14.1536 18.8343 14.0348 18H8.96476ZM14.9998 7H2.99976V15.05C3.39432 14.6472 3.88036 14.3457 4.41651 14.1711C4.95266 13.9966 5.52305 13.9541 6.07913 14.0474C6.63522 14.1407 7.16053 14.3669 7.61036 14.7069C8.0602 15.0469 8.42124 15.4905 8.66276 16H14.3368C14.5048 15.647 14.7298 15.326 14.9998 15.05V7ZM16.9998 13H20.9998V12.715L18.9918 10H16.9998V13ZM17.4998 19C17.8977 19 18.2794 18.8419 18.5608 18.5605C18.8422 18.2791 19.0003 17.8975 19.0003 17.4995C19.0003 17.1015 18.8422 16.7199 18.5608 16.4385C18.2794 16.1571 17.8977 15.999 17.4998 15.999C17.1018 15.999 16.7201 16.1571 16.4387 16.4385C16.1573 16.7199 15.9993 17.1015 15.9993 17.4995C15.9993 17.8975 16.1573 18.2791 16.4387 18.5605C16.7201 18.8419 17.1018 19 17.4998 19V19ZM6.99976 17.5C6.99976 17.303 6.96096 17.108 6.88558 16.926C6.81019 16.744 6.6997 16.5786 6.56042 16.4393C6.42113 16.3001 6.25577 16.1896 6.07378 16.1142C5.89179 16.0388 5.69674 16 5.49976 16C5.30277 16 5.10772 16.0388 4.92573 16.1142C4.74374 16.1896 4.57838 16.3001 4.4391 16.4393C4.29981 16.5786 4.18932 16.744 4.11394 16.926C4.03855 17.108 3.99976 17.303 3.99976 17.5C3.99976 17.8978 4.15779 18.2794 4.4391 18.5607C4.7204 18.842 5.10193 19 5.49976 19C5.89758 19 6.27911 18.842 6.56042 18.5607C6.84172 18.2794 6.99976 17.8978 6.99976 17.5V17.5Z" fill="white"/>
</svg>
