<svg width="24" height="24" viewBox="0 0 24 24" fill="none" xmlns="http://www.w3.org/2000/svg">
    <g clip-path="url(#clip0_2561_3757)">
        <path d="M3 8L9.003 2H19.998C20.55 2 21 2.455 21 2.992V21.008C20.9997 21.2712 20.895 21.5235 20.7088 21.7095C20.5226 21.8955 20.2702 22 20.007 22H3.993C3.86168 21.9991 3.73182 21.9723 3.61085 21.9212C3.48987 21.8701 3.38015 21.7957 3.28794 21.7022C3.19573 21.6087 3.12284 21.4979 3.07344 21.3762C3.02403 21.2545 2.99908 21.1243 3 20.993V8ZM10 3.5L4.5 9H10V3.5Z" fill="currentColor" />
    </g>
    <defs>
        <clipPath id="clip0_2561_3757">
            <rect width="24" height="24" fill="white" />
        </clipPath>
    </defs>
</svg>