<svg width="36" height="36" viewBox="0 0 36 36" fill="none" xmlns="http://www.w3.org/2000/svg">
<path d="M28.1371 26.6335L21.28 29.2378C21.1488 28.584 20.792 27.9971 20.2719 27.5795C19.7517 27.162 19.1013 26.9403 18.4343 26.9533C17.2914 26.9533 15.9429 26.6678 12.0457 25.2057C9.96443 24.7541 7.81697 24.696 5.71429 25.0343C5.70258 24.8182 5.60833 24.6147 5.45098 24.466C5.29363 24.3172 5.08517 24.2344 4.86857 24.2348H0.857143C0.630735 24.2377 0.414433 24.3289 0.254324 24.4889C0.0942161 24.649 0.00295996 24.8652 0 25.0914V34.9034C0.00295996 35.1297 0.0942161 35.3459 0.254324 35.5059C0.414433 35.666 0.630735 35.7572 0.857143 35.7601H4.81143C4.94825 35.7602 5.08287 35.7256 5.20276 35.6597C5.32265 35.5938 5.42391 35.4987 5.49714 35.3832C8.14399 35.794 10.8186 36.0002 13.4971 36C17.5086 36 21.5543 35.5202 23.9657 34.2181C27.0171 32.5732 29.8857 30.7913 29.8743 30.7913C30.1641 30.6908 30.4308 30.5329 30.6583 30.3272C30.8858 30.1215 31.0696 29.8721 31.1986 29.5939C31.3277 29.3157 31.3994 29.0144 31.4094 28.7079C31.4195 28.4014 31.3677 28.0961 31.2571 27.81C31.13 27.5277 30.9483 27.2732 30.7225 27.0612C30.4967 26.8492 30.2313 26.6838 29.9415 26.5745C29.6516 26.4652 29.3431 26.4141 29.0334 26.4243C28.7238 26.4344 28.4192 26.5055 28.1371 26.6335ZM3.95429 33.9782H1.66857V25.9824H3.95429V33.9782ZM29.0971 29.2607C29.0971 29.2607 26.2286 31.0083 23.1886 32.6875C19.52 34.675 10.9371 34.5265 5.66857 33.6584V26.7363C7.56201 26.4162 9.49764 26.4394 11.3829 26.8048C15.5086 28.3469 16.9714 28.6439 18.3314 28.6439C18.5988 28.6385 18.8596 28.727 19.0684 28.8939C19.2772 29.0609 19.4209 29.2958 19.4743 29.5577V29.6148H13.7143C13.487 29.6148 13.2689 29.705 13.1082 29.8657C12.9474 30.0264 12.8571 30.2443 12.8571 30.4715C12.8571 30.6987 12.9474 30.9166 13.1082 31.0773C13.2689 31.2379 13.487 31.3282 13.7143 31.3282H20.4343C20.5398 31.328 20.6443 31.3087 20.7429 31.2711L28.7429 28.2327C29.2686 28.0385 29.5771 28.2327 29.68 28.4725C29.7829 28.7124 29.6114 29.0551 29.0971 29.3064V29.2607ZM35.1429 0.235955H31.1886C31.0517 0.235907 30.9171 0.27044 30.7972 0.336344C30.6774 0.402248 30.5761 0.497382 30.5029 0.6129C25.1314 -0.255215 16.1371 -0.460821 12 1.75516C8.94857 3.4 6.08 5.18192 6.09143 5.18192C5.80464 5.28591 5.54157 5.44623 5.31775 5.65343C5.09392 5.86063 4.91386 6.11051 4.78818 6.38836C4.66249 6.6662 4.59374 6.96638 4.58595 7.27121C4.57817 7.57603 4.63152 7.87932 4.74286 8.16321C4.9213 8.57186 5.21548 8.91939 5.58914 9.16295C5.96281 9.40652 6.39961 9.53547 6.84571 9.53392C7.19389 9.53296 7.53884 9.46711 7.86286 9.33974L14.72 6.73539C14.8512 7.38919 15.208 7.97614 15.7281 8.39371C16.2483 8.81128 16.8987 9.03292 17.5657 9.01991C18.7086 9.01991 20.0571 9.30547 23.9543 10.7676C24.994 11.0419 26.0679 11.165 27.1429 11.1331C28.2016 11.1274 29.259 11.0549 30.3086 10.9161C30.3203 11.1322 30.4145 11.3357 30.5719 11.4844C30.7292 11.6332 30.9377 11.7159 31.1543 11.7156H35.1429C35.3693 11.7127 35.5856 11.6215 35.7457 11.4614C35.9058 11.3014 35.997 11.0852 36 10.8589V1.09265C35.997 0.866358 35.9058 0.65017 35.7457 0.490146C35.5856 0.330122 35.3693 0.238913 35.1429 0.235955ZM24.5714 9.1684C20.4457 7.62635 18.9829 7.32937 17.6229 7.32937C17.3555 7.33476 17.0947 7.24626 16.8859 7.07929C16.6771 6.91233 16.5334 6.67745 16.48 6.41556H22.3429C22.5702 6.41556 22.7882 6.3253 22.9489 6.16464C23.1097 6.00398 23.2 5.78608 23.2 5.55887C23.2 5.33166 23.1097 5.11376 22.9489 4.9531C22.7882 4.79244 22.5702 4.70218 22.3429 4.70218H15.5657C15.4637 4.68377 15.3592 4.68377 15.2571 4.70218L7.25714 7.70631C6.73143 7.90049 6.42286 7.70631 6.32 7.46644C6.21714 7.22656 6.38857 6.88389 6.90286 6.63259C6.90286 6.63259 9.77143 4.88494 12.8114 3.20582C16.48 1.22972 25.0629 1.36679 30.3314 2.24633V9.23693C28.4231 9.56257 26.4715 9.53934 24.5714 9.1684ZM34.2857 10.0479H32V1.99503H34.2857V10.0479ZM16.3657 21.5847H17.5086V20.5567H19.0057V19.6429H17.5429V18.8319H18.5829C18.9744 18.8501 19.3651 18.7799 19.7257 18.6263C20.0162 18.5152 20.2752 18.3348 20.48 18.1008C20.6657 17.8965 20.8059 17.6551 20.8914 17.3926C20.9801 17.1432 21.0265 16.8806 21.0286 16.6159C21.0266 16.2498 20.9488 15.8881 20.8 15.5536C20.6431 15.2029 20.379 14.911 20.0457 14.7198C19.6128 14.4811 19.1225 14.3665 18.6286 14.3885H16.3657V17.7239H15.5657V18.8662H16.3657V19.6772H15.5657V20.591H16.3657V21.5847ZM17.5086 15.4965H18.6514C18.8936 15.4831 19.1338 15.5472 19.3371 15.6793C19.4975 15.7808 19.6184 15.9339 19.68 16.1133C19.7449 16.2731 19.7797 16.4435 19.7829 16.6159C19.7853 16.7938 19.7462 16.9698 19.6686 17.1299C19.5975 17.3043 19.4736 17.4521 19.3143 17.5526C19.116 17.676 18.8847 17.7358 18.6514 17.7239H17.5086V15.4965ZM17.9657 25.6968C19.4929 25.7036 20.9877 25.2572 22.2608 24.4141C23.534 23.5711 24.528 22.3693 25.1172 20.961C25.7063 19.5528 25.864 18.0014 25.5702 16.5035C25.2764 15.0057 24.5444 13.6286 23.467 12.5469C22.3895 11.4652 21.015 10.7274 19.5176 10.4271C18.0203 10.1269 16.4674 10.2775 15.0558 10.8601C13.6442 11.4426 12.4374 12.4308 11.5882 13.6995C10.739 14.9682 10.2857 16.4602 10.2857 17.9866C10.2887 20.0306 11.1025 21.9899 12.5485 23.4352C13.9946 24.8805 15.955 25.6938 18 25.6968H17.9657ZM17.9657 11.9898C19.1538 11.983 20.3172 12.3289 21.3084 12.9837C22.2996 13.6385 23.074 14.5727 23.5334 15.6679C23.9928 16.763 24.1165 17.9699 23.8889 19.1354C23.6612 20.3009 23.0925 21.3727 22.2548 22.2148C21.417 23.0569 20.348 23.6314 19.1832 23.8656C18.0184 24.0998 16.8102 23.983 15.7119 23.5302C14.6135 23.0773 13.6744 22.3087 13.0136 21.3218C12.3528 20.3349 12 19.1741 12 17.9866C12.003 16.3971 12.6361 14.8735 13.7607 13.7495C14.8853 12.6256 16.4096 11.9928 18 11.9898H17.9657Z" fill="white"/>
</svg>
