<svg width="24" height="24" viewBox="0 0 24 24" fill="none" xmlns="http://www.w3.org/2000/svg">
<g clip-path="url(#clip0_2549_2461)">
<path d="M19 18.9998V9.79884L12 4.27684L5 9.79884V18.9998H19ZM21 19.9998C21 20.2651 20.8946 20.5194 20.7071 20.7069C20.5196 20.8945 20.2652 20.9998 20 20.9998H4C3.73478 20.9998 3.48043 20.8945 3.29289 20.7069C3.10536 20.5194 3 20.2651 3 19.9998V9.31384C2.99994 9.16279 3.0341 9.01369 3.09991 8.87773C3.16573 8.74177 3.26149 8.62249 3.38 8.52884L11.38 2.21784C11.5565 2.07833 11.775 2.00244 12 2.00244C12.225 2.00244 12.4435 2.07833 12.62 2.21784L20.62 8.52784C20.7386 8.6216 20.8345 8.74104 20.9003 8.87718C20.9661 9.01332 21.0002 9.16262 21 9.31384V19.9998V19.9998ZM7 11.9998H9C9 12.7955 9.31607 13.5586 9.87868 14.1212C10.4413 14.6838 11.2044 14.9998 12 14.9998C12.7956 14.9998 13.5587 14.6838 14.1213 14.1212C14.6839 13.5586 15 12.7955 15 11.9998H17C17 13.3259 16.4732 14.5977 15.5355 15.5354C14.5979 16.4731 13.3261 16.9998 12 16.9998C10.6739 16.9998 9.40215 16.4731 8.46447 15.5354C7.52678 14.5977 7 13.3259 7 11.9998V11.9998Z" fill="white"/>
</g>
<defs>
<clipPath id="clip0_2549_2461">
<rect width="24" height="24" fill="white"/>
</clipPath>
</defs>
</svg>
