<svg width="24" height="24" viewBox="0 0 24 24" fill="none" xmlns="http://www.w3.org/2000/svg">
<g clip-path="url(#clip0_2549_2382)">
<path d="M17.8714 16.6665V21.3332H15.9143V16.6665C15.9143 12.5122 18.5016 8.93384 22.2231 7.31824L23.0333 9.0169C21.4938 9.68478 20.1883 10.7613 19.273 12.1177C18.3576 13.4742 17.8711 15.0534 17.8714 16.6665V16.6665ZM8.08574 16.6665V21.3332H6.12861V16.6665C6.12875 15.0535 5.64209 13.4746 4.72675 12.1183C3.81141 10.762 2.50608 9.68565 0.966675 9.01784L1.77693 7.31824C3.6584 8.13443 5.25378 9.44993 6.37249 11.1076C7.49121 12.7653 8.08597 14.6951 8.08574 16.6665ZM12 11.9998C10.7023 11.9998 9.45784 11.5082 8.54025 10.633C7.62267 9.75783 7.10718 8.57085 7.10718 7.33317C7.10718 6.09549 7.62267 4.90851 8.54025 4.03334C9.45784 3.15817 10.7023 2.6665 12 2.6665C13.2977 2.6665 14.5422 3.15817 15.4598 4.03334C16.3773 4.90851 16.8928 6.09549 16.8928 7.33317C16.8928 8.57085 16.3773 9.75783 15.4598 10.633C14.5422 11.5082 13.2977 11.9998 12 11.9998V11.9998ZM12 10.1332C12.3855 10.1332 12.7673 10.0607 13.1235 9.92003C13.4796 9.77932 13.8033 9.57307 14.0759 9.31307C14.3485 9.05307 14.5647 8.7444 14.7122 8.40468C14.8598 8.06497 14.9357 7.70087 14.9357 7.33317C14.9357 6.96547 14.8598 6.60137 14.7122 6.26166C14.5647 5.92195 14.3485 5.61328 14.0759 5.35327C13.8033 5.09327 13.4796 4.88702 13.1235 4.74631C12.7673 4.60559 12.3855 4.53317 12 4.53317C11.2214 4.53317 10.4747 4.82817 9.92415 5.35327C9.3736 5.87837 9.06431 6.59056 9.06431 7.33317C9.06431 8.07578 9.3736 8.78797 9.92415 9.31307C10.4747 9.83817 11.2214 10.1332 12 10.1332V10.1332Z" fill="white"/>
</g>
<defs>
<clipPath id="clip0_2549_2382">
<rect width="24" height="24" fill="white"/>
</clipPath>
</defs>
</svg>
