<svg width="24" height="24" viewBox="0 0 24 24" fill="none" xmlns="http://www.w3.org/2000/svg">
<g clip-path="url(#clip0_2549_9232)">
<path d="M10.9998 17.938C8.98247 17.6813 7.13861 16.6661 5.84294 15.0988C4.54728 13.5314 3.89704 11.5295 4.02438 9.49997C4.15172 7.47041 5.04709 5.56549 6.5285 4.17238C8.00991 2.77927 9.9662 2.00252 11.9998 2C14.0358 1.99849 15.9958 2.77334 17.4804 4.16668C18.965 5.56002 19.8625 7.467 19.99 9.49904C20.1175 11.5311 19.4654 13.5353 18.1666 15.1033C16.8678 16.6712 15.02 17.685 12.9998 17.938V20.012C16.9458 20.104 19.9998 20.735 19.9998 21.5C19.9998 22.328 16.4178 23 11.9998 23C7.58176 23 3.99976 22.328 3.99976 21.5C3.99976 20.735 7.05376 20.104 10.9998 20.012V17.938V17.938ZM11.9998 16C13.5911 16 15.1172 15.3679 16.2424 14.2426C17.3676 13.1174 17.9998 11.5913 17.9998 10C17.9998 8.4087 17.3676 6.88258 16.2424 5.75736C15.1172 4.63214 13.5911 4 11.9998 4C10.4085 4 8.88233 4.63214 7.75712 5.75736C6.6319 6.88258 5.99976 8.4087 5.99976 10C5.99976 11.5913 6.6319 13.1174 7.75712 14.2426C8.88233 15.3679 10.4085 16 11.9998 16V16ZM11.9998 12C11.4693 12 10.9606 11.7893 10.5855 11.4142C10.2105 11.0391 9.99976 10.5304 9.99976 10C9.99976 9.46957 10.2105 8.96086 10.5855 8.58579C10.9606 8.21072 11.4693 8 11.9998 8C12.5302 8 13.0389 8.21072 13.414 8.58579C13.789 8.96086 13.9998 9.46957 13.9998 10C13.9998 10.5304 13.789 11.0391 13.414 11.4142C13.0389 11.7893 12.5302 12 11.9998 12Z" fill="white"/>
</g>
<defs>
<clipPath id="clip0_2549_9232">
<rect width="24" height="24" fill="white"/>
</clipPath>
</defs>
</svg>
