<svg width="16" height="16" viewBox="0 0 16 16" fill="none" xmlns="http://www.w3.org/2000/svg">
<g clip-path="url(#clip0_2545_2088)">
<path d="M14 0H2C0.895503 0 0 0.895503 0 2V14C0 15.1045 0.895503 16 2 16H14C15.1045 16 16 15.1045 16 14V2C16 0.895503 15.1045 0 14 0ZM7 14H2.51401C2.37401 14 2.2485 13.942 2.15801 13.8495C2.06102 13.7675 2.00003 13.648 2.00003 13.5V9C2.00003 8.724 2.22403 8.5 2.50003 8.5C2.77603 8.5 3.00003 8.724 3.00003 9L2.98403 12.2875L6.37801 8.89352L7.08502 9.6005L3.68549 13H7C7.276 13 7.5 13.224 7.5 13.5C7.5 13.776 7.276 14 7 14ZM14 7C14 7.276 13.776 7.5 13.5 7.5C13.224 7.5 13 7.276 13 7L13.016 3.7125L9.62199 7.10651L8.91501 6.3995L12.3145 3H9C8.724 3 8.5 2.776 8.5 2.5C8.5 2.224 8.724 2 9 2H13.486C13.626 2 13.7515 2.05801 13.842 2.15051C13.939 2.2325 14 2.352 14 2.5V7Z" fill="#F7620F"/>
</g>
<defs>
<clipPath id="clip0_2545_2088">
<rect width="16" height="16" fill="white"/>
</clipPath>
</defs>
</svg>
