<svg width="16" height="16" viewBox="0 0 16 16" fill="none" xmlns="http://www.w3.org/2000/svg">
<g clip-path="url(#clip0_2545_2083)">
<path d="M8.00348 0.664551C3.96129 0.664551 0.664932 3.9609 0.664932 8.00309C0.664932 12.0453 3.96129 15.3351 8.00348 15.3351C12.0457 15.3351 15.3355 12.0453 15.3355 8.00309C15.336 7.915 15.3191 7.82767 15.2856 7.74617C15.2522 7.66466 15.2029 7.59059 15.1407 7.52823C15.0785 7.46588 15.0045 7.41648 14.9231 7.38288C14.8416 7.34929 14.7543 7.33217 14.6662 7.33252C14.5786 7.33286 14.4918 7.35048 14.411 7.38439C14.3302 7.41829 14.2568 7.4678 14.1951 7.53008C14.1334 7.59237 14.0847 7.66621 14.0515 7.74737C14.0184 7.82854 14.0017 7.91543 14.0022 8.00309C14.0022 11.3247 11.3251 14.0018 8.00348 14.0018C4.68187 14.0018 1.99827 11.3247 1.99827 8.00309C1.99827 4.68149 4.68187 1.99788 8.00348 1.99788C8.17939 1.9972 8.34789 1.92702 8.47228 1.80263C8.59667 1.67824 8.66685 1.50973 8.66754 1.33382C8.66788 1.24627 8.65098 1.15952 8.61779 1.0785C8.5846 0.997485 8.53578 0.923801 8.47412 0.861653C8.41246 0.799505 8.33915 0.750112 8.2584 0.716293C8.17765 0.682474 8.09102 0.664892 8.00348 0.664551ZM10.5334 1.16585C10.2732 1.16837 10.0274 1.32379 9.92274 1.57991C9.78222 1.92102 9.94441 2.31143 10.286 2.45101C10.2938 2.45429 10.2989 2.45857 10.3054 2.46134C10.6465 2.60572 11.0402 2.44421 11.1817 2.10197C11.3228 1.76222 11.1618 1.37238 10.8224 1.23087C10.8128 1.22684 10.8022 1.22004 10.7937 1.21651C10.7084 1.18138 10.6202 1.16497 10.5334 1.16585ZM12.7027 2.60856C12.527 2.61001 12.3591 2.68052 12.2352 2.80517C11.9735 3.06576 11.9735 3.4899 12.2352 3.75048C12.2408 3.75603 12.2441 3.7593 12.2496 3.76485C12.5088 4.02794 12.933 4.03044 13.1949 3.77014C13.4567 3.50955 13.4567 3.08541 13.1949 2.82483C13.1881 2.81802 13.1823 2.81197 13.1755 2.80542C13.0505 2.67957 12.8801 2.60871 12.7027 2.60856ZM8.00348 3.33252C7.91538 3.332 7.82805 3.34895 7.74655 3.38239C7.66504 3.41582 7.59097 3.46508 7.52862 3.52731C7.46626 3.58955 7.41686 3.66352 7.38327 3.74496C7.34967 3.8264 7.33256 3.91369 7.3329 4.00179V8.00309C7.33326 8.12682 7.36803 8.24801 7.43334 8.3531C7.49865 8.45819 7.59191 8.54304 7.70269 8.59814L10.3694 9.93148C10.4478 9.9708 10.5333 9.99425 10.6208 10.0005C10.7083 10.0067 10.7962 9.99558 10.8795 9.96776C10.9627 9.93994 11.0396 9.89595 11.1058 9.83834C11.172 9.78072 11.2262 9.7106 11.2652 9.632C11.3045 9.55354 11.328 9.4681 11.3342 9.38056C11.3404 9.29303 11.3293 9.20512 11.3015 9.12189C11.2737 9.03866 11.2297 8.96175 11.1721 8.89555C11.1144 8.82936 11.0443 8.7752 10.9657 8.73617L8.66754 7.58903V4.00179C8.66788 3.91424 8.65098 3.82748 8.61779 3.74647C8.5846 3.66545 8.53578 3.59177 8.47412 3.52962C8.41246 3.46747 8.33915 3.41808 8.2584 3.38426C8.17765 3.35044 8.09102 3.33286 8.00348 3.33252ZM14.1597 4.76611C14.0724 4.76561 13.9836 4.78224 13.898 4.8182C13.5557 4.9597 13.3942 5.3534 13.5386 5.6945C13.5419 5.70256 13.5462 5.70709 13.549 5.7139C13.6885 6.05539 14.079 6.21901 14.4201 6.07848C14.7616 5.93892 14.9252 5.54849 14.7846 5.20739C14.7809 5.19832 14.7776 5.19076 14.7743 5.1827C14.6696 4.92454 14.4215 4.76763 14.1597 4.76611Z" fill="#F7620F"/>
</g>
<defs>
<clipPath id="clip0_2545_2083">
<rect width="16" height="16" fill="white"/>
</clipPath>
</defs>
</svg>
