<svg width="24" height="24" viewBox="0 0 24 24" fill="none" xmlns="http://www.w3.org/2000/svg">
<g clip-path="url(#clip0_2549_16)">
<path d="M10.5002 17.0003H4.00024V15.0003H10.5002C11.139 15.0005 11.7655 15.1755 12.3119 15.5064C12.8583 15.8372 13.3037 16.3113 13.5999 16.8772C13.8961 17.4431 14.0318 18.0793 13.9923 18.7168C13.9528 19.3543 13.7395 19.9689 13.3757 20.4939C13.0119 21.0189 12.5113 21.4343 11.9282 21.6952C11.3452 21.956 10.7018 22.0523 10.068 21.9736C9.43408 21.895 8.8338 21.6443 8.33218 21.2489C7.83056 20.8534 7.44672 20.3283 7.22224 19.7303L9.09524 19.0273C9.19142 19.2836 9.35591 19.5087 9.57087 19.6782C9.78584 19.8477 10.0431 19.9551 10.3148 19.9888C10.5864 20.0226 10.8621 19.9813 11.112 19.8696C11.3619 19.7578 11.5765 19.5798 11.7324 19.3548C11.8884 19.1298 11.9798 18.8664 11.9967 18.5932C12.0137 18.32 11.9556 18.0473 11.8286 17.8048C11.7017 17.5622 11.5108 17.359 11.2767 17.2172C11.0425 17.0754 10.774 17.0004 10.5002 17.0003ZM5.00024 11.0003H18.5002C19.139 11.0005 19.7655 11.1755 20.3119 11.5064C20.8583 11.8372 21.3037 12.3113 21.5999 12.8772C21.8961 13.4431 22.0318 14.0793 21.9923 14.7168C21.9528 15.3543 21.7395 15.9689 21.3757 16.4939C21.0119 17.0189 20.5113 17.4343 19.9282 17.6952C19.3452 17.956 18.7018 18.0523 18.068 17.9736C17.4341 17.895 16.8338 17.6443 16.3322 17.2489C15.8306 16.8534 15.4467 16.3283 15.2222 15.7303L17.0952 15.0273C17.1914 15.2836 17.3559 15.5087 17.5709 15.6782C17.7858 15.8477 18.0431 15.9551 18.3148 15.9888C18.5864 16.0226 18.8621 15.9813 19.112 15.8696C19.3619 15.7578 19.5765 15.5798 19.7324 15.3548C19.8884 15.1298 19.9798 14.8664 19.9967 14.5932C20.0137 14.32 19.9556 14.0473 19.8286 13.8048C19.7017 13.5622 19.5108 13.359 19.2767 13.2172C19.0425 13.0754 18.774 13.0004 18.5002 13.0003H5.00024C4.20459 13.0003 3.44153 12.6842 2.87892 12.1216C2.31631 11.559 2.00024 10.7959 2.00024 10.0003C2.00024 9.20462 2.31631 8.44156 2.87892 7.87895C3.44153 7.31634 4.20459 7.00027 5.00024 7.00027H13.5002C13.774 7.00016 14.0425 6.92513 14.2767 6.78332C14.5108 6.64151 14.7017 6.43832 14.8286 6.19578C14.9556 5.95323 15.0137 5.68058 14.9967 5.40735C14.9798 5.13412 14.8884 4.87075 14.7324 4.64576C14.5765 4.42077 14.3619 4.24275 14.112 4.13098C13.8621 4.01922 13.5864 3.97797 13.3148 4.01171C13.0431 4.04544 12.7858 4.15288 12.5709 4.32238C12.3559 4.49188 12.1914 4.71697 12.0952 4.97327L10.2222 4.27127C10.5107 3.50407 11.0592 2.86241 11.7722 2.45808C12.4852 2.05375 13.3174 1.91239 14.1239 2.05862C14.9304 2.20485 15.66 2.62941 16.1856 3.25833C16.7112 3.88724 16.9995 4.68063 17.0002 5.50027C17.0002 6.42853 16.6315 7.31877 15.9751 7.97514C15.3187 8.63152 14.4285 9.00027 13.5002 9.00027H5.00024C4.73503 9.00027 4.48067 9.10563 4.29314 9.29316C4.1056 9.4807 4.00024 9.73505 4.00024 10.0003C4.00024 10.2655 4.1056 10.5198 4.29314 10.7074C4.48067 10.8949 4.73503 11.0003 5.00024 11.0003Z" fill="white"/>
</g>
<defs>
<clipPath id="clip0_2549_16">
<rect width="24" height="24" fill="white"/>
</clipPath>
</defs>
</svg>
