<svg width="64" height="64" viewBox="0 0 64 64" fill="none" xmlns="http://www.w3.org/2000/svg"><line x1="32.4021" y1="8" x2="32.4021" y2="56.3616" stroke="#EA5B0C" stroke-width="2"/><line x1="27.4283" y1="7.29289" x2="32.1085" y2="11.9731" stroke="#EA5B0C" stroke-width="2"/><line x1="27.4283" y1="13.5331" x2="32.1085" y2="18.2133" stroke="#EA5B0C" stroke-width="2"/><line x1="27.4283" y1="18.9931" x2="32.1085" y2="23.6732" stroke="#EA5B0C" stroke-width="2"/><line y1="-1" x2="6.61874" y2="-1" transform="matrix(-0.707107 0.707107 0.707107 0.707107 36.8616 8)" stroke="#EA5B0C" stroke-width="2"/><line y1="-1" x2="6.61874" y2="-1" transform="matrix(-0.707107 0.707107 0.707107 0.707107 36.8616 14.2402)" stroke="#EA5B0C" stroke-width="2"/><line y1="-1" x2="6.61874" y2="-1" transform="matrix(-0.707107 0.707107 0.707107 0.707107 36.8616 19.7002)" stroke="#EA5B0C" stroke-width="2"/><line x1="36.1545" y1="57.0687" x2="31.4743" y2="52.3885" stroke="#EA5B0C" stroke-width="2"/><line x1="36.1545" y1="50.8287" x2="31.4743" y2="46.1485" stroke="#EA5B0C" stroke-width="2"/><line x1="36.1545" y1="45.3685" x2="31.4743" y2="40.6883" stroke="#EA5B0C" stroke-width="2"/><line y1="-1" x2="6.61874" y2="-1" transform="matrix(0.707107 -0.707107 -0.707107 -0.707107 26.7212 56.3618)" stroke="#EA5B0C" stroke-width="2"/><line y1="-1" x2="6.61874" y2="-1" transform="matrix(0.707107 -0.707107 -0.707107 -0.707107 26.7212 50.1216)" stroke="#EA5B0C" stroke-width="2"/><line y1="-1" x2="6.61874" y2="-1" transform="matrix(0.707107 -0.707107 -0.707107 -0.707107 26.7212 44.6614)" stroke="#EA5B0C" stroke-width="2"/><line x1="56.3616" y1="33.1807" x2="7.99992" y2="33.1807" stroke="#EA5B0C" stroke-width="2"/><line x1="57.0687" y1="28.2076" x2="52.3885" y2="32.8878" stroke="#EA5B0C" stroke-width="2"/><line x1="50.8287" y1="28.2076" x2="46.1485" y2="32.8878" stroke="#EA5B0C" stroke-width="2"/><line x1="45.3682" y1="28.2076" x2="40.6881" y2="32.8878" stroke="#EA5B0C" stroke-width="2"/><line y1="-1" x2="6.61874" y2="-1" transform="matrix(-0.707107 -0.707107 -0.707107 0.707107 56.3616 37.6409)" stroke="#EA5B0C" stroke-width="2"/><line y1="-1" x2="6.61874" y2="-1" transform="matrix(-0.707107 -0.707107 -0.707107 0.707107 50.1216 37.6409)" stroke="#EA5B0C" stroke-width="2"/><line y1="-1" x2="6.61874" y2="-1" transform="matrix(-0.707107 -0.707107 -0.707107 0.707107 44.6611 37.6409)" stroke="#EA5B0C" stroke-width="2"/><line x1="7.29363" y1="36.9338" x2="11.9738" y2="32.2536" stroke="#EA5B0C" stroke-width="2"/><line x1="13.5336" y1="36.9338" x2="18.2138" y2="32.2536" stroke="#EA5B0C" stroke-width="2"/><line x1="18.9941" y1="36.9338" x2="23.6742" y2="32.2536" stroke="#EA5B0C" stroke-width="2"/><line y1="-1" x2="6.61874" y2="-1" transform="matrix(0.707107 0.707107 0.707107 -0.707107 8.00073 27.5005)" stroke="#EA5B0C" stroke-width="2"/><line y1="-1" x2="6.61874" y2="-1" transform="matrix(0.707107 0.707107 0.707107 -0.707107 14.2407 27.5005)" stroke="#EA5B0C" stroke-width="2"/><line y1="-1" x2="6.61874" y2="-1" transform="matrix(0.707107 0.707107 0.707107 -0.707107 19.7012 27.5005)" stroke="#EA5B0C" stroke-width="2"/><line x1="49.4578" y1="15.1366" x2="15.261" y2="49.3334" stroke="#EA5B0C" stroke-width="2"/><line x1="46.4421" y1="11.1206" x2="46.4421" y2="17.7393" stroke="#EA5B0C" stroke-width="2"/><line x1="42.0288" y1="15.5325" x2="42.0288" y2="22.1512" stroke="#EA5B0C" stroke-width="2"/><line x1="38.1682" y1="19.3936" x2="38.1682" y2="26.0123" stroke="#EA5B0C" stroke-width="2"/><line y1="-1" x2="6.61874" y2="-1" transform="matrix(-1 0 0 1 52.6121 18.2903)" stroke="#EA5B0C" stroke-width="2"/><line y1="-1" x2="6.61874" y2="-1" transform="matrix(-1 0 0 1 48.1995 22.7026)" stroke="#EA5B0C" stroke-width="2"/><line y1="-1" x2="6.61874" y2="-1" transform="matrix(-1 0 0 1 44.3386 26.564)" stroke="#EA5B0C" stroke-width="2"/><line x1="17.4153" y1="52.4868" x2="17.4153" y2="45.8681" stroke="#EA5B0C" stroke-width="2"/><line x1="21.8284" y1="48.075" x2="21.8284" y2="41.4562" stroke="#EA5B0C" stroke-width="2"/><line x1="25.6887" y1="44.2136" x2="25.6887" y2="37.5949" stroke="#EA5B0C" stroke-width="2"/><line y1="-1" x2="6.61874" y2="-1" transform="matrix(1 8.42937e-08 8.42937e-08 -1 11.2454 45.3169)" stroke="#EA5B0C" stroke-width="2"/><line y1="-1" x2="6.61874" y2="-1" transform="matrix(1 8.42937e-08 8.42937e-08 -1 15.658 40.9045)" stroke="#EA5B0C" stroke-width="2"/><line y1="-1" x2="6.61874" y2="-1" transform="matrix(1 8.42937e-08 8.42937e-08 -1 19.5178 37.0435)" stroke="#EA5B0C" stroke-width="2"/><line x1="48.4455" y1="49.4578" x2="14.2486" y2="15.261" stroke="#EA5B0C" stroke-width="2"/><line x1="52.4622" y1="46.4414" x2="45.8434" y2="46.4414" stroke="#EA5B0C" stroke-width="2"/><line x1="48.0498" y1="42.0291" x2="41.4311" y2="42.0291" stroke="#EA5B0C" stroke-width="2"/><line x1="44.1887" y1="38.168" x2="37.57" y2="38.168" stroke="#EA5B0C" stroke-width="2"/><line y1="-1" x2="6.61874" y2="-1" transform="matrix(8.42937e-08 -1 -1 -8.42937e-08 45.292 52.6116)" stroke="#EA5B0C" stroke-width="2"/><line y1="-1" x2="6.61874" y2="-1" transform="matrix(8.42937e-08 -1 -1 -8.42937e-08 40.8794 48.1992)" stroke="#EA5B0C" stroke-width="2"/><line y1="-1" x2="6.61874" y2="-1" transform="matrix(8.42937e-08 -1 -1 -8.42937e-08 37.0188 44.3381)" stroke="#EA5B0C" stroke-width="2"/><line x1="11.0945" y1="17.4148" x2="17.7132" y2="17.4148" stroke="#EA5B0C" stroke-width="2"/><line x1="15.5068" y1="21.8274" x2="22.1256" y2="21.8274" stroke="#EA5B0C" stroke-width="2"/><line x1="19.3674" y1="25.6885" x2="25.9862" y2="25.6885" stroke="#EA5B0C" stroke-width="2"/><line y1="-1" x2="6.61874" y2="-1" transform="matrix(-1.68587e-07 1 1 1.68587e-07 18.2644 11.2449)" stroke="#EA5B0C" stroke-width="2"/><line y1="-1" x2="6.61874" y2="-1" transform="matrix(-1.68587e-07 1 1 1.68587e-07 22.6768 15.657)" stroke="#EA5B0C" stroke-width="2"/><line y1="-1" x2="6.61874" y2="-1" transform="matrix(-1.68587e-07 1 1 1.68587e-07 26.5376 19.5183)" stroke="#EA5B0C" stroke-width="2"/></svg>