<svg width="100" height="116" viewBox="0 0 100 116" fill="none" xmlns="http://www.w3.org/2000/svg"><path d="M81.2452 52.2092V5.67102C81.2452 4.51917 80.3729 3.79712 79.0123 3.79712H3.47713C2.11645 3.79712 1 4.51917 1 5.67102V94.69C1 95.8419 2.11645 96.9422 3.47713 96.9422H34.703C39.7793 92.5411 44.7511 87.4523 49.7577 82.6214C60.2593 72.4783 70.5516 62.1288 81.2452 52.2264V52.2092ZM69.6445 19.3385C69.6445 20.9545 68.9467 22.2611 68.0919 22.2611H14.1532C13.2984 22.2611 12.6007 20.9545 12.6007 19.3385V19.029C12.6007 17.413 13.2984 16.1064 14.1532 16.1064H68.0919C68.9467 16.1064 69.6445 17.413 69.6445 19.029V19.3385ZM69.6445 33.3842C69.6445 35.0002 68.9467 36.3068 68.0919 36.3068H14.1532C13.2984 36.3068 12.6007 35.0002 12.6007 33.3842V33.0747C12.6007 31.4587 13.2984 30.1521 14.1532 30.1521H68.0919C68.9467 30.1521 69.6445 31.4587 69.6445 33.0747V33.3842ZM69.6445 47.447C69.6445 49.0631 68.9467 50.3696 68.0919 50.3696H14.1532C13.2984 50.3696 12.6007 49.0631 12.6007 47.447V47.1376C12.6007 45.5216 13.2984 44.215 14.1532 44.215H68.0919C68.9467 44.215 69.6445 45.5216 69.6445 47.1376V47.447Z" fill="#FFD1B8"/><path d="M96.8581 62.4554C98.7944 60.2205 99.2305 57.2807 96.4569 54.0487C96.4569 54.0487 92.9679 50.5587 88.1358 53H88.1009L88.0137 53.0859C87.7694 53.2063 87.5252 53.3438 87.2635 53.4985C87.2635 53.4985 86.967 53.5673 87.1065 53.6361C86.8972 53.6533 87.1065 53.6361 86.8798 53.6533L86.653 53.6876L76.0641 63.848C75.8548 64.0199 75.6629 64.209 75.4884 64.3809L47.2282 91.2345C46.356 92.0597 46.1466 92.4035 45.3616 93.3491L45.414 93.3147L45.4488 93.2975L34.4413 113.188L54.6073 102.942C54.834 103.045 55.9156 102.272 57.1018 101.137L85.24 74.2834C85.4144 74.1115 85.6063 73.9396 85.7808 73.7504L96.9279 62.9712V62.7133C96.9279 62.7133 96.893 62.5758 96.8755 62.4383L96.8581 62.4554ZM85.5889 64.57C83.5653 62.4554 80.3032 61.4411 79.71 61.2864L86.5134 54.7535C87.4903 54.977 90.2989 55.7678 92.6016 57.7449C94.9915 59.8251 95.637 62.4039 95.794 63.1603L88.4498 70.2605C88.4498 68.8336 87.6822 66.7534 85.6063 64.57H85.5889ZM85.0306 71.739L57.1018 98.3003C56.9274 98.4722 56.4389 98.9708 56.2645 99.1427C54.7991 100.57 54.7294 101.67 54.5898 102.444L43.7044 108.031C43.5823 107.326 42.8322 104.197 39.5177 104.782L45.7454 93.521C46.4955 93.435 48.4668 93.2975 50.0368 91.8706C50.2112 91.6987 49.9495 91.9394 50.124 91.7674L78.8901 64.3637C79.2914 63.9683 79.5181 63.762 79.7275 63.5385C80.1462 63.6933 80.6172 63.8996 81.1056 64.1231C80.9312 64.295 80.7742 64.4497 80.5648 64.6388L50.8741 92.627C50.3508 93.1256 49.496 93.9852 48.9552 94.8276C47.7166 96.8046 47.7864 98.0768 49.025 99.349C50.3508 100.69 52.0952 100.329 54.2235 98.9708C54.6421 98.7645 55.3923 98.1456 55.7935 97.7674L85.5714 69.315C85.7982 69.0915 86.0075 68.8852 86.1994 68.6961C86.4785 69.1946 86.6879 69.6588 86.8274 70.0714C86.0948 70.7247 85.6761 71.1029 85.0132 71.739H85.0306Z" fill="#FFD1B8"/></svg>