<svg width="573" height="260" viewBox="0 0 573 260" fill="none" xmlns="http://www.w3.org/2000/svg"><path d="M572.262 108.58C577.181 160.97 469.179 205.288 321.952 230.371C179.266 254.681 43.9796 239.883 36.0442 196.813C24.1131 132.057 148.759 87.8097 296.586 66.5472C450.897 44.3517 568.216 65.4901 572.262 108.58Z" fill="#FCF7F4"/><path d="M157.37 229.816H152.001V230.799L87.0421 242.7V246.995L157.37 234.647V229.816Z" fill="#E96122"/><path d="M157.37 209.952L90.7995 220.153L87.5787 219.079L83.8205 221.226L87.042 228.705L157.37 216.358V209.952Z" fill="#E96122"/><path d="M92.4106 224.447H87.0424V245.384H92.4106V224.447Z" fill="#E96122"/><path d="M157.37 208.878H150.927V234.11H153.075V216.931H157.37V208.878Z" fill="#E96122"/><path d="M5.97681 209.952L87.0792 242.7L86.997 246.994L5.97681 214.01V209.952Z" fill="#E96122"/><path d="M5.97681 214.01V209.952L87.0792 242.7" fill="#E96122"/><path d="M4.90326 191.699L8.12407 191.162L10.8089 192.236V194.383L89.7639 222.837L89.6809 230.741L4.90326 197.605V191.699Z" fill="#E96122"/><path d="M87.0416 222.835H82.21V243.772H87.0416V222.835Z" fill="#E96122"/><path d="M5.97681 214.247L87.0416 246.995" stroke="#474A54" stroke-miterlimit="10"/><path d="M87.0419 246.994V227.667" stroke="#474A54" stroke-miterlimit="10"/><path d="M82.2103 240.552V227.668" stroke="#474A54" stroke-miterlimit="10"/><path d="M82.4787 240.821L5.70874 210.22" stroke="#474A54" stroke-miterlimit="10"/><path d="M5.7085 210.22V214.515" stroke="#474A54" stroke-miterlimit="10"/><path d="M7.31921 210.757V198.409" stroke="#474A54" stroke-miterlimit="10"/><path d="M82.4787 227.936L4.6347 197.872" stroke="#474A54" stroke-miterlimit="10"/><path d="M4.63495 197.872V191.967" stroke="#474A54" stroke-miterlimit="10"/><path d="M84.0892 220.957L11.0775 194.114" stroke="#474A54" stroke-miterlimit="10"/><path d="M82.4786 222.568L7.3194 195.726" stroke="#474A54" stroke-miterlimit="10"/><path d="M7.31921 195.726V193.041" stroke="#474A54" stroke-miterlimit="10"/><path d="M7.31921 193.041L11.0774 192.504" stroke="#474A54" stroke-miterlimit="10"/><path d="M11.077 192.504V194.115" stroke="#474A54" stroke-miterlimit="10"/><path d="M7.31908 193.041L4.63495 191.967" stroke="#474A54" stroke-miterlimit="10"/><path d="M4.63495 191.968L8.39316 191.431" stroke="#474A54" stroke-miterlimit="10"/><path d="M8.39276 191.43L11.0769 192.504" stroke="#474A54" stroke-miterlimit="10"/><path d="M11.077 192.504L62.0783 184.988" stroke="#474A54" stroke-miterlimit="10"/><path d="M62.0782 184.989V183.378" stroke="#474A54" stroke-miterlimit="10"/><path d="M62.0782 183.377H67.9839" stroke="#474A54" stroke-miterlimit="10"/><path d="M67.9836 183.378V184.989" stroke="#474A54" stroke-miterlimit="10"/><path d="M67.9836 184.988L150.659 208.609" stroke="#474A54" stroke-miterlimit="10"/><path d="M150.659 208.609H157.638" stroke="#474A54" stroke-miterlimit="10"/><path d="M157.638 208.61V217.2" stroke="#474A54" stroke-miterlimit="10"/><path d="M157.101 217.2H153.343" stroke="#474A54" stroke-miterlimit="10"/><path d="M153.343 217.199V229.547" stroke="#474A54" stroke-miterlimit="10"/><path d="M153.343 229.546H157.638" stroke="#474A54" stroke-miterlimit="10"/><path d="M150.659 208.609V213.441" stroke="#474A54" stroke-miterlimit="10"/><path d="M150.659 213.441L90.5312 222.567" stroke="#474A54" stroke-miterlimit="10"/><path d="M90.5314 227.4V219.884" stroke="#474A54" stroke-miterlimit="10"/><path d="M90.5314 219.884L150.659 210.757" stroke="#474A54" stroke-miterlimit="10"/><path d="M120.595 215.051L40.0671 188.209" stroke="#474A54" stroke-miterlimit="10"/><path d="M90.5316 227.399L85.7 227.936" stroke="#474A54" stroke-miterlimit="10"/><path d="M85.6999 227.936L82.4791 227.399" stroke="#474A54" stroke-miterlimit="10"/><path d="M82.4786 227.4V222.568" stroke="#474A54" stroke-miterlimit="10"/><path d="M85.6998 227.936V220.151" stroke="#474A54" stroke-miterlimit="10"/><path d="M82.4786 222.568L84.0894 220.958" stroke="#474A54" stroke-miterlimit="10"/><path d="M86.7736 247.263L157.638 234.379" stroke="#474A54" stroke-miterlimit="10"/><path d="M157.638 234.11V229.278" stroke="#474A54" stroke-miterlimit="10"/><path d="M150.659 231.157L92.6788 241.358" stroke="#474A54" stroke-miterlimit="10"/><path d="M92.6788 241.358V227.936" stroke="#474A54" stroke-miterlimit="10"/><path d="M92.6788 227.936L150.659 217.199" stroke="#474A54" stroke-miterlimit="10"/><path d="M150.659 217.199V230.621" stroke="#474A54" stroke-miterlimit="10"/><path d="M84.0893 220.957L87.8475 218.809" stroke="#474A54" stroke-miterlimit="10"/><path d="M87.8472 218.81L90.5313 219.884" stroke="#474A54" stroke-miterlimit="10"/><path d="M309.072 233.573L303.704 235.184V255.048L309.072 253.437V233.573Z" fill="#E96122"/><path d="M360.073 240.015L362.221 239.479V219.615L360.073 220.152V240.015Z" fill="#E96122"/><path d="M362.221 239.479L303.704 256.121V251.827L362.221 236.258V239.479Z" fill="#E96122"/><path d="M207.33 198.394L303.44 247.246V256.374L294.85 252.079L298.608 248.857L203.585 199.467L207.33 198.394Z" fill="#E96122"/><path d="M298.872 253.437L303.704 256.121V234.647L298.872 231.963V253.437Z" fill="#E96122"/><path d="M207.07 199.752L203.556 199.526V183.927L207.07 183.172V199.752Z" fill="#E96122"/><path d="M252.703 179.272L257.534 178.266V172.783L252.703 173.737V179.272Z" fill="#E96122"/><path d="M261.046 179.902L257.534 178.311V172.731L261.046 174.241V179.902Z" fill="#E96122"/><path d="M273.437 208.897L306.144 202.104L306.019 196.569L296.709 190.908L268.153 205.124L273.437 208.897Z" fill="#E96122"/><path d="M303.972 234.916L362.22 219.616" stroke="#474A54" stroke-miterlimit="10"/><path d="M203.58 183.914L257.586 172.794" stroke="#474A54" stroke-miterlimit="10"/><path d="M207.338 183.172L207.393 198.519" stroke="#474A54" stroke-miterlimit="10"/><path d="M207.338 198.409L299.14 245.116" stroke="#474A54" stroke-miterlimit="10"/><path d="M299.14 245.116V232.231" stroke="#474A54" stroke-miterlimit="10"/><path d="M303.972 234.916L299.141 232.232" stroke="#474A54" stroke-miterlimit="10"/><path d="M303.704 234.647V256.121" stroke="#474A54" stroke-miterlimit="10"/><path d="M309.341 233.574V250.484" stroke="#474A54" stroke-miterlimit="10"/><path d="M309.341 250.484L359.804 237.063" stroke="#474A54" stroke-miterlimit="10"/><path d="M359.805 237.062V219.883" stroke="#474A54" stroke-miterlimit="10"/><path d="M362.489 239.211L303.435 255.853" stroke="#474A54" stroke-miterlimit="10"/><path d="M362.489 239.21V219.347" stroke="#474A54" stroke-miterlimit="10"/><path d="M362.489 219.346L358.731 217.199" stroke="#474A54" stroke-miterlimit="10"/><path d="M358.731 217.737V220.421" stroke="#474A54" stroke-miterlimit="10"/><path d="M362.489 233.304H372.689" stroke="#474A54" stroke-miterlimit="10"/><path d="M362.489 227.4L372.689 233.305" stroke="#474A54" stroke-miterlimit="10"/><path d="M303.972 256.39L294.846 251.559" stroke="#474A54" stroke-miterlimit="10"/><path d="M298.603 248.874L285.719 258" stroke="#474A54" stroke-miterlimit="10"/><path d="M298.603 248.874L203.581 199.483" stroke="#474A54" stroke-miterlimit="10"/><path d="M203.58 199.483L192.307 205.388" stroke="#474A54" stroke-miterlimit="10"/><path d="M192.307 205.388L285.182 258" stroke="#474A54" stroke-miterlimit="10"/><path d="M298.872 235.184L263.439 216.931" stroke="#474A54" stroke-miterlimit="10"/><path d="M240.478 205.626L207.338 188.745" stroke="#474A54" stroke-miterlimit="10"/><path d="M207.338 188.746L257.586 178.328" stroke="#474A54" stroke-miterlimit="10"/><path d="M257.534 172.857V178.278" stroke="#474A54" stroke-miterlimit="10"/><path d="M203.58 183.915V199.484" stroke="#474A54" stroke-miterlimit="10"/><path d="M221.986 196.192L271.802 184.87" stroke="#474A54" stroke-miterlimit="10"/><path d="M257.586 178.329L289.161 192.922" stroke="#474A54" stroke-miterlimit="10"/><path d="M261.024 174.251L261.109 180.027" stroke="#474A54" stroke-miterlimit="10"/><path d="M261.024 174.25L257.586 172.793" stroke="#474A54" stroke-miterlimit="10"/><path d="M296.71 190.908L240.478 205.626" stroke="#474A54" stroke-miterlimit="10"/><path d="M299.603 193.173L246.139 206.256" stroke="#474A54" stroke-miterlimit="10"/><path d="M303.377 194.934L299.477 195.059" stroke="#474A54" stroke-miterlimit="10"/><path d="M299.477 195.06L248.277 208.017" stroke="#474A54" stroke-miterlimit="10"/><path d="M248.277 208.017L246.139 208.142" stroke="#474A54" stroke-miterlimit="10"/><path d="M246.139 208.143V206.256" stroke="#474A54" stroke-miterlimit="10"/><path d="M246.139 206.255L242.742 206.633" stroke="#474A54" stroke-miterlimit="10"/><path d="M242.742 206.634L240.478 205.627" stroke="#474A54" stroke-miterlimit="10"/><path d="M248.277 208.017V212.671" stroke="#474A54" stroke-miterlimit="10"/><path d="M248.277 212.672L261.109 217.704" stroke="#474A54" stroke-miterlimit="10"/><path d="M261.109 217.703L273.563 213.803" stroke="#474A54" stroke-miterlimit="10"/><path d="M273.563 213.803V209.778" stroke="#474A54" stroke-miterlimit="10"/><path d="M273.563 209.778L265.763 205.626" stroke="#474A54" stroke-miterlimit="10"/><path d="M306.019 196.57H302.496" stroke="#474A54" stroke-miterlimit="10"/><path d="M302.496 196.569L252.68 208.897" stroke="#474A54" stroke-miterlimit="10"/><path d="M252.68 208.897L261.108 213.552" stroke="#474A54" stroke-miterlimit="10"/><path d="M261.109 213.489V217.703" stroke="#474A54" stroke-miterlimit="10"/><path d="M252.68 208.898V214.432" stroke="#474A54" stroke-miterlimit="10"/><path d="M273.563 209.778L261.108 213.552" stroke="#474A54" stroke-miterlimit="10"/><path d="M303.377 194.934V196.57" stroke="#474A54" stroke-miterlimit="10"/><path d="M306.019 196.569V202.104" stroke="#474A54" stroke-miterlimit="10"/><path d="M306.144 202.104L272.43 209.149" stroke="#474A54" stroke-miterlimit="10"/><path d="M306.144 202.104L309.793 204.998" stroke="#474A54" stroke-miterlimit="10"/><path d="M309.792 204.998L313.692 203.614" stroke="#474A54" stroke-miterlimit="10"/><path d="M296.709 190.908V193.173" stroke="#474A54" stroke-miterlimit="10"/><path d="M296.709 193.173H299.603" stroke="#474A54" stroke-miterlimit="10"/><path d="M299.603 193.173V195.06" stroke="#474A54" stroke-miterlimit="10"/><path d="M313.692 203.614L355.583 221.351" stroke="#474A54" stroke-miterlimit="10"/><path d="M348.538 223.239L337.342 216.446" stroke="#474A54" stroke-miterlimit="10"/><path d="M337.342 216.445L312.182 222.861" stroke="#474A54" stroke-miterlimit="10"/><path d="M312.182 222.861L324.762 229.403" stroke="#474A54" stroke-miterlimit="10"/><path d="M327.656 228.647L317.844 223.615" stroke="#474A54" stroke-miterlimit="10"/><path d="M317.844 223.616L335.707 219.339" stroke="#474A54" stroke-miterlimit="10"/><path d="M335.707 219.339L346.274 223.868" stroke="#474A54" stroke-miterlimit="10"/><path d="M533.655 130.369L381.257 108.401L381.204 99.8252H388.879L388.985 103.319L528.626 120.153V117.188L537.943 117.294V120.364L563.246 111.047L563.351 108.824L568.433 107.448L567.904 117.823L533.655 130.369Z" fill="#E96122"/><path d="M555.517 193.943H560.492L568.433 122.376L563.457 123.964L555.517 193.943Z" fill="#E96122"/><path d="M525.376 138.997L519.733 221.046L523.968 223.375L529.156 223.269L535.719 138.468" fill="#E96122"/><path d="M340.952 120.957L349.242 189.349L343.885 190.343L334.886 122.27" fill="#E96122"/><path d="M440.331 196.908L448.272 199.766V201.672L479.503 214.165L479.55 213.117L523.121 231.103L557.317 199.237L557.422 206.499L523.121 239.149L440.543 205.059L440.331 196.908Z" fill="#E96122"/><path d="M403.701 183.568L412.912 186.532L413.229 194.896L403.701 191.72V183.568Z" fill="#E96122"/><path d="M557.317 199.237L523.121 230.998V239.149L557.422 206.648L557.317 199.237Z" stroke="#474A54" stroke-miterlimit="10"/><path d="M401.16 104.801L437.314 96.3842" stroke="#474A54" stroke-miterlimit="10"/><path d="M528.679 120.205L389.039 103.372" stroke="#474A54" stroke-miterlimit="10"/><path d="M389.038 103.372V99.8786" stroke="#474A54" stroke-miterlimit="10"/><path d="M389.038 99.8789H381.204" stroke="#474A54" stroke-miterlimit="10"/><path d="M381.204 99.879L381.309 108.455" stroke="#474A54" stroke-miterlimit="10"/><path d="M381.31 108.454L533.655 130.369" stroke="#474A54" stroke-miterlimit="10"/><path d="M533.655 130.369V117.135" stroke="#474A54" stroke-miterlimit="10"/><path d="M528.732 117.241L538.102 117.136" stroke="#474A54" stroke-miterlimit="10"/><path d="M528.679 117.294V120.206" stroke="#474A54" stroke-miterlimit="10"/><path d="M538.101 117.135V120.312" stroke="#474A54" stroke-miterlimit="10"/><path d="M538.101 120.312L563.192 110.995" stroke="#474A54" stroke-miterlimit="10"/><path d="M563.192 110.995L563.298 108.772" stroke="#474A54" stroke-miterlimit="10"/><path d="M563.298 108.772L568.38 107.396" stroke="#474A54" stroke-miterlimit="10"/><path d="M568.38 107.395L567.85 117.77" stroke="#474A54" stroke-miterlimit="10"/><path d="M567.851 117.77L533.655 130.369" stroke="#474A54" stroke-miterlimit="10"/><path d="M563.404 123.91L568.38 122.322" stroke="#474A54" stroke-miterlimit="10"/><path d="M563.404 123.91L554.193 122.852" stroke="#474A54" stroke-miterlimit="10"/><path d="M563.298 108.772L424.822 95.115" stroke="#474A54" stroke-miterlimit="10"/><path d="M418.258 106.866L454.571 98.0791" stroke="#474A54" stroke-miterlimit="10"/><path d="M478.074 100.408L445.254 110.042" stroke="#474A54" stroke-miterlimit="10"/><path d="M469.71 113.113L502.211 102.738" stroke="#474A54" stroke-miterlimit="10"/><path d="M497.236 116.5L531.431 105.701" stroke="#474A54" stroke-miterlimit="10"/><path d="M424.822 95.1143L389.356 102.737" stroke="#474A54" stroke-miterlimit="10"/><path d="M410.741 130.369L439.22 136.403" stroke="#474A54" stroke-miterlimit="10"/><path d="M377.181 127.405L401.319 133.122" stroke="#474A54" stroke-miterlimit="10"/><path d="M395.284 131.746L394.649 110.254" stroke="#474A54" stroke-miterlimit="10"/><path d="M419.211 132.168L418.893 113.853" stroke="#474A54" stroke-miterlimit="10"/><path d="M427.892 133.969L427.68 115.124" stroke="#474A54" stroke-miterlimit="10"/><path d="M448.431 133.016L481.568 140.109" stroke="#474A54" stroke-miterlimit="10"/><path d="M454.571 122.217L466.746 124.122" stroke="#474A54" stroke-miterlimit="10"/><path d="M466.746 124.122V136.932" stroke="#474A54" stroke-miterlimit="10"/><path d="M454.571 122.217L454.676 134.392" stroke="#474A54" stroke-miterlimit="10"/><path d="M491.307 136.509L525.079 142.967" stroke="#474A54" stroke-miterlimit="10"/><path d="M525.397 139.05L535.772 138.52" stroke="#474A54" stroke-miterlimit="10"/><path d="M525.397 139.05L519.786 221.099" stroke="#474A54" stroke-miterlimit="10"/><path d="M529.208 223.322L535.772 138.521" stroke="#474A54" stroke-miterlimit="10"/><path d="M535.455 142.12L562.875 128.781" stroke="#474A54" stroke-miterlimit="10"/><path d="M506.023 131.746L519.681 133.863" stroke="#474A54" stroke-miterlimit="10"/><path d="M519.68 133.862V141.908" stroke="#474A54" stroke-miterlimit="10"/><path d="M506.023 131.745V139.368" stroke="#474A54" stroke-miterlimit="10"/><path d="M491.307 136.51L489.084 208.395" stroke="#474A54" stroke-miterlimit="10"/><path d="M489.084 208.394L519.892 219.193" stroke="#474A54" stroke-miterlimit="10"/><path d="M555.464 193.89L529.632 218.558" stroke="#474A54" stroke-miterlimit="10"/><path d="M563.404 123.911L555.463 193.891" stroke="#474A54" stroke-miterlimit="10"/><path d="M555.464 193.891H560.44" stroke="#474A54" stroke-miterlimit="10"/><path d="M568.38 122.323L560.44 193.891" stroke="#474A54" stroke-miterlimit="10"/><path d="M557.369 199.289L550.911 198.231" stroke="#474A54" stroke-miterlimit="10"/><path d="M481.568 140.108L479.556 214.217" stroke="#474A54" stroke-miterlimit="10"/><path d="M479.556 214.217L448.325 201.724" stroke="#474A54" stroke-miterlimit="10"/><path d="M448.324 201.724L448.43 133.015" stroke="#474A54" stroke-miterlimit="10"/><path d="M523.174 231.05L479.556 213.157" stroke="#474A54" stroke-miterlimit="10"/><path d="M523.174 239.202L440.596 205.112" stroke="#474A54" stroke-miterlimit="10"/><path d="M448.325 199.819L440.384 196.961" stroke="#474A54" stroke-miterlimit="10"/><path d="M490.037 178.963L480.615 175.787" stroke="#474A54" stroke-miterlimit="10"/><path d="M448.431 166.682L439.22 164.246" stroke="#474A54" stroke-miterlimit="10"/><path d="M438.902 136.297L440.596 208.711" stroke="#474A54" stroke-miterlimit="10"/><path d="M410.741 130.369L413.282 197.067" stroke="#474A54" stroke-miterlimit="10"/><path d="M413.282 197.066L440.596 208.711" stroke="#474A54" stroke-miterlimit="10"/><path d="M417.729 143.179L418.258 171.129" stroke="#474A54" stroke-miterlimit="10"/><path d="M418.258 171.129L431.386 175.681" stroke="#474A54" stroke-miterlimit="10"/><path d="M431.386 175.681L431.491 147.096" stroke="#474A54" stroke-miterlimit="10"/><path d="M431.492 147.096L417.729 143.179" stroke="#474A54" stroke-miterlimit="10"/><path d="M427.786 146.038V160.436" stroke="#474A54" stroke-miterlimit="10"/><path d="M427.786 160.436L431.385 161.388" stroke="#474A54" stroke-miterlimit="10"/><path d="M427.786 160.436L419.105 165.941" stroke="#474A54" stroke-miterlimit="10"/><path d="M401.319 133.121L403.754 199.819" stroke="#474A54" stroke-miterlimit="10"/><path d="M403.754 199.819L382.58 192.408" stroke="#474A54" stroke-miterlimit="10"/><path d="M382.58 192.408L377.181 127.405" stroke="#474A54" stroke-miterlimit="10"/><path d="M366.17 129.522L373.264 192.197" stroke="#474A54" stroke-miterlimit="10"/><path d="M373.264 192.197L353.678 185.421" stroke="#474A54" stroke-miterlimit="10"/><path d="M353.678 185.421L346.479 122.006" stroke="#474A54" stroke-miterlimit="10"/><path d="M346.479 122.005L366.17 129.522" stroke="#474A54" stroke-miterlimit="10"/><path d="M412.964 186.585L403.118 182.986" stroke="#474A54" stroke-miterlimit="10"/><path d="M413.282 194.948L403.754 191.772" stroke="#474A54" stroke-miterlimit="10"/><path d="M412.223 168.376L402.484 173.352" stroke="#474A54" stroke-miterlimit="10"/><path d="M412.011 164.459L402.589 168.165" stroke="#474A54" stroke-miterlimit="10"/><path d="M386.391 115.865L386.497 129.628" stroke="#474A54" stroke-miterlimit="10"/><path d="M386.391 115.865L358.654 121.052" stroke="#474A54" stroke-miterlimit="10"/><path d="M358.654 121.053V126.663" stroke="#474A54" stroke-miterlimit="10"/><path d="M381.204 175.787L371.782 179.068" stroke="#474A54" stroke-miterlimit="10"/><path d="M340.974 120.947L349.232 189.338" stroke="#474A54" stroke-miterlimit="10"/><path d="M349.231 189.338L343.938 190.396" stroke="#474A54" stroke-miterlimit="10"/><path d="M343.938 190.396L334.939 122.322" stroke="#474A54" stroke-miterlimit="10"/><path d="M334.939 122.323L340.974 120.947" stroke="#474A54" stroke-miterlimit="10"/><path d="M519.68 220.993L523.915 223.322" stroke="#474A54" stroke-miterlimit="10"/><path d="M523.915 223.322H529.208" stroke="#474A54" stroke-miterlimit="10"/><path d="M190.214 78.3976L60.2004 98.8101L59.8325 50.4454L187.272 6.12676V4.47205L190.582 3.00025L194.627 4.47205L194.812 6.12676L308.275 37.9407L308.493 92.7413L190.214 78.3976Z" fill="#E96122"/><path d="M187.364 4.56403V6.21875" stroke="#474A54" stroke-miterlimit="10"/><path d="M187.364 6.21897L59.9243 50.5376" stroke="#474A54" stroke-miterlimit="10"/><path d="M59.9245 50.5371L59.9585 148.013" stroke="#474A54" stroke-miterlimit="10"/><path d="M60.1083 98.9019L190.284 78.4433" stroke="#474A54" stroke-miterlimit="10"/><path d="M190.214 78.398L308.493 92.7417" stroke="#474A54" stroke-miterlimit="10"/><path d="M308.493 92.7417L308.275 37.9411" stroke="#474A54" stroke-miterlimit="10"/><path d="M308.275 37.941L194.811 6.12709" stroke="#474A54" stroke-miterlimit="10"/><path d="M194.811 6.12695L194.628 4.47224" stroke="#474A54" stroke-miterlimit="10"/><path d="M194.628 4.47192L190.582 3.00083" stroke="#474A54" stroke-miterlimit="10"/><path d="M190.582 3.00083L187.272 4.47192" stroke="#474A54" stroke-miterlimit="10"/><path d="M187.076 74.7191L111.875 87.603" stroke="#474A54" stroke-miterlimit="10"/><path d="M111.875 87.604L111.995 36.7991" stroke="#474A54" stroke-miterlimit="10"/><path d="M187.134 11.6089L187.076 74.7192" stroke="#474A54" stroke-miterlimit="10"/><path d="M153.899 22.7447L153.726 80.4258" stroke="#474A54" stroke-miterlimit="10"/><path d="M138.379 28.0044L138.207 83.1851" stroke="#474A54" stroke-miterlimit="10"/><path d="M125.115 32.2396V85.3855" stroke="#474A54" stroke-miterlimit="10"/><path d="M107.34 38.3508L107.232 88.3511" stroke="#474A54" stroke-miterlimit="10"/><path d="M107.232 88.3513L87.9457 91.8337" stroke="#474A54" stroke-miterlimit="10"/><path d="M87.9456 91.8337L88.7162 44.473" stroke="#474A54" stroke-miterlimit="10"/><path d="M88.704 44.4729L107.34 38.2652" stroke="#474A54" stroke-miterlimit="10"/><path d="M98.2004 41.4546L97.8558 90.083" stroke="#474A54" stroke-miterlimit="10"/><path d="M84.6698 45.7905L84.6357 92.3735" stroke="#474A54" stroke-miterlimit="10"/><path d="M84.6355 92.3737L62.5911 96.0518" stroke="#474A54" stroke-miterlimit="10"/><path d="M62.5908 98.4419L62.6022 53.1116" stroke="#474A54" stroke-miterlimit="10"/><path d="M62.6024 53.1113L84.6696 45.7899" stroke="#474A54" stroke-miterlimit="10"/><path d="M193.8 10.9997V75.1792" stroke="#474A54" stroke-miterlimit="10"/><path d="M234.428 21.9694V80.0815" stroke="#474A54" stroke-miterlimit="10"/><path d="M240.636 23.5213V81.1167" stroke="#474A54" stroke-miterlimit="10"/><path d="M273.795 32.286L273.745 85.2546" stroke="#474A54" stroke-miterlimit="10"/><path d="M285.196 44.4462V68.8926" stroke="#474A54" stroke-miterlimit="10"/><path d="M285.196 68.8923L301.206 71.8572" stroke="#474A54" stroke-miterlimit="10"/><path d="M301.206 71.8582L301.195 48.6418" stroke="#474A54" stroke-miterlimit="10"/><path d="M301.195 48.6409L285.196 44.4459" stroke="#474A54" stroke-miterlimit="10"/><path d="M287.541 47.5836V66.157" stroke="#474A54" stroke-miterlimit="10"/><path d="M287.541 66.1571L298.781 68.3755" stroke="#474A54" stroke-miterlimit="10"/><path d="M298.781 68.3755L298.62 50.3196" stroke="#474A54" stroke-miterlimit="10"/><path d="M247.865 34.5383L248.049 62.1226" stroke="#474A54" stroke-miterlimit="10"/><path d="M248.049 62.1228L267.346 65.7661" stroke="#474A54" stroke-miterlimit="10"/><path d="M267.347 65.7661L267.358 39.6756" stroke="#474A54" stroke-miterlimit="10"/><path d="M267.358 39.676L247.865 34.5382" stroke="#474A54" stroke-miterlimit="10"/><path d="M250.256 38.5839V59.387" stroke="#474A54" stroke-miterlimit="10"/><path d="M250.256 59.3876L264.968 62.3071" stroke="#474A54" stroke-miterlimit="10"/><path d="M264.968 62.3062V42.2617" stroke="#474A54" stroke-miterlimit="10"/><path d="M264.968 42.2627L250.256 38.5846" stroke="#474A54" stroke-miterlimit="10"/><path d="M203.501 22.6765L203.547 53.8467" stroke="#474A54" stroke-miterlimit="10"/><path d="M203.547 53.8477L226.718 58.0774" stroke="#474A54" stroke-miterlimit="10"/><path d="M226.717 58.0774L226.901 28.9759" stroke="#474A54" stroke-miterlimit="10"/><path d="M226.901 28.9762L203.501 22.6771" stroke="#474A54" stroke-miterlimit="10"/><path d="M205.937 27.2512V51.4565" stroke="#474A54" stroke-miterlimit="10"/><path d="M205.937 51.4572L223.775 54.5837" stroke="#474A54" stroke-miterlimit="10"/><path d="M223.775 54.5828L223.924 31.952" stroke="#474A54" stroke-miterlimit="10"/><path d="M223.925 31.9526L205.937 27.2515" stroke="#474A54" stroke-miterlimit="10"/><path d="M187.364 6.21897L59.9243 50.5376" stroke="#474A54" stroke-miterlimit="10"/><path d="M308.493 92.7417L308.275 37.9411" stroke="#474A54" stroke-miterlimit="10"/><path d="M187.076 74.7191L111.875 87.603" stroke="#474A54" stroke-miterlimit="10"/><path d="M111.996 36.7123L187.134 11.6087" stroke="#474A54" stroke-miterlimit="10"/><path d="M187.134 11.6089L187.076 74.7192" stroke="#474A54" stroke-miterlimit="10"/><path d="M171.315 16.968V77.4949" stroke="#474A54" stroke-miterlimit="10"/><path d="M107.232 88.3513L87.9457 91.8337" stroke="#474A54" stroke-miterlimit="10"/><path d="M84.6355 92.3737L62.5911 96.0518" stroke="#474A54" stroke-miterlimit="10"/><path d="M193.772 11.0335L306.308 41.0574" stroke="#474A54" stroke-miterlimit="10"/><path d="M306.508 89.3071L193.8 75.1796" stroke="#474A54" stroke-miterlimit="10"/><path d="M193.8 10.9997V75.1792" stroke="#474A54" stroke-miterlimit="10"/><path d="M278.918 34.3848L279.15 85.8108" stroke="#474A54" stroke-miterlimit="10"/><path d="M306.336 41.1104L306.508 89.3936" stroke="#474A54" stroke-miterlimit="10"/><path d="M285.196 44.4462V68.8926" stroke="#474A54" stroke-miterlimit="10"/><path d="M285.196 68.8923L301.206 71.8572" stroke="#474A54" stroke-miterlimit="10"/><path d="M301.206 71.8582L301.195 48.6418" stroke="#474A54" stroke-miterlimit="10"/><path d="M301.195 48.6409L285.196 44.4459" stroke="#474A54" stroke-miterlimit="10"/><path d="M298.576 50.3359L287.541 47.5845" stroke="#474A54" stroke-miterlimit="10"/><path d="M247.865 34.5383L248.049 62.1226" stroke="#474A54" stroke-miterlimit="10"/><path d="M248.049 62.1228L267.346 65.7661" stroke="#474A54" stroke-miterlimit="10"/><path d="M267.347 65.7661L267.358 39.6756" stroke="#474A54" stroke-miterlimit="10"/><path d="M267.358 39.676L247.865 34.5382" stroke="#474A54" stroke-miterlimit="10"/><path d="M203.501 22.6765L203.547 53.8467" stroke="#474A54" stroke-miterlimit="10"/><path d="M203.547 53.8477L226.718 58.0774" stroke="#474A54" stroke-miterlimit="10"/><path d="M226.717 58.0774L226.901 28.9759" stroke="#474A54" stroke-miterlimit="10"/><path d="M226.901 28.9762L203.501 22.6771" stroke="#474A54" stroke-miterlimit="10"/><path d="M205.937 27.2512V51.4565" stroke="#474A54" stroke-miterlimit="10"/><path d="M205.937 51.4572L223.775 54.5837" stroke="#474A54" stroke-miterlimit="10"/><path d="M223.775 54.5828L223.924 31.952" stroke="#474A54" stroke-miterlimit="10"/><path d="M223.925 31.9526L205.937 27.2515" stroke="#474A54" stroke-miterlimit="10"/><path d="M240.636 90.687L273.633 93.615" stroke="#474A54" stroke-miterlimit="10"/><path d="M234.428 90.255L234.464 150.301" stroke="#474A54" stroke-miterlimit="10"/><path d="M240.464 90.6L240.533 150.093" stroke="#474A54" stroke-miterlimit="10"/><path d="M273.633 93.7066L273.573 149.057" stroke="#474A54" stroke-miterlimit="10"/><path d="M279.263 94.2217V148.885" stroke="#474A54" stroke-miterlimit="10"/><path d="M306.409 96.7436L306.413 148.151" stroke="#474A54" stroke-miterlimit="10"/><path d="M285.196 129.852L301.206 129.973" stroke="#474A54" stroke-miterlimit="10"/><path d="M301.206 129.972L301.195 105.102" stroke="#474A54" stroke-miterlimit="10"/><path d="M301.195 105.103L285.196 103.884" stroke="#474A54" stroke-miterlimit="10"/><path d="M286.851 107.135V126.943" stroke="#474A54" stroke-miterlimit="10"/><path d="M286.851 126.944L299.908 127.126" stroke="#474A54" stroke-miterlimit="10"/><path d="M299.956 107.93L286.851 107.135" stroke="#474A54" stroke-miterlimit="10"/><path d="M248.038 101.166L248.049 129.615" stroke="#474A54" stroke-miterlimit="10"/><path d="M248.049 129.615L267.346 129.537" stroke="#474A54" stroke-miterlimit="10"/><path d="M267.347 129.537L267.358 102.725" stroke="#474A54" stroke-miterlimit="10"/><path d="M267.358 102.724L248.038 101.165" stroke="#474A54" stroke-miterlimit="10"/><path d="M250.256 104.518V126.607" stroke="#474A54" stroke-miterlimit="10"/><path d="M250.256 126.607L264.968 126.76" stroke="#474A54" stroke-miterlimit="10"/><path d="M264.968 126.76V106.313" stroke="#474A54" stroke-miterlimit="10"/><path d="M203.561 98.1877L203.547 129.19" stroke="#474A54" stroke-miterlimit="10"/><path d="M203.547 129.19L226.718 129.509" stroke="#474A54" stroke-miterlimit="10"/><path d="M226.717 129.509L226.901 99.7773" stroke="#474A54" stroke-miterlimit="10"/><path d="M205.937 101.41V126.149" stroke="#474A54" stroke-miterlimit="10"/><path d="M205.937 126.148L223.775 126.302" stroke="#474A54" stroke-miterlimit="10"/><path d="M223.775 126.302L223.752 102.694" stroke="#474A54" stroke-miterlimit="10"/><path d="M223.752 102.694L205.937 101.41" stroke="#474A54" stroke-miterlimit="10"/><path d="M234.464 150.392L193.8 151.771" stroke="#474A54" stroke-miterlimit="10"/><path d="M285.196 104.067V130.035" stroke="#474A54" stroke-miterlimit="10"/><path d="M285.196 129.852L301.206 129.973" stroke="#474A54" stroke-miterlimit="10"/><path d="M301.206 129.972L301.195 105.102" stroke="#474A54" stroke-miterlimit="10"/><path d="M301.195 105.103L285.196 103.884" stroke="#474A54" stroke-miterlimit="10"/><path d="M299.908 127.126L299.919 107.975" stroke="#474A54" stroke-miterlimit="10"/><path d="M248.049 129.615L267.346 129.537" stroke="#474A54" stroke-miterlimit="10"/><path d="M267.347 129.537L267.358 102.725" stroke="#474A54" stroke-miterlimit="10"/><path d="M250.256 104.518V126.607" stroke="#474A54" stroke-miterlimit="10"/><path d="M264.968 126.76V105.626" stroke="#474A54" stroke-miterlimit="10"/><path d="M264.968 105.534L250.256 104.518" stroke="#474A54" stroke-miterlimit="10"/><path d="M203.547 129.19L226.718 129.509" stroke="#474A54" stroke-miterlimit="10"/><path d="M226.717 129.509L226.901 99.7773" stroke="#474A54" stroke-miterlimit="10"/><path d="M226.901 99.7771L203.561 98.2734" stroke="#474A54" stroke-miterlimit="10"/><path d="M205.937 101.41V126.149" stroke="#474A54" stroke-miterlimit="10"/><path d="M205.937 126.148L223.775 126.302" stroke="#474A54" stroke-miterlimit="10"/><path d="M223.775 126.302L223.752 102.694" stroke="#474A54" stroke-miterlimit="10"/><path d="M193.732 86.2028L234.428 90.1687" stroke="#474A54" stroke-miterlimit="10"/><path d="M279.311 94.12L306.409 96.7432" stroke="#474A54" stroke-miterlimit="10"/><path d="M193.8 86.2132V151.68" stroke="#474A54" stroke-miterlimit="10"/><path d="M240.532 150.001L273.572 149.144" stroke="#474A54" stroke-miterlimit="10"/><path d="M279.495 148.737L306.412 148.151" stroke="#474A54" stroke-miterlimit="10"/><path d="M190.284 78.5297V156.645" stroke="#474A54" stroke-miterlimit="10"/><path d="M193.065 155.542L308.263 150.393" stroke="#474A54" stroke-miterlimit="10"/><path d="M308.401 92.6495L308.263 150.392" stroke="#474A54" stroke-miterlimit="10"/><path d="M238.119 84.1899L238.222 153.541" stroke="#474A54" stroke-miterlimit="10"/><path d="M277.105 88.9712L276.849 151.816" stroke="#474A54" stroke-miterlimit="10"/><path d="M59.9588 148.013L186.444 155.357" stroke="#474A54" stroke-miterlimit="10"/><path d="M189.938 156.645L186.445 156.462" stroke="#474A54" stroke-miterlimit="10"/><path d="M186.444 156.461V155.358" stroke="#474A54" stroke-miterlimit="10"/><path d="M189.938 156.645L193.065 156.462" stroke="#474A54" stroke-miterlimit="10"/><path d="M193.065 156.461V155.541" stroke="#474A54" stroke-miterlimit="10"/><path d="M187.18 85.661L187.007 151.816" stroke="#474A54" stroke-miterlimit="10"/><path d="M186.444 151.679L111.875 148.323" stroke="#474A54" stroke-miterlimit="10"/><path d="M111.875 148.324L111.966 95.9825" stroke="#474A54" stroke-miterlimit="10"/><path d="M111.967 95.9827L187.18 85.6616" stroke="#474A54" stroke-miterlimit="10"/><path d="M171.315 88.0132V150.954" stroke="#474A54" stroke-miterlimit="10"/><path d="M153.726 90.1687L153.898 150.092" stroke="#474A54" stroke-miterlimit="10"/><path d="M138.379 92.4109V149.575" stroke="#474A54" stroke-miterlimit="10"/><path d="M125.101 94.2217L124.929 148.885" stroke="#474A54" stroke-miterlimit="10"/><path d="M110.036 91.017L110.271 150.954" stroke="#474A54" stroke-miterlimit="10"/><path d="M86.5486 94.8561L86.8195 149.574" stroke="#474A54" stroke-miterlimit="10"/><path d="M87.8651 99.2926L87.9573 147.06" stroke="#474A54" stroke-miterlimit="10"/><path d="M87.9573 147.059L107.198 147.99" stroke="#474A54" stroke-miterlimit="10"/><path d="M107.198 147.99L107.301 96.5572" stroke="#474A54" stroke-miterlimit="10"/><path d="M107.301 96.5573L87.8654 99.2925" stroke="#474A54" stroke-miterlimit="10"/><path d="M62.5052 98.5324L62.4874 145.979" stroke="#474A54" stroke-miterlimit="10"/><path d="M62.3152 145.979L84.6475 147.048" stroke="#474A54" stroke-miterlimit="10"/><path d="M84.6471 147.048L84.6932 99.6715" stroke="#474A54" stroke-miterlimit="10"/><path d="M84.693 99.6717L62.5054 102.757" stroke="#474A54" stroke-miterlimit="10"/><path d="M167.054 227.364H209.011" stroke="#474A54" stroke-miterlimit="10"/><path d="M209.012 227.314L191.078 217.552" stroke="#474A54" stroke-miterlimit="10"/><path d="M191.078 236.839L209.012 227.076" stroke="#474A54" stroke-miterlimit="10"/><path d="M374.137 227.364H416.095" stroke="#474A54" stroke-miterlimit="10"/><path d="M416.095 227.314L398.161 217.552" stroke="#474A54" stroke-miterlimit="10"/><path d="M398.162 236.839L416.096 227.076" stroke="#474A54" stroke-miterlimit="10"/><path d="M367.796 93.3696H325.839" stroke="#474A54" stroke-miterlimit="10"/><path d="M325.838 93.3188L343.772 83.5564" stroke="#474A54" stroke-miterlimit="10"/><path d="M343.772 102.844L325.838 93.0811" stroke="#474A54" stroke-miterlimit="10"/><path d="M42.7568 93.3696H1.12585" stroke="#474A54" stroke-miterlimit="10"/><path d="M1.00024 93.3188L18.9341 83.5564" stroke="#474A54" stroke-miterlimit="10"/><path d="M18.9339 102.844L1 93.0811" stroke="#474A54" stroke-miterlimit="10"/></svg>