<?xml version="1.0" encoding="utf-8"?><svg width="24" height="24" fill="none" xmlns="http://www.w3.org/2000/svg" viewBox="0 0 24 24"><g clip-path="url(#la)"><path d="M17.871 16.666v4.667h-1.957v-4.666c0-4.155 2.588-7.733 6.31-9.349l.81 1.699a8.703 8.703 0 0 0-3.761 3.1 8.122 8.122 0 0 0-1.402 4.55Zm-9.785 0v4.667H6.129v-4.666a8.122 8.122 0 0 0-1.402-4.549 8.703 8.703 0 0 0-3.76-3.1l.81-1.7a10.636 10.636 0 0 1 4.595 3.79 9.927 9.927 0 0 1 1.714 5.558ZM12 12a5.016 5.016 0 0 1-3.46-1.367 4.56 4.56 0 0 1-1.433-3.3 4.56 4.56 0 0 1 1.433-3.3A5.016 5.016 0 0 1 12 2.666c1.298 0 2.542.492 3.46 1.367a4.56 4.56 0 0 1 1.433 3.3 4.56 4.56 0 0 1-1.433 3.3A5.016 5.016 0 0 1 12 12Zm0-1.867c.386 0 .767-.072 1.123-.213.357-.14.68-.347.953-.607.272-.26.489-.569.636-.908a2.687 2.687 0 0 0 0-2.143 2.795 2.795 0 0 0-.636-.909 2.95 2.95 0 0 0-.953-.607A3.06 3.06 0 0 0 12 4.533a3.01 3.01 0 0 0-2.076.82 2.736 2.736 0 0 0-.86 1.98c0 .743.31 1.455.86 1.98a3.01 3.01 0 0 0 2.076.82Z" fill="#fff"/></g><defs><clipPath id="la"><path fill="#fff" d="M0 0h24v24H0z"/></clipPath></defs></svg>