<?xml version="1.0" encoding="utf-8"?><svg width="16" height="16" fill="none" xmlns="http://www.w3.org/2000/svg" viewBox="0 0 16 16"><g clip-path="url(#sa)"><path d="M8.003.665C3.961.665.665 3.96.665 8.003s3.296 7.332 7.338 7.332c4.043 0 7.332-3.29 7.332-7.332a.666.666 0 1 0-1.333 0 5.988 5.988 0 0 1-5.999 5.999 5.993 5.993 0 0 1-6.005-5.999 5.999 5.999 0 0 1 6.005-6.005.667.667 0 0 0 0-1.333Zm2.53.5a.666.666 0 0 0-.247 1.285c.008.004.013.009.02.011a.667.667 0 1 0 .516-1.23l-.028-.014a.664.664 0 0 0-.26-.051Zm2.17 1.444a.667.667 0 0 0-.467 1.142l.014.014a.667.667 0 1 0 .945-.94l-.02-.02a.668.668 0 0 0-.472-.196Zm-4.7.724a.666.666 0 0 0-.67.669v4.001a.667.667 0 0 0 .37.595l2.666 1.333a.667.667 0 1 0 .597-1.195L8.668 7.59V4.002a.667.667 0 0 0-.665-.67Zm6.157 1.433a.667.667 0 0 0-.621.928c.003.009.007.013.01.02a.667.667 0 1 0 1.236-.507l-.01-.024a.668.668 0 0 0-.615-.417Z" fill="#F7620F"/></g><defs><clipPath id="sa"><path fill="#fff" d="M0 0h16v16H0z"/></clipPath></defs></svg>