<?xml version="1.0" encoding="utf-8"?><svg width="28" height="28" fill="none" xmlns="http://www.w3.org/2000/svg" viewBox="0 0 28 28"><g clip-path="url(#ta)"><path d="M27.75 20.261c-.075-.126-.54-1.137-2.78-3.216-2.346-2.178-2.03-1.824.794-5.589 1.72-2.292 2.408-3.692 2.193-4.29-.205-.571-1.47-.42-1.47-.42l-4.207.024s-.312-.042-.545.096c-.226.136-.37.451-.37.451s-.668 1.775-1.557 3.284c-1.874 3.183-2.625 3.351-2.931 3.153-.712-.46-.534-1.851-.534-2.838 0-3.086.467-4.372-.912-4.705-.458-.11-.794-.183-1.965-.196-1.502-.015-2.774.006-3.493.357-.48.235-.85.758-.623.788.278.037.908.17 1.242.625.432.586.417 1.906.417 1.906s.248 3.631-.58 4.083c-.568.31-1.347-.322-3.019-3.212-.855-1.479-1.503-3.115-1.503-3.115s-.124-.305-.346-.467c-.27-.198-.648-.261-.648-.261l-4 .024s-.601.018-.822.279c-.196.232-.015.712-.015.712s3.132 7.328 6.678 11.022c3.254 3.387 6.946 3.165 6.946 3.165h1.674s.505-.056.763-.335c.238-.255.229-.735.229-.735s-.033-2.245 1.01-2.576c1.027-.325 2.347 2.17 3.745 3.131 1.057.726 1.86.567 1.86.567l3.74-.052s1.957-.121 1.03-1.66Z" fill="currentColor"/></g><defs><clipPath id="ta"><path fill="currentColor" d="M0 0h28v28H0z"/></clipPath></defs></svg>