<?xml version="1.0" encoding="utf-8"?><svg width="28" height="28" fill="none" xmlns="http://www.w3.org/2000/svg" viewBox="0 0 28 28"><path d="M26.57 7.44a3.288 3.288 0 0 0-2.313-2.314c-2.054-.563-10.271-.563-10.271-.563s-8.216 0-10.27.541A3.355 3.355 0 0 0 1.401 7.44c-.54 2.054-.54 6.314-.54 6.314s0 4.281.54 6.314a3.29 3.29 0 0 0 2.314 2.313c2.075.563 10.27.563 10.27.563s8.217 0 10.27-.541a3.289 3.289 0 0 0 2.315-2.314c.54-2.054.54-6.313.54-6.313s.022-4.282-.54-6.336Zm-15.2 10.248v-7.87l6.833 3.935-6.833 3.935Z" fill="currentColor"/></svg>