<svg width="573" height="260" viewBox="0 0 573 260" fill="none" xmlns="http://www.w3.org/2000/svg">
<path d="M564.523 82.7257C569.694 137.799 456.159 184.389 301.388 210.757C151.393 236.312 9.17405 220.756 0.831963 175.479C-11.7103 107.405 119.321 60.8916 274.723 38.5396C436.94 15.2065 560.27 37.4283 564.523 82.7257Z" fill="#FCF7F4"/>
<path d="M166.51 148.916L162.318 147.626L158.449 147.948V74.7536L166.51 73.786V148.916Z" fill="#EB5F21"/>
<mask id="mask0_2501_3398" style="mask-type:luminance" maskUnits="userSpaceOnUse" x="123" y="46" width="160" height="160">
<path d="M123.916 125.689C123.916 169.575 159.491 205.15 203.377 205.15C247.262 205.15 282.838 169.575 282.838 125.689C282.838 81.8036 247.262 46.2277 203.377 46.2277C159.491 46.2277 123.916 81.8036 123.916 125.689Z" fill="white"/>
</mask>
<g mask="url(#mask0_2501_3398)">
<mask id="mask1_2501_3398" style="mask-type:luminance" maskUnits="userSpaceOnUse" x="-23391" y="-22973" width="46624" height="46624">
<path d="M-23390.1 -22972.4H23232.6V23650.4H-23390.1V-22972.4Z" fill="url(#paint0_radial_2501_3398)"/>
</mask>
<g mask="url(#mask1_2501_3398)">
<path d="M123.918 125.699C123.918 169.585 159.494 205.16 203.379 205.16C247.264 205.16 282.841 169.585 282.841 125.699C282.841 81.8139 247.264 46.238 203.379 46.238C159.494 46.238 123.918 81.8139 123.918 125.699Z" fill="url(#paint1_radial_2501_3398)"/>
</g>
</g>
<path d="M198.755 232.106L206.493 237.588L208.267 22.9999L200.367 25.418L198.755 232.106Z" fill="#EB5F21"/>
<path d="M220.359 234.042L206.493 237.589L208.267 23.0006L222.293 25.9025L220.359 234.042Z" fill="#EB5F21"/>
<path d="M329.991 201.797L319.994 204.699L320.64 57.6639L323.864 43.7983L329.991 45.0882V201.797Z" fill="#EB5F21"/>
<path d="M322.574 57.6631L218.424 42.1855V27.9977L318.383 45.0874L323.864 43.7976L322.574 57.6631Z" fill="#EB5F21"/>
<path d="M319.995 204.699L218.424 232.751V218.241L319.995 191.801V204.699Z" fill="#EB5F21"/>
<path d="M85.5761 153.752L82.352 159.556L82.6743 64.7569H86.8659L86.5437 70.8836V73.7855L89.7678 74.1078L90.0901 153.43L85.5761 153.752Z" fill="#EB5F21"/>
<path d="M87.833 153.43L200.044 216.629L199.4 232.429L82.3515 159.556L84.9311 153.107L87.833 153.43Z" fill="#EB5F21"/>
<path d="M86.5435 64.757L201.012 29.6101L201.98 42.5081L86.4951 71.0288L86.5435 64.757Z" fill="#EB5F21"/>
<path d="M208.267 23.1615L206.655 237.75" stroke="#474A54" stroke-miterlimit="10"/>
<path d="M206.655 237.749L220.843 234.202" stroke="#474A54" stroke-miterlimit="10"/>
<path d="M220.842 234.203L222.132 43.3148" stroke="#474A54" stroke-miterlimit="10"/>
<path d="M206.655 237.749L220.843 234.202" stroke="#474A54" stroke-miterlimit="10"/>
<path d="M220.842 232.591L330.474 202.281" stroke="#474A54" stroke-miterlimit="10"/>
<path d="M330.474 202.281V45.2493" stroke="#474A54" stroke-miterlimit="10"/>
<path d="M330.474 45.2488L324.025 43.959" stroke="#474A54" stroke-miterlimit="10"/>
<path d="M324.025 43.9599L318.544 45.572" stroke="#474A54" stroke-miterlimit="10"/>
<path d="M318.544 45.572L222.454 28.9661" stroke="#474A54" stroke-miterlimit="10"/>
<path d="M222.454 28.9661V26.0642" stroke="#474A54" stroke-miterlimit="10"/>
<path d="M222.455 26.0635L208.267 23.0001" stroke="#474A54" stroke-miterlimit="10"/>
<path d="M208.589 41.0573L330.474 59.1145" stroke="#474A54" stroke-miterlimit="10"/>
<path d="M323.703 58.1474L324.025 197.928" stroke="#474A54" stroke-miterlimit="10"/>
<path d="M324.025 197.767L220.843 224.853" stroke="#474A54" stroke-miterlimit="10"/>
<path d="M321.446 57.8246L320.478 192.285" stroke="#474A54" stroke-miterlimit="10"/>
<path d="M320.478 192.285L220.842 218.081" stroke="#474A54" stroke-miterlimit="10"/>
<path d="M321.446 57.8247L222.455 67.4978" stroke="#474A54" stroke-miterlimit="10"/>
<path d="M199.883 69.4321L158.933 75.2358" stroke="#474A54" stroke-miterlimit="10"/>
<path d="M158.933 75.2358L86.8661 74.2683" stroke="#474A54" stroke-miterlimit="10"/>
<path d="M208.589 41.0572L86.7043 71.3672" stroke="#474A54" stroke-miterlimit="10"/>
<path d="M86.7048 71.367L85.7373 157.138" stroke="#474A54" stroke-miterlimit="10"/>
<path d="M85.7373 157.138L206.655 227.754" stroke="#474A54" stroke-miterlimit="10"/>
<path d="M162.641 147.948L85.8987 154.075" stroke="#474A54" stroke-miterlimit="10"/>
<path d="M221.165 164.231L320.317 192.123" stroke="#474A54" stroke-miterlimit="10"/>
<path d="M206.494 237.589L82.352 159.557" stroke="#474A54" stroke-miterlimit="10"/>
<path d="M82.3515 159.557L82.6738 64.7574" stroke="#474A54" stroke-miterlimit="10"/>
<path d="M198.916 215.823L88.6392 153.913" stroke="#474A54" stroke-miterlimit="10"/>
<path d="M89.929 74.2692L90.2513 153.591" stroke="#474A54" stroke-miterlimit="10"/>
<path d="M158.61 74.9137V148.109" stroke="#474A54" stroke-miterlimit="10"/>
<path d="M162.802 148.109L162.48 74.9137" stroke="#474A54" stroke-miterlimit="10"/>
<path d="M166.671 73.9469V149.077" stroke="#474A54" stroke-miterlimit="10"/>
<path d="M200.206 42.9919L198.916 215.823" stroke="#474A54" stroke-miterlimit="10"/>
<path d="M162.641 147.948L199.561 158.427" stroke="#474A54" stroke-miterlimit="10"/>
<path d="M208.267 23.0002L200.528 25.2576" stroke="#474A54" stroke-miterlimit="10"/>
<path d="M200.528 25.2579V29.7747" stroke="#474A54" stroke-miterlimit="10"/>
<path d="M200.528 29.7716L86.705 64.9185" stroke="#474A54" stroke-miterlimit="10"/>
<path d="M86.7045 64.9185H82.8351" stroke="#474A54" stroke-miterlimit="10"/>
<path d="M215.398 32.6738H215.324C214.457 32.6738 213.749 31.9653 213.749 31.0987V27.4776C213.749 26.6111 214.457 25.9026 215.324 25.9026H215.398C216.264 25.9026 216.973 26.6111 216.973 27.4776V31.0987C216.973 31.9653 216.264 32.6738 215.398 32.6738Z" stroke="#474A54" stroke-miterlimit="10"/>
<path d="M204.757 32.666L204.683 32.6816C203.817 32.8659 203.108 32.3074 203.108 31.4416V27.8205C203.108 26.954 203.817 26.0946 204.683 25.9104L204.757 25.8947C205.624 25.7105 206.332 26.2689 206.332 27.1347V30.7558C206.332 31.6223 205.624 32.4817 204.757 32.666Z" stroke="#474A54" stroke-miterlimit="10"/>
<path d="M328.077 51.6978H328.035C327.426 51.6978 326.928 51.1998 326.928 50.5908V47.6455C326.928 47.0365 327.426 46.5386 328.035 46.5386H328.077C328.686 46.5386 329.184 47.0365 329.184 47.6455V50.5908C329.184 51.1998 328.686 51.6978 328.077 51.6978Z" stroke="#474A54" stroke-miterlimit="10"/>
<path d="M329.829 199.683V200.048C329.829 200.657 329.349 201.262 328.761 201.391L326.544 201.88C325.957 202.01 325.476 201.617 325.476 201.008V200.643C325.476 200.034 325.957 199.43 326.544 199.301L328.761 198.812C329.349 198.683 329.829 199.075 329.829 199.683Z" stroke="#474A54" stroke-miterlimit="10"/>
<path d="M217.618 230.884V231.177C217.618 232.072 216.886 232.96 215.99 233.15L212.151 233.966C211.256 234.156 210.524 233.579 210.524 232.684V232.392C210.524 231.497 211.256 230.609 212.151 230.419L215.99 229.603C216.886 229.412 217.618 229.989 217.618 230.884Z" stroke="#474A54" stroke-miterlimit="10"/>
<path d="M199.722 229.679V229.92C199.722 230.658 200.271 231.518 200.943 231.83L203.822 233.168C204.493 233.48 205.043 233.131 205.043 232.393V232.151C205.043 231.412 204.493 230.553 203.822 230.241L200.943 228.902C200.271 228.591 199.722 228.94 199.722 229.679Z" stroke="#474A54" stroke-miterlimit="10"/>
<path d="M423.411 164.154V74.476C423.411 73.2267 422.398 72.2137 421.148 72.2137H421.102C419.853 72.2137 418.84 73.2267 418.84 74.476V164.246C412.085 165.459 406.957 171.363 406.957 178.467C406.957 186.449 413.428 192.92 421.41 192.92C429.393 192.92 435.864 186.449 435.864 178.467C435.864 171.163 430.446 165.129 423.411 164.154Z" stroke="#474A54" stroke-miterlimit="10"/>
<path d="M411.464 157.471V146.875V96.9291V75.551C411.464 71.5393 410.786 66.8383 413.103 63.3467C415.744 59.3663 423.146 58.9558 427.122 60.9805C430.175 62.5363 431.357 65.7406 431.357 68.959V83.1262V134.335V157.51C431.357 158.138 431.601 158.608 431.966 158.923C432.069 159.018 432.187 159.108 432.32 159.19C444.493 166.62 446.416 183.391 436.283 193.385C426.603 202.934 410.426 200.33 403.201 189.269C399.495 183.597 399.018 176.525 401.212 170.213C402.289 167.118 404.284 164.394 406.602 162.12C407.88 160.866 411.464 159.491 411.464 157.471ZM407.574 93.9027V156.448C398.316 162.654 393.981 173.937 396.956 184.807C399.902 195.566 410.113 202.886 421.061 203.224C432.2 203.568 442.043 195.957 445.615 185.649C449.392 174.749 444.563 162.719 435.246 156.45V76.3314C435.246 72.7509 435.591 68.9384 434.934 65.3962C432.934 54.6211 416.844 53.157 410.466 60.4434C407.126 64.2594 407.574 69.1106 407.574 73.7746V93.9027Z" stroke="#474A54" stroke-miterlimit="10"/>
<path d="M439.27 90.8191H447.889C449.961 90.8191 449.961 87.6049 447.889 87.6049H439.27C437.198 87.6049 437.198 90.8191 439.27 90.8191Z" stroke="#474A54" stroke-miterlimit="10"/>
<path d="M439.27 109.96H447.889C449.961 109.96 449.961 106.746 447.889 106.746H439.27C437.198 106.746 437.198 109.96 439.27 109.96Z" stroke="#474A54" stroke-miterlimit="10"/>
<path d="M439.27 130.815H447.889C449.961 130.815 449.961 127.601 447.889 127.601H439.27C437.198 127.601 437.198 130.815 439.27 130.815Z" stroke="#474A54" stroke-miterlimit="10"/>
<path d="M357.009 73.9498C359.999 73.2625 362.989 72.5746 365.978 71.8881C366.123 71.8546 366.248 71.8034 366.362 71.7444C370.224 74.1625 374.085 76.5806 377.946 78.998C374.105 81.5143 370.264 84.0305 366.424 86.5475C366.364 86.5283 366.309 86.5041 366.242 86.4899C363.238 85.8653 360.236 85.2392 357.232 84.6139C355.282 84.2077 354.452 87.1949 356.408 87.6026C358.535 88.0451 360.661 88.4883 362.787 88.9308C361.158 89.9986 359.528 91.0665 357.899 92.1343C356.235 93.2242 357.786 95.9091 359.463 94.8099C361.165 93.6944 362.868 92.5789 364.57 91.4634C364.141 93.5251 363.712 95.5875 363.282 97.6492C362.876 99.5999 365.863 100.429 366.271 98.473C366.886 95.5178 367.501 92.5619 368.117 89.6059C368.153 89.4352 368.154 89.2758 368.142 89.1236L379.113 81.934V94.7402C379.04 94.7929 378.966 94.8476 378.895 94.9188C376.726 97.0879 374.557 99.257 372.387 101.427C370.973 102.841 373.165 105.032 374.579 103.618C376.09 102.107 377.602 100.594 379.113 99.0834V105.002C379.113 107 382.212 107 382.212 105.002V98.981C383.724 100.492 385.235 102.003 386.747 103.515C388.161 104.929 390.352 102.738 388.938 101.324C386.803 99.1887 384.668 97.0538 382.533 94.9188C382.43 94.8156 382.322 94.7367 382.212 94.6698V81.6693C385.955 84.0135 389.698 86.3576 393.441 88.701C393.445 88.8098 393.457 88.923 393.484 89.0411C394.172 92.0304 394.859 95.0205 395.546 98.0099C395.994 99.9578 398.982 99.1318 398.535 97.1861C398.061 95.1244 397.586 93.0627 397.113 91.0003C398.799 92.056 400.484 93.1118 402.17 94.1675C403.869 95.2311 405.423 92.5491 403.734 91.4919C402.046 90.434 400.357 89.3768 398.669 88.3197C400.775 87.8359 402.88 87.3521 404.986 86.8684C406.933 86.4202 406.107 83.4322 404.162 83.8797C401.22 84.5563 398.276 85.2328 395.334 85.9087C395.212 85.9371 395.101 85.9756 395 86.0218C391.228 83.6606 387.457 81.2987 383.686 78.9375C387.442 76.476 391.197 74.0152 394.953 71.5544C394.993 71.5658 395.028 71.5829 395.071 71.5914C398.027 72.2075 400.983 72.8229 403.939 73.4382C405.889 73.8445 406.718 70.8572 404.762 70.4503C402.707 70.022 400.653 69.5937 398.597 69.1655C400.069 68.2022 401.54 67.2382 403.01 66.2743C404.674 65.1837 403.123 62.4995 401.447 63.5986C399.874 64.6295 398.301 65.6596 396.728 66.6897C397.172 64.5569 397.617 62.4227 398.061 60.2891C398.467 58.3391 395.48 57.5096 395.073 59.4653C394.447 62.4689 393.822 65.4725 393.196 68.4754C393.156 68.6689 393.157 68.8475 393.178 69.0168C389.522 71.4121 385.867 73.8068 382.212 76.2021V62.6396C382.268 62.5969 382.324 62.5578 382.378 62.5038C384.513 60.3688 386.648 58.2345 388.783 56.0996C390.197 54.6853 388.006 52.4934 386.591 53.9084C385.132 55.3675 383.672 56.8273 382.212 58.2872V52.9373C382.212 50.9389 379.113 50.9389 379.113 52.9373V58.4935C377.55 56.9305 375.987 55.3675 374.424 53.8045C373.01 52.3902 370.818 54.5814 372.232 55.9957C374.402 58.1655 376.571 60.3346 378.74 62.5038C378.86 62.6233 378.986 62.7079 379.113 62.7791V76.074C375.363 73.7257 371.613 71.3773 367.863 69.0289C367.857 68.9399 367.85 68.8503 367.829 68.7557C367.152 65.8133 366.475 62.8708 365.799 59.9284C365.351 57.9813 362.363 58.8072 362.811 60.7522C363.268 62.7435 363.726 64.734 364.183 66.7253C362.658 65.7699 361.133 64.8144 359.608 63.8597C357.909 62.7954 356.355 65.4782 358.044 66.5354C359.6 67.5107 361.158 68.4854 362.714 69.4607C360.538 69.9608 358.361 70.461 356.185 70.9611C354.238 71.4086 355.064 74.3972 357.009 73.9498Z" stroke="#474A54" stroke-miterlimit="10"/>
<path d="M31.7008 97.5831C33.1998 97.2387 34.6988 96.8937 36.197 96.5494C36.2696 96.533 36.3322 96.5074 36.3898 96.4775C38.3256 97.6898 40.2606 98.902 42.1964 100.114C40.2713 101.375 38.3462 102.637 36.4211 103.898C36.3905 103.888 36.3628 103.876 36.3293 103.87C34.824 103.556 33.3186 103.242 31.8125 102.929C30.8351 102.725 30.4196 104.223 31.3999 104.427C32.4656 104.649 33.532 104.871 34.5977 105.093C33.781 105.628 32.9643 106.163 32.1476 106.699C31.3131 107.245 32.0907 108.591 32.9316 108.04C33.7846 107.481 34.6383 106.922 35.4913 106.363C35.2764 107.396 35.0609 108.43 34.846 109.464C34.6418 110.441 36.1394 110.857 36.3436 109.876C36.6523 108.395 36.9611 106.913 37.2691 105.431C37.2876 105.346 37.2883 105.266 37.2819 105.19C39.1152 103.988 40.9486 102.787 42.7819 101.586V108.005C42.7449 108.032 42.7079 108.059 42.6723 108.095C41.5853 109.182 40.4975 110.27 39.4105 111.357C38.7012 112.066 39.7996 113.165 40.5089 112.455C41.2666 111.698 42.0242 110.94 42.7819 110.182V113.149C42.7819 114.151 44.3349 114.151 44.3349 113.149V110.131C45.0926 110.889 45.8502 111.646 46.6079 112.404C47.3172 113.113 48.4156 112.014 47.707 111.305C46.6364 110.235 45.5664 109.165 44.4964 108.095C44.4445 108.043 44.3904 108.003 44.3349 107.97V101.453C46.2116 102.628 48.0876 103.803 49.9644 104.978C49.9658 105.032 49.9722 105.089 49.9857 105.148C50.3307 106.647 50.6751 108.145 51.0194 109.644C51.2442 110.621 52.7417 110.206 52.5176 109.231C52.28 108.198 52.0424 107.164 51.8048 106.13C52.65 106.659 53.4951 107.189 54.3403 107.718C55.1919 108.251 55.9709 106.907 55.1243 106.377C54.2777 105.847 53.4311 105.317 52.5852 104.787C53.6403 104.544 54.696 104.302 55.751 104.059C56.7278 103.834 56.3138 102.337 55.3384 102.561C53.8636 102.9 52.3882 103.239 50.9134 103.578C50.8522 103.592 50.796 103.612 50.7455 103.634C48.8553 102.451 46.9643 101.267 45.0741 100.083C46.9565 98.8494 48.8396 97.6158 50.722 96.3822C50.7419 96.3879 50.7597 96.3964 50.7811 96.4007C52.263 96.7094 53.7448 97.0182 55.2267 97.327C56.2042 97.5304 56.6197 96.0329 55.6393 95.8287C54.6092 95.6139 53.5791 95.3997 52.5489 95.1849C53.2867 94.7018 54.0237 94.2188 54.7615 93.7357C55.5952 93.1886 54.8177 91.8426 53.9775 92.394C53.1885 92.9105 52.4003 93.427 51.612 93.9435C51.8347 92.8742 52.0574 91.8049 52.28 90.735C52.4835 89.7575 50.986 89.342 50.7818 90.3223C50.4688 91.8277 50.155 93.3331 49.8413 94.8391C49.8214 94.9359 49.8221 95.0255 49.832 95.1102C48.0001 96.3111 46.1675 97.5112 44.3349 98.7121V91.9138C44.3634 91.8917 44.3918 91.8725 44.4182 91.8455C45.4888 90.7755 46.5588 89.7048 47.6288 88.6349C48.3381 87.9256 47.2396 86.8271 46.5304 87.5364C45.799 88.2678 45.067 88.9998 44.3349 89.7312V87.0498C44.3349 86.0481 42.7819 86.0481 42.7819 87.0498V89.835C41.9979 89.0517 41.2146 88.2678 40.4314 87.4845C39.7221 86.7752 38.6237 87.8744 39.3322 88.5829C40.42 89.6707 41.5077 90.7577 42.5948 91.8455C42.6545 91.9052 42.7179 91.9479 42.7819 91.9835V98.6481C40.9016 97.4707 39.022 96.2933 37.1425 95.1166C37.1389 95.0718 37.1354 95.0269 37.1247 94.9793C36.7854 93.5045 36.4467 92.0297 36.1074 90.5543C35.8833 89.5782 34.385 89.9922 34.6091 90.9676C34.8389 91.965 35.068 92.9631 35.2978 93.9612C34.533 93.4825 33.7682 93.0037 33.0042 92.5249C32.1519 91.9913 31.3729 93.3366 32.2195 93.8666C32.9999 94.3554 33.781 94.8441 34.5615 95.3329C33.4701 95.5833 32.3788 95.8344 31.2875 96.0848C30.3114 96.3096 30.7255 97.8072 31.7008 97.5831Z" stroke="#474A54" stroke-miterlimit="10"/>
<path d="M475.825 121.135H464.311V117.177H475.825V121.135Z" fill="#474A54"/>
<path d="M491.137 111.381C493.776 111.381 495.935 112.26 497.614 114.019C499.293 115.778 500.133 118.031 500.133 120.775C500.133 123.788 499.206 126.22 497.354 128.072C495.501 129.925 493.096 130.851 490.137 130.851C487.072 130.851 484.646 130.045 482.861 128.432C481.075 126.82 480.102 124.721 479.943 122.135H484.581C484.766 123.628 485.326 124.761 486.259 125.533C487.192 126.307 488.431 126.692 489.977 126.692C491.656 126.692 492.99 126.173 493.976 125.134C494.961 124.094 495.455 122.682 495.455 120.896C495.455 119.136 494.961 117.738 493.976 116.698C492.99 115.658 491.683 115.138 490.058 115.138C487.845 115.138 486.18 115.925 485.06 117.498H480.582L481.822 102.346H498.493V106.303H485.5L484.98 113.14H485.939C487.405 111.967 489.138 111.381 491.137 111.381Z" fill="#474A54"/>
<path d="M510.287 123.854C511.219 125.747 512.738 126.692 514.845 126.692C516.95 126.692 518.469 125.747 519.402 123.854C520.335 121.962 520.801 119.456 520.801 116.338C520.801 109.408 518.815 105.943 514.845 105.943C510.873 105.943 508.887 109.408 508.887 116.338C508.887 119.456 509.353 121.962 510.287 123.854ZM507.129 105.424C509.074 102.999 511.646 101.785 514.845 101.785C518.042 101.785 520.615 102.999 522.56 105.424C524.506 107.849 525.479 111.487 525.479 116.338C525.479 121.19 524.506 124.82 522.56 127.232C520.615 129.645 518.042 130.851 514.845 130.851C511.646 130.851 509.074 129.645 507.129 127.232C505.182 124.82 504.21 121.19 504.21 116.338C504.21 111.487 505.182 107.849 507.129 105.424Z" fill="#474A54"/>
<path d="M533.355 112.959C534.101 113.932 535.167 114.419 536.553 114.419C537.939 114.419 539.005 113.932 539.752 112.959C540.498 111.987 540.871 110.794 540.871 109.381C540.871 107.995 540.498 106.816 539.752 105.843C539.005 104.87 537.939 104.383 536.553 104.383C535.167 104.383 534.101 104.87 533.355 105.843C532.608 106.816 532.236 107.995 532.236 109.381C532.236 110.794 532.608 111.987 533.355 112.959ZM531.076 103.724C532.436 102.244 534.26 101.505 536.553 101.505C538.845 101.505 540.671 102.244 542.03 103.724C543.39 105.203 544.069 107.089 544.069 109.381C544.069 111.674 543.39 113.566 542.03 115.058C540.671 116.551 538.845 117.297 536.553 117.297C534.26 117.297 532.436 116.551 531.076 115.058C529.717 113.566 529.037 111.674 529.037 109.381C529.037 107.089 529.717 105.203 531.076 103.724Z" fill="#474A54"/>
<path d="M567.657 121.695H572.695C572.215 124.467 570.949 126.687 568.897 128.351C566.844 130.018 564.233 130.851 561.061 130.851C556.85 130.851 553.558 129.485 551.186 126.753C548.813 124.022 547.627 120.456 547.627 116.058C547.627 111.661 548.82 108.096 551.206 105.363C553.591 102.631 556.889 101.266 561.101 101.266C564.112 101.266 566.611 102.025 568.597 103.544C570.582 105.064 571.842 107.116 572.375 109.702H567.338C566.431 106.983 564.352 105.623 561.101 105.623C558.302 105.623 556.169 106.61 554.704 108.582C553.238 110.555 552.505 113.047 552.505 116.058C552.505 119.071 553.231 121.562 554.684 123.534C556.137 125.507 558.262 126.493 561.061 126.493C562.82 126.493 564.265 126.073 565.399 125.234C566.531 124.394 567.284 123.215 567.657 121.695Z" fill="#474A54"/>
<path d="M10.9076 155.027C13.7028 147.784 21.5184 143.998 28.8616 143.239C33.8366 142.725 39.466 143.752 43.5937 146.685C47.266 149.295 49.3398 153.359 50.2881 157.682C50.3621 158.017 50.8765 157.875 50.8032 157.54C49.931 153.565 48.1297 149.771 44.9852 147.098C42.7556 145.203 40.0487 143.995 37.2151 143.325C31.1681 141.896 24.7767 142.669 19.2305 145.507C15.2771 147.531 12.0089 150.699 10.3932 154.885C10.2695 155.205 10.7852 155.344 10.9076 155.027Z" fill="#474A54"/>
<path d="M82.1744 124.223C77.6576 123.903 72.9259 124.852 68.6269 126.152C62.2853 128.069 56.2581 131.3 51.5478 136.007C48.5001 139.053 46.0934 142.669 44.4159 146.635C44.2836 146.947 44.7431 147.22 44.8769 146.904C47.7716 140.061 52.8519 134.52 59.2454 130.78C64.278 127.835 69.9522 125.953 75.7154 125.112C77.8411 124.802 80.0259 124.605 82.1744 124.757C82.5173 124.781 82.5151 124.247 82.1744 124.223Z" fill="#474A54"/>
<path d="M11.0346 200.393C12.0526 198.294 13.4762 196.361 15.562 195.228C17.0681 194.41 18.7819 194.103 20.4836 194.169C24.5665 194.328 28.9267 196.393 29.7107 200.793C29.7705 201.131 30.2848 200.988 30.2251 200.651C29.0605 194.111 19.9437 191.799 14.7845 195.067C12.8807 196.272 11.5447 198.123 10.5736 200.123C10.4249 200.431 10.8845 200.702 11.0346 200.393Z" fill="#474A54"/>
<path d="M29.2257 198.126C30.8805 195.865 34.2568 194.873 36.951 195.209C40.0421 195.593 42.5249 198.179 43.0407 201.203C43.0983 201.541 43.612 201.398 43.5551 201.061C43.0044 197.829 40.3074 195.098 37.0228 194.683C34.0968 194.313 30.5518 195.416 28.7647 197.856C28.5619 198.134 29.0251 198.401 29.2257 198.126Z" fill="#474A54"/>
<path d="M22.4941 194.149C25.0722 186.198 32.5044 181.733 40.2617 179.87C46.932 178.268 54.7746 177.841 61.1098 180.886C66.03 183.251 69.9897 187.434 72.1617 192.435C72.2976 192.749 72.7579 192.477 72.622 192.165C70.7083 187.758 67.3966 183.946 63.2846 181.457C59.9467 179.436 56.2878 178.46 52.4263 178.238C44.8795 177.804 36.6114 179.279 30.2151 183.468C26.3585 185.994 23.4082 189.601 21.9797 194.008C21.8737 194.335 22.3888 194.475 22.4941 194.149Z" fill="#474A54"/>
<path d="M54.3364 218.196C54.6309 213.877 55.6931 209.557 57.5925 205.661C60.8921 198.895 66.7905 194.114 74.0832 192.225C79.6429 190.786 85.5256 190.907 91.1729 191.727C96.098 192.442 100.919 193.655 105.437 195.773C112.518 199.093 118.496 204.256 125.247 208.141C134.926 213.712 145.778 216.259 156.845 217.137C158.808 217.293 160.774 217.398 162.741 217.467C163.085 217.479 163.084 216.945 162.741 216.933C150.52 216.505 138.221 214.519 127.334 208.69C120.293 204.921 114.204 199.612 107.084 195.987C102.987 193.9 98.6428 192.526 94.1281 191.681C88.3258 190.595 82.3001 190.145 76.4536 191.168C68.7518 192.517 62.0382 196.781 58.0898 203.592C55.6582 207.787 54.298 212.593 53.8647 217.409C53.8412 217.671 53.8206 217.933 53.8028 218.196C53.7793 218.539 54.3129 218.537 54.3364 218.196Z" fill="#474A54"/>
<path d="M60.9778 55.0381C61.6728 54.878 62.3679 54.7187 63.0636 54.5586C63.0971 54.5508 63.1263 54.5394 63.1526 54.5252C64.0504 55.0872 64.9482 55.6499 65.846 56.2119C64.9532 56.7967 64.0603 57.3822 63.1668 57.9677C63.1533 57.9627 63.1405 57.957 63.1248 57.9542C62.4262 57.8084 61.7283 57.6632 61.0297 57.5174C60.5765 57.4235 60.383 58.1178 60.8383 58.2124C61.3328 58.3156 61.8272 58.4188 62.3216 58.5212C61.9425 58.7695 61.564 59.0178 61.1848 59.266C60.7978 59.52 61.1585 60.1439 61.5483 59.8885C61.9446 59.6289 62.3401 59.3699 62.7357 59.1102C62.6361 59.5897 62.5365 60.0692 62.4362 60.5487C62.3423 61.0019 63.0366 61.1954 63.1312 60.7401C63.2742 60.0529 63.4179 59.3656 63.5609 58.6784C63.5688 58.6386 63.5695 58.6016 63.5666 58.566C64.4168 58.009 65.2669 57.4519 66.1178 56.8949V59.8722C66.1007 59.8843 66.0836 59.8971 66.0673 59.9142C65.5629 60.4178 65.0578 60.9222 64.5534 61.4273C64.2247 61.756 64.7341 62.2654 65.0634 61.9367C65.4149 61.5853 65.7663 61.2338 66.1178 60.8824V62.2583C66.1178 62.7228 66.8384 62.7228 66.8384 62.2583V60.8582C67.1899 61.2096 67.5413 61.5611 67.8928 61.9125C68.2214 62.2412 68.7308 61.7318 68.4021 61.4031C67.9056 60.9066 67.409 60.41 66.9124 59.9142C66.8889 59.89 66.8633 59.8715 66.8384 59.8558V56.833C67.7085 57.3779 68.5786 57.9229 69.4493 58.4678C69.45 58.4934 69.4529 58.5198 69.4593 58.5468C69.6187 59.2419 69.7787 59.9376 69.9388 60.6327C70.0427 61.0859 70.7377 60.8938 70.6331 60.4413C70.5236 59.9618 70.4133 59.4823 70.303 59.0028C70.695 59.2483 71.087 59.4937 71.479 59.7391C71.8738 59.9867 72.2352 59.3628 71.8425 59.1167C71.4498 58.8712 71.0571 58.6251 70.6644 58.3796C71.1546 58.2672 71.6441 58.1541 72.1335 58.0417C72.586 57.9378 72.3939 57.2428 71.9421 57.3466C71.2578 57.5046 70.5734 57.6618 69.889 57.819C69.8605 57.8254 69.8349 57.834 69.8114 57.8453C68.9343 57.2961 68.0578 56.7469 67.1806 56.1977C68.0542 55.6257 68.9272 55.053 69.8008 54.4811C69.81 54.4839 69.8178 54.4875 69.8278 54.4896C70.515 54.6326 71.203 54.7763 71.8902 54.9193C72.3434 55.0139 72.5362 54.3188 72.0816 54.2242C71.6035 54.1246 71.1261 54.025 70.6481 53.9254C70.9903 53.7013 71.3325 53.4772 71.6739 53.2531C72.0609 52.9999 71.7003 52.3753 71.3104 52.6314C70.9447 52.8711 70.5791 53.1102 70.2134 53.3499C70.3166 52.854 70.4197 52.3582 70.5236 51.8616C70.6175 51.4084 69.9231 51.2156 69.8285 51.6702C69.6827 52.3689 69.5375 53.0668 69.3924 53.7654C69.3825 53.8102 69.3832 53.8514 69.3882 53.8913C68.538 54.4483 67.6879 55.0047 66.8384 55.5617V52.408C66.8512 52.398 66.864 52.3895 66.8768 52.3767C67.3734 51.8801 67.8693 51.3835 68.3658 50.8877C68.6945 50.5583 68.1851 50.0489 67.8565 50.3783C67.5171 50.7177 67.1778 51.057 66.8384 51.3963V50.1521C66.8384 49.6875 66.1178 49.6875 66.1178 50.1521V51.444C65.7542 51.0805 65.3907 50.7177 65.0272 50.3541C64.6985 50.0247 64.1891 50.5348 64.5178 50.8635C65.0222 51.3679 65.5266 51.8723 66.031 52.3767C66.0587 52.4044 66.0879 52.4243 66.1178 52.4407V55.5318C65.2456 54.9862 64.3734 54.4398 63.5019 53.8941C63.5005 53.8735 63.4983 53.8522 63.4933 53.8301C63.3361 53.1464 63.1789 52.462 63.0217 51.7777C62.9178 51.3252 62.2228 51.5173 62.3266 51.969C62.4333 52.4322 62.5393 52.8953 62.646 53.3584C62.2918 53.1358 61.9368 52.9138 61.5825 52.6918C61.1869 52.4443 60.8255 53.0682 61.2182 53.3143C61.5803 53.5406 61.9425 53.7675 62.3046 53.9944C61.7987 54.1104 61.2922 54.2271 60.7864 54.343C60.3332 54.4476 60.5253 55.142 60.9778 55.0381Z" fill="#474A54"/>
<path d="M16.4605 32.2107C16.9208 32.1047 17.3811 31.9994 17.8413 31.8934C17.8634 31.8884 17.8826 31.8806 17.9004 31.8713C18.4944 32.2434 19.0885 32.6155 19.6825 32.9875C19.092 33.3752 18.5008 33.7623 17.9096 34.1493C17.9004 34.1464 17.8919 34.1429 17.8819 34.1407C17.4195 34.0447 16.9571 33.9479 16.4946 33.8519C16.1944 33.7893 16.0671 34.2489 16.368 34.3122C16.6953 34.3798 17.0225 34.4481 17.3498 34.5164C17.0993 34.6807 16.8482 34.845 16.5978 35.0094C16.3417 35.1773 16.58 35.5906 16.8383 35.4213C17.1001 35.2498 17.3626 35.0777 17.6244 34.9062C17.5582 35.2235 17.492 35.5408 17.4259 35.8581C17.3633 36.1583 17.8236 36.2864 17.8862 35.9847C17.9808 35.5301 18.0754 35.0748 18.17 34.6202C18.1757 34.5939 18.1757 34.5697 18.1736 34.5462C18.737 34.177 19.2998 33.8085 19.8625 33.4393V35.4106C19.8511 35.4184 19.8397 35.427 19.8291 35.4376C19.4954 35.772 19.161 36.1057 18.8274 36.4393C18.6097 36.657 18.9469 36.9942 19.1646 36.7765C19.3972 36.5439 19.6299 36.3113 19.8625 36.0786V36.99C19.8625 37.2973 20.3391 37.2973 20.3391 36.99V36.063C20.5718 36.2956 20.8044 36.5282 21.037 36.7609C21.2547 36.9786 21.5919 36.6414 21.3742 36.4237L20.3889 35.4376C20.3733 35.422 20.3562 35.4099 20.3391 35.3999V33.3987C20.9154 33.7594 21.4916 34.1201 22.0679 34.4808C22.0679 34.4979 22.07 34.5149 22.0743 34.5334C22.1803 34.993 22.2856 35.4533 22.3916 35.9136C22.4606 36.2138 22.9202 36.0865 22.8519 35.787C22.7786 35.4697 22.706 35.1524 22.6327 34.8351C22.8924 34.9973 23.1514 35.1595 23.411 35.3224C23.6728 35.486 23.9119 35.0734 23.6515 34.9105C23.3918 34.7476 23.1322 34.5847 22.8725 34.4225C23.1962 34.3478 23.5206 34.2731 23.8443 34.1991C24.1438 34.1301 24.0172 33.6698 23.7177 33.7388C23.2645 33.8434 22.812 33.9472 22.3589 34.0511C22.3404 34.0554 22.3233 34.0618 22.3076 34.0689C21.7271 33.7053 21.1466 33.3418 20.5661 32.9783C21.1445 32.5998 21.7221 32.2206 22.3005 31.8421C22.3062 31.8436 22.3119 31.8464 22.3183 31.8478C22.7736 31.9425 23.2282 32.0371 23.6835 32.1317C23.9837 32.1943 24.1111 31.7347 23.8101 31.6721C23.4936 31.606 23.1777 31.5405 22.8611 31.4743C23.0873 31.3264 23.3143 31.1777 23.5405 31.0297C23.7966 30.8618 23.5576 30.4485 23.3001 30.6178C23.0575 30.7764 22.8156 30.9344 22.5737 31.093C22.642 30.7651 22.7103 30.4364 22.7786 30.1084C22.8412 29.8082 22.3816 29.6801 22.319 29.9811C22.2223 30.4435 22.1262 30.9059 22.0302 31.3683C22.0238 31.3975 22.0238 31.4253 22.0273 31.4516C21.4646 31.8201 20.9019 32.1886 20.3391 32.5571V30.4698C20.3484 30.4634 20.3569 30.457 20.3647 30.4492C20.6934 30.1205 21.0221 29.7918 21.3508 29.4632C21.5685 29.2455 21.2313 28.9083 21.0136 29.1259C20.7888 29.3508 20.5639 29.5756 20.3391 29.8004V28.9766C20.3391 28.6692 19.8625 28.6692 19.8625 28.9766V29.8317C19.622 29.5912 19.3816 29.3508 19.1411 29.1103C18.9234 28.8926 18.5862 29.2298 18.8039 29.4475C19.1376 29.7812 19.4712 30.1155 19.8049 30.4492C19.8234 30.4677 19.8426 30.4805 19.8625 30.4912V32.5379C19.2855 32.1758 18.7086 31.8151 18.1309 31.453C18.1302 31.4395 18.1288 31.426 18.1259 31.411C18.0213 30.9586 17.9175 30.5054 17.8136 30.0529C17.7446 29.7527 17.2843 29.8801 17.3533 30.1796C17.4237 30.4862 17.4942 30.7921 17.5646 31.0987C17.3298 30.9514 17.0951 30.8049 16.8603 30.6576C16.5992 30.494 16.3602 30.9066 16.6198 31.0695C16.8596 31.2197 17.0993 31.3698 17.3384 31.5199C17.004 31.5967 16.6689 31.6735 16.3339 31.7504C16.0336 31.8194 16.161 32.2797 16.4605 32.2107Z" fill="#474A54"/>
<defs>
<radialGradient id="paint0_radial_2501_3398" cx="0" cy="0" r="1" gradientUnits="userSpaceOnUse" gradientTransform="translate(203.382 125.691) scale(79.4613)">
<stop stop-color="white"/>
<stop offset="0.00837989" stop-color="white"/>
<stop offset="0.645251" stop-color="white"/>
<stop offset="1" stop-color="white" stop-opacity="0"/>
</radialGradient>
<radialGradient id="paint1_radial_2501_3398" cx="0" cy="0" r="1" gradientUnits="userSpaceOnUse" gradientTransform="translate(203.379 125.699) scale(79.4613 79.4613)">
<stop stop-color="#E63134"/>
<stop offset="0.00837989" stop-color="#E63134"/>
<stop offset="0.645251" stop-color="#F9EA3A"/>
<stop offset="1" stop-color="#F9EA3A"/>
</radialGradient>
</defs>
</svg>
