<svg width="573" height="260" viewBox="0 0 573 260" fill="none" xmlns="http://www.w3.org/2000/svg"><path d="M571.828 90.3584C577.066 146.105 462.061 193.262 305.289 219.953C153.351 245.819 9.2929 230.075 0.842742 184.244C-11.862 115.34 120.866 68.2573 278.278 45.6322C442.595 22.0148 567.52 44.508 571.828 90.3584Z" fill="#FCF7F4"/><path d="M207.954 199.137L314.06 246.865V12.1513L305.898 14.5674L305.973 21.977L219.139 46.8898L212.098 43.2155L207.954 44.1714V199.137Z" fill="#E96122"/><path d="M468.23 151.409L314.06 246.865V12.1511L324.076 16.4889L323.999 24.0977L464.301 80.4203V78.6081L468.23 78.9104V151.409Z" fill="#E96122"/><path d="M314.06 11.9999V246.562" stroke="#474A54" stroke-miterlimit="10"/><path d="M307.107 35.4109L307.409 234.479" stroke="#474A54" stroke-miterlimit="10"/><path d="M307.409 234.479L211.884 193.397" stroke="#474A54" stroke-miterlimit="10"/><path d="M211.884 193.397L212.488 43.2646" stroke="#474A54" stroke-miterlimit="10"/><path d="M313.908 246.714L207.803 198.986" stroke="#474A54" stroke-miterlimit="10"/><path d="M207.803 198.986V44.0204" stroke="#474A54" stroke-miterlimit="10"/><path d="M207.652 43.869V198.834" stroke="#474A54" stroke-miterlimit="10"/><path d="M212.488 56.8584L307.107 35.4109" stroke="#474A54" stroke-miterlimit="10"/><path d="M212.488 48.7024L305.898 22.1198" stroke="#474A54" stroke-miterlimit="10"/><path d="M305.897 22.1196V14.5677" stroke="#474A54" stroke-miterlimit="10"/><path d="M305.897 14.5676L314.059 12.1508" stroke="#474A54" stroke-miterlimit="10"/><path d="M314.06 28.4632L307.106 29.9739" stroke="#474A54" stroke-miterlimit="10"/><path d="M207.954 44.1711L212.186 43.265" stroke="#474A54" stroke-miterlimit="10"/><path d="M212.186 43.2649L219.138 46.8901" stroke="#474A54" stroke-miterlimit="10"/><path d="M314.06 28.4629L324.337 32.3896" stroke="#474A54" stroke-miterlimit="10"/><path d="M324.035 16.3801L324.338 32.3901" stroke="#474A54" stroke-miterlimit="10"/><path d="M314.06 12.1511L324.036 16.3801" stroke="#474A54" stroke-miterlimit="10"/><path d="M296.829 50.8169V149.294" stroke="#474A54" stroke-miterlimit="10"/><path d="M296.829 149.294L249.671 142.044" stroke="#474A54" stroke-miterlimit="10"/><path d="M249.671 142.044V59.2749" stroke="#474A54" stroke-miterlimit="10"/><path d="M249.671 59.2749L296.829 50.8168" stroke="#474A54" stroke-miterlimit="10"/><path d="M291.992 58.3687L291.388 142.648" stroke="#474A54" stroke-miterlimit="10"/><path d="M291.387 142.648L252.996 137.211" stroke="#474A54" stroke-miterlimit="10"/><path d="M252.996 137.211L252.693 65.6188" stroke="#474A54" stroke-miterlimit="10"/><path d="M252.693 65.6187L291.992 58.369" stroke="#474A54" stroke-miterlimit="10"/><path d="M288.969 64.1083V136.305" stroke="#474A54" stroke-miterlimit="10"/><path d="M288.969 136.304L256.321 132.679" stroke="#474A54" stroke-miterlimit="10"/><path d="M256.321 132.68V68.9418" stroke="#474A54" stroke-miterlimit="10"/><path d="M256.321 68.9414L288.969 64.1085" stroke="#474A54" stroke-miterlimit="10"/><path d="M314.06 246.865L468.23 151.408" stroke="#474A54" stroke-miterlimit="10"/><path d="M324.035 24.2342L466.416 81.3269" stroke="#474A54" stroke-miterlimit="10"/><path d="M468.23 78.91V151.408" stroke="#474A54" stroke-miterlimit="10"/><path d="M406.26 64.7124L321.919 35.4107" stroke="#474A54" stroke-miterlimit="10"/><path d="M321.919 35.411V233.876" stroke="#474A54" stroke-miterlimit="10"/><path d="M321.919 233.875L404.748 184.033" stroke="#474A54" stroke-miterlimit="10"/><path d="M406.259 64.7123L404.748 184.033" stroke="#474A54" stroke-miterlimit="10"/><path d="M389.633 58.9728L388.727 193.699" stroke="#474A54" stroke-miterlimit="10"/><path d="M348.219 44.4731L347.916 218.167" stroke="#474A54" stroke-miterlimit="10"/><path d="M468.23 86.4619L408.889 65.7698" stroke="#474A54" stroke-miterlimit="10"/><path d="M408.98 65.9207L408.376 180.105" stroke="#474A54" stroke-miterlimit="10"/><path d="M408.376 180.106L468.23 147.481" stroke="#474A54" stroke-miterlimit="10"/><path d="M448.581 79.5142L448.278 158.356" stroke="#474A54" stroke-miterlimit="10"/><path d="M421.677 75.2852L420.165 169.533" stroke="#474A54" stroke-miterlimit="10"/><path d="M420.165 169.533L438.605 159.564" stroke="#474A54" stroke-miterlimit="10"/><path d="M438.605 159.564V81.3265" stroke="#474A54" stroke-miterlimit="10"/><path d="M439.512 81.3267L421.677 75.2854" stroke="#474A54" stroke-miterlimit="10"/><path d="M452.813 85.5557L452.511 123.013" stroke="#474A54" stroke-miterlimit="10"/><path d="M452.511 123.013L459.766 121.503" stroke="#474A54" stroke-miterlimit="10"/><path d="M459.766 121.503V87.6704" stroke="#474A54" stroke-miterlimit="10"/><path d="M459.766 87.6702L452.813 85.5556" stroke="#474A54" stroke-miterlimit="10"/><path d="M452.813 90.6908L457.045 91.5969" stroke="#474A54" stroke-miterlimit="10"/><path d="M457.045 91.5972V119.086" stroke="#474A54" stroke-miterlimit="10"/><path d="M457.045 119.086L452.511 119.69" stroke="#474A54" stroke-miterlimit="10"/><path d="M425.002 124.524H430.746" stroke="#474A54" stroke-miterlimit="10"/><path d="M468.23 78.9099L464.3 78.6074" stroke="#474A54" stroke-miterlimit="10"/><path d="M464.3 78.6077V80.4199" stroke="#474A54" stroke-miterlimit="10"/><path d="M466.417 81.3267V78.9099" stroke="#474A54" stroke-miterlimit="10"/><path d="M320.71 20.8725C320.71 21.9568 319.965 22.6504 319.047 22.4218C318.129 22.1931 317.385 21.1285 317.385 20.0442C317.385 18.9593 318.129 18.2656 319.047 18.495C319.965 18.7236 320.71 19.7882 320.71 20.8725Z" stroke="#474A54" stroke-miterlimit="10"/><path d="M311.943 21.3577C311.507 22.3508 310.546 22.6867 309.797 22.1088C309.049 21.5309 308.795 20.2573 309.231 19.2642C309.667 18.2711 310.628 17.9345 311.377 18.5131C312.126 19.091 312.379 20.3646 311.943 21.3577Z" stroke="#474A54" stroke-miterlimit="10"/><path d="M210.874 47.7656C210.664 48.2439 210.202 48.4059 209.841 48.1275C209.48 47.849 209.358 47.2354 209.568 46.757C209.778 46.2787 210.24 46.1167 210.601 46.3952C210.962 46.6736 211.084 47.2873 210.874 47.7656Z" stroke="#474A54" stroke-miterlimit="10"/><path d="M207.652 51.7231L191.025 49.9109" stroke="#474A54" stroke-miterlimit="10"/><path d="M191.025 49.9107L77.9672 116.368" stroke="#474A54" stroke-miterlimit="10"/><path d="M58.3177 127.847V152.617" stroke="#474A54" stroke-miterlimit="10"/><path d="M58.3177 152.617L184.375 197.626" stroke="#474A54" stroke-miterlimit="10"/><path d="M184.375 197.626L207.651 194.001" stroke="#474A54" stroke-miterlimit="10"/><path d="M191.025 49.9106L191.63 190.376" stroke="#474A54" stroke-miterlimit="10"/><path d="M184.677 53.8376L184.073 192.189" stroke="#474A54" stroke-miterlimit="10"/><path d="M184.073 192.189L207.652 187.658" stroke="#474A54" stroke-miterlimit="10"/><path d="M179.84 61.9937L177.724 188.715" stroke="#474A54" stroke-miterlimit="10"/><path d="M177.724 188.564L123.613 172.252" stroke="#474A54" stroke-miterlimit="10"/><path d="M123.613 172.252V93.2584" stroke="#474A54" stroke-miterlimit="10"/><path d="M123.613 93.1077L179.841 61.9937" stroke="#474A54" stroke-miterlimit="10"/><path d="M96.4068 105.493L96.1043 166.21" stroke="#474A54" stroke-miterlimit="10"/><path d="M177.724 188.866L58.3173 152.617" stroke="#474A54" stroke-miterlimit="10"/><path d="M121.497 94.316L98.2209 107.305" stroke="#474A54" stroke-miterlimit="10"/><path d="M98.2206 107.305L97.9181 164.699" stroke="#474A54" stroke-miterlimit="10"/><path d="M97.9183 164.7L120.288 171.346" stroke="#474A54" stroke-miterlimit="10"/><path d="M120.288 171.346L121.497 94.3161" stroke="#474A54" stroke-miterlimit="10"/><path d="M94.5931 109.118V163.491" stroke="#474A54" stroke-miterlimit="10"/><path d="M94.5931 163.491L82.1993 159.866" stroke="#474A54" stroke-miterlimit="10"/><path d="M82.199 159.867L82.5015 116.066" stroke="#474A54" stroke-miterlimit="10"/><path d="M82.5013 116.065L94.5933 109.118" stroke="#474A54" stroke-miterlimit="10"/><path d="M73.7347 126.185V157.148" stroke="#474A54" stroke-miterlimit="10"/><path d="M67.9911 126.487V155.637" stroke="#474A54" stroke-miterlimit="10"/><path d="M63.759 126.336V154.43" stroke="#474A54" stroke-miterlimit="10"/><path d="M60.4338 128.149L60.7363 153.221" stroke="#474A54" stroke-miterlimit="10"/><path d="M82.5013 120.899H76.4556" stroke="#474A54" stroke-miterlimit="10"/><path d="M76.4554 120.899V116.519" stroke="#474A54" stroke-miterlimit="10"/><path d="M76.4554 116.368L82.501 116.065" stroke="#474A54" stroke-miterlimit="10"/><path d="M76.4553 120.899L66.1776 126.336" stroke="#474A54" stroke-miterlimit="10"/><path d="M66.1773 126.336V122.258" stroke="#474A54" stroke-miterlimit="10"/><path d="M82.5014 120.899L73.7347 126.034" stroke="#474A54" stroke-miterlimit="10"/><path d="M73.7347 126.034L66.1773 126.336" stroke="#474A54" stroke-miterlimit="10"/><path d="M66.1773 125.128L58.3293 129.142" stroke="#474A54" stroke-miterlimit="10"/><path d="M76.4611 116.26L66.1777 122.409" stroke="#474A54" stroke-miterlimit="10"/><path d="M66.1774 123.013L58.3174 127.846" stroke="#474A54" stroke-miterlimit="10"/><path d="M134.194 104.888V145.971" stroke="#474A54" stroke-miterlimit="10"/><path d="M134.194 145.971H157.47" stroke="#474A54" stroke-miterlimit="10"/><path d="M157.471 145.971V95.524" stroke="#474A54" stroke-miterlimit="10"/><path d="M157.47 95.524L134.194 104.888" stroke="#474A54" stroke-miterlimit="10"/><path d="M155.354 111.534V143.252" stroke="#474A54" stroke-miterlimit="10"/><path d="M155.355 143.252H135.705" stroke="#474A54" stroke-miterlimit="10"/><path d="M135.705 143.252V117.274" stroke="#474A54" stroke-miterlimit="10"/><path d="M135.705 117.274L155.355 111.534" stroke="#474A54" stroke-miterlimit="10"/><path d="M155.354 98.847V107.91" stroke="#474A54" stroke-miterlimit="10"/><path d="M155.355 107.91L135.705 114.555" stroke="#474A54" stroke-miterlimit="10"/><path d="M135.705 114.555V106.399" stroke="#474A54" stroke-miterlimit="10"/><path d="M135.705 106.399L155.355 98.847" stroke="#474A54" stroke-miterlimit="10"/><path d="M135.705 114.555L139.333 107.003" stroke="#474A54" stroke-miterlimit="10"/><path d="M139.333 107.003L155.354 101.263" stroke="#474A54" stroke-miterlimit="10"/><path d="M84.8668 124.54V145.369" stroke="#474A54" stroke-miterlimit="10"/><path d="M84.8668 145.369H90.8142" stroke="#474A54" stroke-miterlimit="10"/><path d="M90.8144 145.369V122.538" stroke="#474A54" stroke-miterlimit="10"/><path d="M90.8145 122.538L84.8671 124.54" stroke="#474A54" stroke-miterlimit="10"/><path d="M90.2737 130.353V143.991" stroke="#474A54" stroke-miterlimit="10"/><path d="M90.2737 143.99H85.6752" stroke="#474A54" stroke-miterlimit="10"/><path d="M85.6754 143.99V131.121" stroke="#474A54" stroke-miterlimit="10"/><path d="M85.6754 131.121L90.2738 130.353" stroke="#474A54" stroke-miterlimit="10"/><path d="M90.2737 123.921V128.515" stroke="#474A54" stroke-miterlimit="10"/><path d="M90.2737 128.516L85.6752 129.743" stroke="#474A54" stroke-miterlimit="10"/><path d="M85.6754 129.743V125.306" stroke="#474A54" stroke-miterlimit="10"/><path d="M85.6754 125.306L90.2738 123.921" stroke="#474A54" stroke-miterlimit="10"/><path d="M103.337 116.863V144.582" stroke="#474A54" stroke-miterlimit="10"/><path d="M103.337 144.582H114.424" stroke="#474A54" stroke-miterlimit="10"/><path d="M114.424 144.582V112.592" stroke="#474A54" stroke-miterlimit="10"/><path d="M114.424 112.592L103.337 116.864" stroke="#474A54" stroke-miterlimit="10"/><path d="M113.416 123.394V142.748" stroke="#474A54" stroke-miterlimit="10"/><path d="M113.416 142.748H104.057" stroke="#474A54" stroke-miterlimit="10"/><path d="M104.057 142.748V125.22" stroke="#474A54" stroke-miterlimit="10"/><path d="M104.057 125.219L113.416 123.394" stroke="#474A54" stroke-miterlimit="10"/><path d="M113.416 114.834V120.948" stroke="#474A54" stroke-miterlimit="10"/><path d="M113.416 120.948L104.057 123.385" stroke="#474A54" stroke-miterlimit="10"/><path d="M104.057 123.385V117.882" stroke="#474A54" stroke-miterlimit="10"/><path d="M104.057 117.882L113.416 114.833" stroke="#474A54" stroke-miterlimit="10"/><path d="M74.927 128.757V145.226" stroke="#474A54" stroke-miterlimit="10"/><path d="M74.927 145.226H79.6293" stroke="#474A54" stroke-miterlimit="10"/><path d="M79.6295 145.226V127.476" stroke="#474A54" stroke-miterlimit="10"/><path d="M79.6296 127.476L74.9272 128.757" stroke="#474A54" stroke-miterlimit="10"/><path d="M79.202 133.29V144.136" stroke="#474A54" stroke-miterlimit="10"/><path d="M79.202 144.136H75.5665" stroke="#474A54" stroke-miterlimit="10"/><path d="M75.5662 144.136V133.722" stroke="#474A54" stroke-miterlimit="10"/><path d="M75.5662 133.722L79.2018 133.29" stroke="#474A54" stroke-miterlimit="10"/><path d="M79.202 128.506V132.139" stroke="#474A54" stroke-miterlimit="10"/><path d="M79.202 132.139L75.5665 132.632" stroke="#474A54" stroke-miterlimit="10"/><path d="M75.5662 132.632V129.362" stroke="#474A54" stroke-miterlimit="10"/><path d="M75.5662 129.363L79.2018 128.507" stroke="#474A54" stroke-miterlimit="10"/><path d="M263.491 244.012L124.564 192.665" stroke="#474A54" stroke-miterlimit="10"/><path d="M124.564 192.665L128.37 199.322" stroke="#474A54" stroke-miterlimit="10"/><path d="M124.564 192.665L131.225 191.714" stroke="#474A54" stroke-miterlimit="10"/><path d="M263.886 244.418L256.663 247" stroke="#474A54" stroke-miterlimit="10"/><path d="M263.886 244.418L259.446 239.367" stroke="#474A54" stroke-miterlimit="10"/><path d="M520.245 116.65V157.792" stroke="#474A54" stroke-miterlimit="10"/><path d="M511.278 129.712C511.278 117.136 517.671 115.075 522.41 116.65C525.31 117.614 526.551 120.031 527.411 122.228C528.27 124.424 528.267 126.316 530.968 127.538C533.67 128.76 536.88 128.09 538.74 125.72" stroke="#474A54" stroke-miterlimit="10"/><path d="M558.341 123.225C543.953 123.908 537.539 117.371 541.982 113.452C545.656 110.209 551.136 110.706 556.567 114.527C549.982 110.834 532.024 101.093 538.069 90.1357C547.063 90.0859 548.85 79.3864 536.749 78.5237C550.913 79.3864 562.465 60.064 527.596 58.69C527.592 61.6847 527.144 65.2531 523.473 66.7119C517.414 69.1203 509.286 63.2298 503.42 65.8696C500.186 67.2281 501.414 70.7319 503.156 73.1017C504.898 75.4722 506.526 78.7924 503.587 80.4573C499.235 82.9239 492.892 78.913 487.737 80.4005C476.518 83.6386 488.268 92.69 493.54 91.8217C490.017 92.2951 486.349 92.8134 483.506 94.3697C480.662 95.9266 478.956 98.8596 480.644 101.114C482.151 103.125 488.433 104.18 487.01 106.149C482.511 112.372 491.061 115.967 495.08 111.743C497.792 113.604 501.81 114.106 504.585 114.63C505.028 118.081 496.457 117.703 493.861 120.759" stroke="#474A54" stroke-miterlimit="10"/><path d="M516.301 100.114L505.527 90.9827" stroke="#474A54" stroke-miterlimit="10"/><path d="M525.01 83.1938L533.014 72.6465" stroke="#474A54" stroke-miterlimit="10"/><path d="M540.911 103.366L550.605 97.0376" stroke="#474A54" stroke-miterlimit="10"/><path d="M14.5806 188.114C24.1607 184.619 30.8184 175.258 30.6534 166.576C27.2011 168.576 23.395 169.963 19.4654 170.654C26.3532 168.524 30.9728 162.115 32.095 157.035C29.442 158.253 24.9285 158.856 23.9754 159.119C28.2622 157.714 34.449 148.288 35.1178 142.943C34.7037 146.085 38.5351 162.729 47.692 162.69C43.3027 163.337 40.628 163.512 36.3453 162.351C37.356 168.006 45.5353 177.03 50.679 177.006C47.8057 177.38 41.6323 177.041 37.9385 175.258C39.1303 180.808 45.058 190.037 52.4589 189.602" stroke="#474A54" stroke-miterlimit="10"/><path d="M34.5679 166.28V201.553" stroke="#474A54" stroke-miterlimit="10"/></svg>