<svg width="573" height="260" viewBox="0 0 573 260" fill="none" xmlns="http://www.w3.org/2000/svg">
<g clip-path="url(#clip0_2666_12832)">
<path d="M146.627 53.2451L401.72 24.5234L403.723 230.476L149.695 205.573L146.627 53.2451Z" fill="#EA5B0C"/>
<path d="M355.256 38.9353L356.359 216.867L258.619 209.177L256.068 48.6686L355.256 38.9353Z" fill="#40444E"/>
<path d="M146.9 43.2881V37.3069L134.916 38.731L135.151 49.6915M146.9 43.2881L402.114 10.9613V3.41364L423.941 -0.00415039M146.9 43.2881V48.6996M135.151 49.6915L146.9 48.6996M135.151 49.6915L138.551 208.84M423.941 -0.00415039L424.117 15.7997M423.941 -0.00415039L434.254 57.3354V220.038L426.589 237.081M146.9 48.6996L146.996 53.1121M424.117 15.7997L402.114 18.6513L402.169 24.0695M424.117 15.7997L426.589 237.081M426.589 237.081L426.651 242.66M426.589 237.081C436.885 237.876 440.392 238.934 439.819 242.66M426.651 242.66C433.279 244.469 436.107 244.494 439.819 242.66M426.651 242.66L420.571 242.02M439.819 242.66C433.131 255.202 427.74 259.515 413.327 259.292L147.213 226.55C138.381 223.14 137.004 218.736 133.701 211.473M420.571 242.02L409.191 247.501C409.457 248.692 409.827 251.094 409.191 251.174C408.555 251.253 403.291 250.611 400.739 250.28V246.409L393.365 241.711M420.571 242.02L388.556 238.648M138.551 208.84L138.625 212.327L140.905 212.567M138.551 208.84C135.196 208.927 134.469 209.72 133.701 211.473M146.996 53.1121L150.323 205.776L404.254 229.701L402.169 24.0695M146.996 53.1121L402.169 24.0695M279.428 51.1206L259.884 53.1121L262.88 207.342L282.852 208.482M279.428 51.1206L282.852 208.482M279.428 51.1206L351.185 44.2849L353.04 213.894L282.852 208.482M140.905 212.567L155.721 214.128M140.905 212.567V214.128L146.573 218.217V221.295H150.323M133.701 211.473C134.053 212.336 134.578 212.627 138.342 211.473M393.365 241.711L388.556 238.648M393.365 241.711L348.633 236.879L343.263 239.262L338.39 238.07L273.158 231.618L267.49 227.052L262.22 230.625H260.927V233.702H255.459V229.732H253.569L249.304 226.371M388.556 238.648L248.149 223.861M248.149 223.861L247.901 225.265L249.304 226.371M248.149 223.861L155.721 214.128M249.304 226.371L154.926 216.232M155.721 214.128V215.537L154.926 216.232M154.926 216.232L151.843 218.217H150.323V221.295M154.926 216.232L151.843 221.295H150.323M256.032 48.6996L258.601 209.337L356.561 217.027L355.465 38.731L256.032 48.6996Z" stroke="black"/>
</g>
<defs>
<clipPath id="clip0_2666_12832">
<rect width="573" height="260" fill="white"/>
</clipPath>
</defs>
</svg>
