<?xml version="1.0" encoding="utf-8"?><svg width="36" height="36" fill="none" xmlns="http://www.w3.org/2000/svg" viewBox="0 0 36 36"><path d="m28.137 26.634-6.857 2.604a2.844 2.844 0 0 0-2.846-2.285c-1.143 0-2.491-.285-6.388-1.747a17.07 17.07 0 0 0-6.332-.172.845.845 0 0 0-.845-.8H.857a.869.869 0 0 0-.857.857v9.812a.868.868 0 0 0 .857.857h3.954a.811.811 0 0 0 .686-.377c2.647.411 5.322.617 8 .617 4.012 0 8.057-.48 10.469-1.782a116.906 116.906 0 0 0 5.908-3.427 2.286 2.286 0 0 0 1.383-2.981 2.351 2.351 0 0 0-2.224-1.386c-.31.01-.614.082-.896.21ZM3.954 33.977H1.67v-7.996h2.285v7.996Zm25.143-4.717s-2.868 1.747-5.908 3.427c-3.669 1.987-12.252 1.838-17.52.97v-6.922c1.893-.32 3.829-.297 5.714.069 4.126 1.542 5.588 1.839 6.948 1.839a1.143 1.143 0 0 1 1.143.914v.057h-5.76a.857.857 0 1 0 0 1.713h6.72a.87.87 0 0 0 .309-.057l8-3.038c.526-.195.834 0 .937.24.103.24-.069.582-.583.833v-.045ZM35.143.236h-3.954a.812.812 0 0 0-.686.377C25.13-.255 16.137-.461 12 1.755a116.83 116.83 0 0 0-5.909 3.427 2.286 2.286 0 0 0-1.348 2.981 2.285 2.285 0 0 0 2.103 1.37 2.801 2.801 0 0 0 1.017-.193l6.857-2.605a2.844 2.844 0 0 0 2.846 2.285c1.143 0 2.491.285 6.388 1.748 1.04.274 2.114.397 3.189.365a25.182 25.182 0 0 0 3.166-.217.845.845 0 0 0 .845.8h3.989a.868.868 0 0 0 .857-.857V1.093a.868.868 0 0 0-.857-.857ZM24.57 9.168c-4.125-1.542-5.588-1.839-6.948-1.839a1.143 1.143 0 0 1-1.143-.913h5.863a.857.857 0 1 0 0-1.714h-6.777a.87.87 0 0 0-.309 0l-8 3.004c-.526.194-.834 0-.937-.24-.103-.24.069-.582.583-.833 0 0 2.868-1.748 5.908-3.427 3.669-1.976 12.252-1.84 17.52-.96v6.99c-1.908.327-3.86.303-5.76-.068Zm9.715.88H32V1.995h2.286v8.053Zm-17.92 11.537h1.143v-1.028h1.497v-.914h-1.463v-.811h1.04c.391.018.782-.052 1.143-.206.29-.11.55-.291.754-.525.186-.204.326-.446.411-.708.09-.25.136-.512.138-.777a2.65 2.65 0 0 0-.229-1.062 1.817 1.817 0 0 0-.754-.834 2.687 2.687 0 0 0-1.417-.332h-2.263v3.336h-.8v1.142h.8v.811h-.8v.914h.8v.994Zm1.143-6.089h1.142c.243-.013.483.051.686.183.16.102.281.255.343.434.065.16.1.33.103.503.002.178-.037.354-.114.514a.903.903 0 0 1-.355.423c-.198.123-.43.183-.663.17H17.51v-2.226Zm.457 10.2a7.717 7.717 0 0 0 7.151-4.735 7.707 7.707 0 0 0-5.6-10.534 7.718 7.718 0 0 0-7.929 3.273 7.707 7.707 0 0 0-1.302 4.287A7.72 7.72 0 0 0 18 25.697h-.034Zm0-13.706a6.002 6.002 0 0 1 5.567 3.678 5.994 5.994 0 0 1-4.35 8.198 6.003 6.003 0 0 1-6.17-2.544A5.995 5.995 0 0 1 12 17.987a6.007 6.007 0 0 1 6-5.997h-.034Z" fill="#fff"/></svg>