<?xml version="1.0" encoding="utf-8"?><svg width="16" height="16" fill="none" xmlns="http://www.w3.org/2000/svg" viewBox="0 0 16 16"><g clip-path="url(#na)"><path d="M14 0H2a2 2 0 0 0-2 2v12a2 2 0 0 0 2 2h12a2 2 0 0 0 2-2V2a2 2 0 0 0-2-2ZM7 14H2.514a.496.496 0 0 1-.356-.15A.445.445 0 0 1 2 13.5V9a.5.5 0 0 1 1 0l-.016 3.287 3.394-3.393.707.707L3.685 13H7a.5.5 0 0 1 0 1Zm7-7a.5.5 0 0 1-1 0l.016-3.288-3.394 3.395-.707-.708L12.315 3H9a.5.5 0 0 1 0-1h4.486c.14 0 .265.058.356.15A.445.445 0 0 1 14 2.5V7Z" fill="#F7620F"/></g><defs><clipPath id="na"><path fill="#fff" d="M0 0h16v16H0z"/></clipPath></defs></svg>