<?xml version="1.0" encoding="utf-8"?><svg width="24" height="24" fill="none" xmlns="http://www.w3.org/2000/svg" viewBox="0 0 24 24"><g clip-path="url(#qa)" fill="#fff"><path d="m12 3.236 1.519 4.674a2 2 0 0 0 1.902 1.382h4.914l-3.976 2.888a2 2 0 0 0-.726 2.236l1.518 4.674-3.975-2.888a2 2 0 0 0-2.352 0L6.85 19.09l1.518-4.674a2 2 0 0 0-.726-2.236L3.665 9.292h4.914a2 2 0 0 0 1.902-1.382L12 3.236Z" stroke="#fff" stroke-width="2"/><circle cx="16" cy="16" r="2"/></g><defs><clipPath id="qa"><path fill="#fff" d="M0 0h24v24H0z"/></clipPath></defs></svg>