<svg width="286" height="243" viewBox="0 0 286 243" fill="none" xmlns="http://www.w3.org/2000/svg"><path d="M1 47.5933V154.551L4.34963 156.388V154.551L143.359 242L143.442 230.987L4.34963 151.109L5.50603 58.1455L5.54593 54.9381L135.224 23.1441L145.034 20.739V1L135.463 3.7543V8.57427L5.54593 47.5933H1Z" fill="#40444E"/><path d="M285 25.7885L277.344 23.9524L270.884 25.7885L161.303 6.9676V3.7543L145.034 1V20.739L160.681 23.0227L273.037 39.4207L277.344 40.0492L285 41.1667V25.7885Z" fill="#40444E"/><path d="M143.359 242L158.911 238.098V235.803V227.655V219.507L159.455 159.062L160.437 50.1089L160.681 23.0227L145.034 20.739L143.442 230.987L143.359 242Z" fill="#40444E"/><path d="M143.442 230.987L145.034 20.739L135.224 23.1441V52.6428L134.352 152.712L133.789 217.441L7.69925 147.895L9.61603 147.74V58.2031L5.50603 58.1455L4.34963 151.109L143.442 230.987Z" fill="#40444E"/><path d="M87.8509 141.397L92.6361 141.01L92.5307 58.6415L87.8509 59.299V141.397Z" fill="#40444E"/><path d="M92.6361 141.01L97.2106 142.293V57.9839L92.5307 58.6415L92.6361 141.01Z" fill="#40444E"/><path d="M158.911 235.803L275.908 204.129L285 202.751V41.1667L277.344 40.0492V197.013L158.911 227.655V235.803Z" fill="#40444E"/><path d="M273.037 39.4207V190.357L158.911 219.507V227.655L277.344 197.013V40.0492L273.037 39.4207Z" fill="#40444E"/><path d="M143.359 242L4.34963 154.551V156.388L1 154.551V47.5933H5.54593L135.463 8.57427V3.7543L145.034 1M143.359 242L158.911 238.098V235.803M143.359 242L143.442 230.987M158.911 235.803L275.908 204.129L285 202.751V41.1667M158.911 235.803V227.655M145.034 1L161.303 3.7543V6.9676L270.884 25.7885L277.344 23.9524L285 25.7885V41.1667M145.034 1V20.739M145.034 20.739L143.442 230.987M145.034 20.739L135.224 23.1441M145.034 20.739L160.681 23.0227M285 41.1667L277.344 40.0492M143.442 230.987L4.34963 151.109L5.50603 58.1455M5.50603 58.1455L5.54593 54.9381L135.224 23.1441M5.50603 58.1455L9.61603 58.2031M87.8509 59.299V141.397M87.8509 59.299L92.5307 58.6415M87.8509 59.299L9.61603 58.2031M135.224 52.6428V23.1441M135.224 52.6428L134.352 152.712M135.224 52.6428L97.2106 57.9839M92.6361 141.01L87.8509 141.397M92.6361 141.01L97.2106 142.293M92.6361 141.01L92.5307 58.6415M134.352 152.712L133.789 217.441L7.69925 147.895L9.61603 147.74M134.352 152.712L97.2106 142.293M158.911 158.912L159.455 159.062M273.037 190.357V39.4207M273.037 190.357L158.911 219.507M273.037 190.357L159.455 159.062M273.037 39.4207L160.681 23.0227M273.037 39.4207L160.437 50.1089M273.037 39.4207L277.344 40.0492M158.911 219.507V227.655M158.911 219.507L159.455 159.062M160.681 23.0227L160.437 50.1089M160.437 50.1089L159.455 159.062M158.911 227.655L277.344 197.013V40.0492M87.8509 141.397L9.61603 147.74M97.2106 142.293V57.9839M97.2106 57.9839L92.5307 58.6415M9.61603 58.2031V147.74" stroke="#D2DEF0"/><rect x="151.075" y="4.25354" width="3.40831" height="6.80377" rx="1.70416" fill="#40444E" stroke="#D2DEF0"/><rect x="0.357711" y="-0.601768" width="3.24005" height="7.11505" rx="1.62003" transform="matrix(-0.256114 -0.966647 0.971537 -0.23689 148.941 237.69)" fill="#40444E" stroke="#D2DEF0"/><rect x="139.091" y="4.25354" width="2.81015" height="6.80377" rx="1.40508" fill="#40444E" stroke="#D2DEF0"/><rect x="0.69522" y="-0.186144" width="2.69449" height="5.72143" rx="1.34725" transform="matrix(0.515653 -0.856798 0.874786 0.484509 134.798 234.963)" fill="#40444E" stroke="#D2DEF0"/><rect x="0.350618" y="-0.605584" width="2.66561" height="4.38069" rx="1.3328" transform="matrix(-0.267615 -0.963526 0.968852 -0.247642 280.22 201.773)" fill="#40444E" stroke="#D2DEF0"/><rect x="280.802" y="27.1484" width="2.19458" height="5.54298" rx="1.09729" fill="#40444E" stroke="#D2DEF0"/></svg>