<svg width="286" height="243" viewBox="0 0 286 243" fill="none" xmlns="http://www.w3.org/2000/svg"><path d="M12.9902 50.4902L249.607 23.796L251.465 215.211L15.8356 192.066L12.9902 50.4902Z" fill="#EA5B0C"/><path d="M206.506 37.1907L207.53 202.562L116.869 195.415L114.504 46.2369L206.506 37.1907Z" fill="#40444E"/><path d="M13.2425 41.2362V35.6772L2.12723 37.0008L2.34445 47.1876M13.2425 41.2362L249.972 11.1914V4.17652L270.217 1M13.2425 41.2362V46.2657M270.217 1L270.381 15.6882M270.217 1L279.784 54.292V205.509L272.674 221.349M272.731 226.534C278.879 228.216 281.503 228.239 284.945 226.534M272.731 226.534L272.674 221.349M272.731 226.534L267.092 225.939M2.34445 47.1876L13.2425 46.2657M2.34445 47.1876L5.49852 195.102M13.2425 46.2657L13.3317 50.3668M270.381 15.6882L249.972 18.3386L250.022 23.3743M270.381 15.6882L272.674 221.349M250.022 23.3743L251.956 214.49L16.4183 192.254L13.3317 50.3668M250.022 23.3743L13.3317 50.3668M136.172 48.5158L118.044 50.3668L120.823 193.71L139.348 194.769M136.172 48.5158L139.348 194.769M136.172 48.5158L202.732 42.1627L204.452 199.799L139.348 194.769M5.49852 195.102L5.56762 198.343L7.68174 198.566M5.49852 195.102C2.38679 195.182 1.71253 195.919 1 197.549M1 197.549C1.32648 198.351 1.8131 198.622 5.30436 197.549M1 197.549C4.0638 204.299 5.34064 208.392 13.5332 211.562L260.372 241.992C273.741 242.2 278.742 238.191 284.945 226.534M284.945 226.534C285.476 223.071 282.224 222.089 272.674 221.349M267.092 225.939L256.536 231.033C256.782 232.14 257.126 234.373 256.536 234.447C255.946 234.52 251.063 233.924 248.696 233.616V230.018L241.856 225.652M267.092 225.939L237.396 222.806M237.396 222.806L241.856 225.652M237.396 222.806L107.158 209.063M241.856 225.652L200.364 221.161L195.383 223.376L190.864 222.269L130.356 216.272L125.099 212.028L120.21 215.349H119.011V218.209H113.938V214.519H112.186L108.229 211.395M107.158 209.063L106.928 210.367L108.229 211.395M107.158 209.063L21.425 200.016M108.229 211.395L20.6871 201.972M20.6871 201.972L21.425 201.326V200.016M20.6871 201.972L17.8278 203.817H16.4183V206.677M20.6871 201.972L17.8278 206.677H16.4183M21.425 200.016L7.68174 198.566M16.4183 206.677H12.9392V203.817L7.68174 200.016V198.566M114.471 46.2657L116.853 195.563L207.718 202.71L206.701 37.0008L114.471 46.2657Z" stroke="black"/></svg>