<svg width="282" height="53" viewBox="0 0 282 53" fill="none" xmlns="http://www.w3.org/2000/svg">
<path d="M2.898 42.938H5.712C6.804 42.938 7.644 43.204 8.232 43.736C8.82933 44.268 9.128 45.01 9.128 45.962C9.128 46.9233 8.82933 47.67 8.232 48.202C7.63467 48.734 6.79467 49 5.712 49H1.218V39.004H8.302V40.53H2.898V42.938ZM2.898 47.516H5.418C6.13667 47.516 6.65 47.3853 6.958 47.124C7.27533 46.8533 7.434 46.452 7.434 45.92C7.434 44.8653 6.762 44.338 5.418 44.338H2.898V47.516ZM10.9221 41.874H12.5041V44.086H14.2821C15.1781 44.086 15.8641 44.3007 16.3401 44.73C16.8161 45.15 17.0541 45.7427 17.0541 46.508C17.0541 47.2827 16.8114 47.894 16.3261 48.342C15.8501 48.7807 15.1687 49 14.2821 49H10.9221V41.874ZM12.5041 45.36V47.656H14.0581C14.5714 47.656 14.9354 47.5627 15.1501 47.376C15.3647 47.18 15.4721 46.8907 15.4721 46.508C15.4721 46.1253 15.3647 45.8407 15.1501 45.654C14.9354 45.458 14.5714 45.36 14.0581 45.36H12.5041ZM18.1601 41.874H19.7421V49H18.1601V41.874ZM26.6039 46.718H28.1719C28.0599 47.4647 27.7193 48.062 27.1499 48.51C26.5899 48.958 25.8853 49.182 25.0359 49.182C23.9439 49.182 23.0806 48.8367 22.4459 48.146C21.8206 47.446 21.5079 46.5407 21.5079 45.43C21.5079 44.3193 21.8206 43.4187 22.4459 42.728C23.0806 42.0373 23.9439 41.692 25.0359 41.692C25.8946 41.692 26.5946 41.9067 27.1359 42.336C27.6866 42.7653 28.0133 43.3347 28.1159 44.044H26.5479C26.3146 43.372 25.8153 43.036 25.0499 43.036C24.3873 43.036 23.8926 43.26 23.5659 43.708C23.2486 44.156 23.0899 44.7253 23.0899 45.416C23.0899 46.1253 23.2486 46.7087 23.5659 47.166C23.8926 47.614 24.3873 47.838 25.0499 47.838C25.9273 47.838 26.4453 47.4647 26.6039 46.718ZM29.213 43.218V41.874H35.597V43.218H33.203V49H31.621V43.218H29.213ZM40.6177 43.036C39.9644 43.036 39.4697 43.2647 39.1337 43.722C38.8071 44.1793 38.6437 44.7487 38.6437 45.43C38.6437 46.1207 38.8071 46.6947 39.1337 47.152C39.4697 47.6093 39.9644 47.838 40.6177 47.838C41.2431 47.838 41.7237 47.6187 42.0597 47.18C42.3957 46.732 42.5637 46.1487 42.5637 45.43C42.5637 44.7113 42.3957 44.1327 42.0597 43.694C41.7237 43.2553 41.2431 43.036 40.6177 43.036ZM37.1037 41.874H38.6297V42.56H38.9657C39.4324 41.9813 40.1324 41.692 41.0657 41.692C42.0084 41.692 42.7551 42.042 43.3057 42.742C43.8657 43.442 44.1457 44.338 44.1457 45.43C44.1457 46.5313 43.8657 47.432 43.3057 48.132C42.7551 48.832 42.0084 49.182 41.0657 49.182C40.1417 49.182 39.4604 48.8927 39.0217 48.314H38.6857V51.8H37.1037V41.874ZM46.4544 42.742C47.1077 42.042 47.9851 41.692 49.0864 41.692C50.1877 41.692 51.0604 42.042 51.7044 42.742C52.3577 43.4327 52.6844 44.3287 52.6844 45.43C52.6844 46.5407 52.3577 47.446 51.7044 48.146C51.0604 48.8367 50.1877 49.182 49.0864 49.182C47.9851 49.182 47.1077 48.8367 46.4544 48.146C45.8104 47.446 45.4884 46.5407 45.4884 45.43C45.4884 44.3287 45.8104 43.4327 46.4544 42.742ZM47.5884 47.152C47.9337 47.6093 48.4331 47.838 49.0864 47.838C49.7397 47.838 50.2391 47.6093 50.5844 47.152C50.9297 46.6853 51.1024 46.1113 51.1024 45.43C51.1024 44.758 50.9297 44.1933 50.5844 43.736C50.2391 43.2693 49.7397 43.036 49.0864 43.036C48.4331 43.036 47.9337 43.2693 47.5884 43.736C47.2431 44.1933 47.0704 44.758 47.0704 45.43C47.0704 46.1113 47.2431 46.6853 47.5884 47.152ZM59.7173 45.066V45.388C60.072 45.4813 60.3567 45.6727 60.5713 45.962C60.7953 46.242 60.9073 46.6013 60.9073 47.04C60.9073 47.684 60.688 48.174 60.2493 48.51C59.82 48.8367 59.1993 49 58.3873 49H54.4533V41.874H58.2613C58.98 41.874 59.5353 42.0327 59.9273 42.35C60.3193 42.6673 60.5153 43.1107 60.5153 43.68C60.5153 43.9973 60.436 44.282 60.2773 44.534C60.128 44.7767 59.9413 44.954 59.7173 45.066ZM56.0073 47.796H58.0933C58.9053 47.796 59.3113 47.4833 59.3113 46.858C59.3113 46.2233 58.9053 45.906 58.0933 45.906H56.0073V47.796ZM56.0073 43.078V44.758H57.9253C58.2707 44.758 58.5227 44.6787 58.6813 44.52C58.8493 44.3613 58.9333 44.1607 58.9333 43.918C58.9333 43.358 58.5973 43.078 57.9253 43.078H56.0073ZM63.2161 42.742C63.8695 42.042 64.7468 41.692 65.8481 41.692C66.9495 41.692 67.8221 42.042 68.4661 42.742C69.1195 43.4327 69.4461 44.3287 69.4461 45.43C69.4461 46.5407 69.1195 47.446 68.4661 48.146C67.8221 48.8367 66.9495 49.182 65.8481 49.182C64.7468 49.182 63.8695 48.8367 63.2161 48.146C62.5721 47.446 62.2501 46.5407 62.2501 45.43C62.2501 44.3287 62.5721 43.4327 63.2161 42.742ZM64.3501 47.152C64.6955 47.6093 65.1948 47.838 65.8481 47.838C66.5015 47.838 67.0008 47.6093 67.3461 47.152C67.6915 46.6853 67.8641 46.1113 67.8641 45.43C67.8641 44.758 67.6915 44.1933 67.3461 43.736C67.0008 43.2693 66.5015 43.036 65.8481 43.036C65.1948 43.036 64.6955 43.2693 64.3501 43.736C64.0048 44.1933 63.8321 44.758 63.8321 45.43C63.8321 46.1113 64.0048 46.6853 64.3501 47.152ZM75.303 43.89C75.303 43.3207 74.841 43.036 73.917 43.036C73.0304 43.036 72.5217 43.3393 72.391 43.946H70.921C70.9957 43.2273 71.3084 42.672 71.859 42.28C72.4097 41.888 73.1237 41.692 74.001 41.692C74.8877 41.692 75.5877 41.8833 76.101 42.266C76.6144 42.6487 76.871 43.1293 76.871 43.708C76.871 44.4453 76.6284 44.912 76.143 45.108V45.444C76.7777 45.6307 77.095 46.144 77.095 46.984C77.095 47.6187 76.815 48.146 76.255 48.566C75.7044 48.9767 74.9577 49.182 74.015 49.182C72.9977 49.182 72.2044 48.9813 71.635 48.58C71.075 48.1693 70.7484 47.6 70.655 46.872H72.139C72.3257 47.516 72.9324 47.838 73.959 47.838C74.995 47.838 75.513 47.5253 75.513 46.9C75.513 46.6013 75.4104 46.382 75.205 46.242C74.9997 46.0927 74.6544 46.018 74.169 46.018H72.951V44.73H74.099C74.9017 44.73 75.303 44.45 75.303 43.89ZM84.1763 45.066V45.388C84.531 45.4813 84.8156 45.6727 85.0303 45.962C85.2543 46.242 85.3663 46.6013 85.3663 47.04C85.3663 47.684 85.147 48.174 84.7083 48.51C84.279 48.8367 83.6583 49 82.8463 49H78.9123V41.874H82.7203C83.439 41.874 83.9943 42.0327 84.3863 42.35C84.7783 42.6673 84.9743 43.1107 84.9743 43.68C84.9743 43.9973 84.895 44.282 84.7363 44.534C84.587 44.7767 84.4003 44.954 84.1763 45.066ZM80.4663 47.796H82.5523C83.3643 47.796 83.7703 47.4833 83.7703 46.858C83.7703 46.2233 83.3643 45.906 82.5523 45.906H80.4663V47.796ZM80.4663 43.078V44.758H82.3843C82.7296 44.758 82.9816 44.6787 83.1403 44.52C83.3083 44.3613 83.3923 44.1607 83.3923 43.918C83.3923 43.358 83.0563 43.078 82.3843 43.078H80.4663ZM87.6751 42.742C88.3284 42.042 89.2058 41.692 90.3071 41.692C91.4084 41.692 92.2811 42.042 92.9251 42.742C93.5784 43.4327 93.9051 44.3287 93.9051 45.43C93.9051 46.5407 93.5784 47.446 92.9251 48.146C92.2811 48.8367 91.4084 49.182 90.3071 49.182C89.2058 49.182 88.3284 48.8367 87.6751 48.146C87.0311 47.446 86.7091 46.5407 86.7091 45.43C86.7091 44.3287 87.0311 43.4327 87.6751 42.742ZM88.8091 47.152C89.1544 47.6093 89.6538 47.838 90.3071 47.838C90.9604 47.838 91.4598 47.6093 91.8051 47.152C92.1504 46.6853 92.3231 46.1113 92.3231 45.43C92.3231 44.758 92.1504 44.1933 91.8051 43.736C91.4598 43.2693 90.9604 43.036 90.3071 43.036C89.6538 43.036 89.1544 43.2693 88.8091 43.736C88.4638 44.1933 88.2911 44.758 88.2911 45.43C88.2911 46.1113 88.4638 46.6853 88.8091 47.152ZM102.282 47.656H103.57V51.002H102.058V49H96.346V51.002H94.834V47.656H95.842C96.3367 46.4707 96.584 45.2107 96.584 43.876V41.874H102.282V47.656ZM100.7 47.656V43.218H98.026V43.89C98.026 45.3367 97.8114 46.592 97.382 47.656H100.7ZM106.818 49H105.026V41.874H106.566V46.578H106.902L109.828 41.874H111.662V49H110.122V44.296H109.786L106.818 49ZM113.844 49V41.874H116.098L117.694 44.996H118.03L119.612 41.874H121.852V49H120.312V43.876H119.976L118.59 46.55H117.106L115.72 43.876H115.384V49H113.844ZM124.03 41.874H125.612V44.086H127.39C128.286 44.086 128.972 44.3007 129.448 44.73C129.924 45.15 130.162 45.7427 130.162 46.508C130.162 47.2827 129.919 47.894 129.434 48.342C128.958 48.7807 128.276 49 127.39 49H124.03V41.874ZM125.612 45.36V47.656H127.166C127.679 47.656 128.043 47.5627 128.258 47.376C128.472 47.18 128.58 46.8907 128.58 46.508C128.58 46.1253 128.472 45.8407 128.258 45.654C128.043 45.458 127.679 45.36 127.166 45.36H125.612ZM131.268 41.874H132.85V49H131.268V41.874ZM141.447 45.038V45.57H136.183C136.23 47.082 136.897 47.838 138.185 47.838C138.997 47.838 139.515 47.5347 139.739 46.928H141.349C141.209 47.6187 140.869 48.1693 140.327 48.58C139.786 48.9813 139.067 49.182 138.171 49.182C137.07 49.182 136.202 48.832 135.567 48.132C134.933 47.432 134.615 46.5173 134.615 45.388C134.615 44.268 134.928 43.372 135.553 42.7C136.188 42.028 137.047 41.692 138.129 41.692C139.156 41.692 139.959 42.0093 140.537 42.644C141.125 43.2693 141.429 44.0673 141.447 45.038ZM138.115 42.952C137.089 42.952 136.468 43.4327 136.253 44.394H139.823C139.767 43.974 139.595 43.6287 139.305 43.358C139.016 43.0873 138.619 42.952 138.115 42.952ZM147.094 49V41.874H149.348L150.944 44.996H151.28L152.862 41.874H155.102V49H153.562V43.876H153.226L151.84 46.55H150.356L148.97 43.876H148.634V49H147.094ZM157.826 42.742C158.479 42.042 159.356 41.692 160.458 41.692C161.559 41.692 162.432 42.042 163.076 42.742C163.729 43.4327 164.056 44.3287 164.056 45.43C164.056 46.5407 163.729 47.446 163.076 48.146C162.432 48.8367 161.559 49.182 160.458 49.182C159.356 49.182 158.479 48.8367 157.826 48.146C157.182 47.446 156.86 46.5407 156.86 45.43C156.86 44.3287 157.182 43.4327 157.826 42.742ZM158.96 47.152C159.305 47.6093 159.804 47.838 160.458 47.838C161.111 47.838 161.61 47.6093 161.956 47.152C162.301 46.6853 162.474 46.1113 162.474 45.43C162.474 44.758 162.301 44.1933 161.956 43.736C161.61 43.2693 161.111 43.036 160.458 43.036C159.804 43.036 159.305 43.2693 158.96 43.736C158.614 44.1933 158.442 44.758 158.442 45.43C158.442 46.1113 158.614 46.6853 158.96 47.152ZM172.432 47.656H173.72V51.002H172.208V49H166.496V51.002H164.984V47.656H165.992C166.487 46.4707 166.734 45.2107 166.734 43.876V41.874H172.432V47.656ZM170.85 47.656V43.218H168.176V43.89C168.176 45.3367 167.962 46.592 167.532 47.656H170.85ZM177.5 51.8H175.89L177.36 48.3L174.336 41.874H176.002L177.99 46.172H178.354L180.16 41.874H181.784L177.5 51.8ZM181.953 49V47.502H182.205C182.7 47.502 183.05 47.306 183.255 46.914C183.46 46.522 183.563 45.8033 183.563 44.758V41.874H189.331V49H187.749V43.218H185.019V44.8C185.019 46.34 184.795 47.4273 184.347 48.062C183.908 48.6873 183.194 49 182.205 49H181.953ZM193.096 41.874V44.086H195.014C195.91 44.086 196.596 44.3007 197.072 44.73C197.548 45.15 197.786 45.7427 197.786 46.508C197.786 47.2827 197.543 47.894 197.058 48.342C196.582 48.7807 195.901 49 195.014 49H191.514V41.874H193.096ZM193.096 47.656H194.79C195.303 47.656 195.667 47.5627 195.882 47.376C196.097 47.18 196.204 46.8907 196.204 46.508C196.204 46.1253 196.097 45.8407 195.882 45.654C195.667 45.458 195.303 45.36 194.79 45.36H193.096V47.656ZM206.024 49H204.442V46.018H200.998V49H199.416V41.874H200.998V44.674H204.442V41.874H206.024V49ZM208.207 41.874H209.789V44.086H211.567C212.463 44.086 213.149 44.3007 213.625 44.73C214.101 45.15 214.339 45.7427 214.339 46.508C214.339 47.2827 214.097 47.894 213.611 48.342C213.135 48.7807 212.454 49 211.567 49H208.207V41.874ZM209.789 45.36V47.656H211.343C211.857 47.656 212.221 47.5627 212.435 47.376C212.65 47.18 212.757 46.8907 212.757 46.508C212.757 46.1253 212.65 45.8407 212.435 45.654C212.221 45.458 211.857 45.36 211.343 45.36H209.789ZM215.445 41.874H217.027V49H215.445V41.874ZM225.625 45.038V45.57H220.361C220.408 47.082 221.075 47.838 222.363 47.838C223.175 47.838 223.693 47.5347 223.917 46.928H225.527C225.387 47.6187 225.046 48.1693 224.505 48.58C223.964 48.9813 223.245 49.182 222.349 49.182C221.248 49.182 220.38 48.832 219.745 48.132C219.11 47.432 218.793 46.5173 218.793 45.388C218.793 44.268 219.106 43.372 219.731 42.7C220.366 42.028 221.224 41.692 222.307 41.692C223.334 41.692 224.136 42.0093 224.715 42.644C225.303 43.2693 225.606 44.0673 225.625 45.038ZM222.293 42.952C221.266 42.952 220.646 43.4327 220.431 44.394H224.001C223.945 43.974 223.772 43.6287 223.483 43.358C223.194 43.0873 222.797 42.952 222.293 42.952ZM235.36 43.89C235.36 43.3207 234.898 43.036 233.974 43.036C233.087 43.036 232.578 43.3393 232.448 43.946H230.978C231.052 43.2273 231.365 42.672 231.916 42.28C232.466 41.888 233.18 41.692 234.058 41.692C234.944 41.692 235.644 41.8833 236.158 42.266C236.671 42.6487 236.928 43.1293 236.928 43.708C236.928 44.4453 236.685 44.912 236.2 45.108V45.444C236.834 45.6307 237.152 46.144 237.152 46.984C237.152 47.6187 236.872 48.146 236.312 48.566C235.761 48.9767 235.014 49.182 234.072 49.182C233.054 49.182 232.261 48.9813 231.692 48.58C231.132 48.1693 230.805 47.6 230.712 46.872H232.196C232.382 47.516 232.989 47.838 234.016 47.838C235.052 47.838 235.57 47.5253 235.57 46.9C235.57 46.6013 235.467 46.382 235.262 46.242C235.056 46.0927 234.711 46.018 234.226 46.018H233.008V44.73H234.156C234.958 44.73 235.36 44.45 235.36 43.89ZM245.577 47.656H246.865V51.002H245.353V49H239.641V51.002H238.129V47.656H239.137C239.632 46.4707 239.879 45.2107 239.879 43.876V41.874H245.577V47.656ZM243.995 47.656V43.218H241.321V43.89C241.321 45.3367 241.106 46.592 240.677 47.656H243.995ZM252.773 49V48.342H252.437C251.989 48.902 251.289 49.182 250.337 49.182C249.553 49.182 248.932 48.958 248.475 48.51C248.017 48.0527 247.789 47.4973 247.789 46.844C247.789 46.2 248.022 45.64 248.489 45.164C248.955 44.688 249.665 44.45 250.617 44.45H252.717V44.24C252.717 43.372 252.217 42.938 251.219 42.938C250.332 42.938 249.856 43.2413 249.791 43.848H248.223C248.26 43.1853 248.545 42.6627 249.077 42.28C249.618 41.888 250.313 41.692 251.163 41.692C252.124 41.692 252.875 41.9067 253.417 42.336C253.967 42.7653 254.243 43.4093 254.243 44.268V49H252.773ZM250.827 47.894C251.359 47.894 251.807 47.7213 252.171 47.376C252.535 47.0307 252.717 46.6107 252.717 46.116V45.57H250.897C249.889 45.57 249.385 45.962 249.385 46.746C249.385 47.11 249.511 47.3947 249.763 47.6C250.015 47.796 250.369 47.894 250.827 47.894ZM262.94 49H261.358V46.018H257.914V49H256.332V41.874H257.914V44.674H261.358V41.874H262.94V49ZM266.915 49H265.123V41.874H266.663V46.578H266.999L269.925 41.874H271.759V49H270.219V44.296H269.883L266.915 49ZM276.406 41.874H279.99V49H278.408V46.41H276.728C276.504 46.41 276.336 46.4053 276.224 46.396L275.23 49H273.634L274.782 46.06C274.063 45.6773 273.704 45.0427 273.704 44.156C273.704 43.4373 273.937 42.8773 274.404 42.476C274.87 42.0747 275.538 41.874 276.406 41.874ZM278.408 45.178V43.162H276.532C275.692 43.162 275.272 43.498 275.272 44.17C275.272 44.842 275.692 45.178 276.532 45.178H278.408Z" fill="#40444E"/>
<g clip-path="url(#clip0_2465_18902)">
<path d="M251.108 0V29.9795H257.881V20.5048H270.246V29.9795H277V0H251.108ZM270.227 14.0791H257.861V7.03957H270.227V14.0791Z" fill="#F7620F"/>
<path d="M184.161 0.0204849V29.9795H190.915V20.5048H203.28V29.9795H210.054V0.0204849H184.161ZM203.28 14.0587H190.915V7.03957H203.28V14.0587Z" fill="#F7620F"/>
<path d="M67.0447 0.0204849V29.9795H73.7984V20.5048H86.1638V29.9795H92.9175V0.0204849H67.0447ZM86.1638 14.0587H73.7984V7.03957H86.1638V14.0587Z" fill="#F7620F"/>
<path d="M-2.28882e-05 0.0204849V29.9795H6.73401V20.5048H19.0797V29.9795H25.8531V0.0204849H-2.28882e-05ZM19.1191 14.0587H6.73401V7.03957H19.0797L19.1191 14.0587Z" fill="#F7620F"/>
<path d="M101.227 23.5744H97.0721V29.9795H104.771H108.748V6.89631H116.565V29.9795H124.087V0.020462H101.227V23.5744Z" fill="#F7620F"/>
<path d="M46.9809 10.8663H45.8586L42.6688 0H31.4258V29.9795H38.337V9.69986H39.479L42.7476 20.4843H50.092L53.3802 9.69986H54.5026V29.9795H61.4138V0H50.1707L46.9809 10.8663Z" fill="#F7620F"/>
<path d="M158.485 29.9795H166.007V6.89632H180.007V0H158.485V29.9795Z" fill="#F7620F"/>
<path d="M231.142 10.8663H230L226.81 0H215.587V29.9795H222.498V9.69986H223.62L226.889 20.4843H234.253L237.522 9.69986H238.664V29.9795H245.575V0H234.332L231.142 10.8663Z" fill="#F7620F"/>
<path d="M151.437 12.1146C149.114 10.2115 146.198 9.26441 143.246 9.45429H137.142V0H129.62V29.9795H143.246C146.208 30.174 149.132 29.2023 151.437 27.2579C152.429 26.2837 153.204 25.0955 153.708 23.7769C154.211 22.4582 154.43 21.0411 154.351 19.6248C154.431 18.2268 154.211 16.8279 153.707 15.5291C153.203 14.2302 152.427 13.064 151.437 12.1146ZM146.672 23.3084H137.142V16.1255H146.672V23.3084Z" fill="#F7620F"/>
</g>
<defs>
<clipPath id="clip0_2465_18902">
<rect width="277" height="30" fill="white"/>
</clipPath>
</defs>
</svg>
