<svg width="255" height="71" viewBox="0 0 255 71" fill="none" xmlns="http://www.w3.org/2000/svg"><path d="M164.018 22.9729C207.147 -4.87715 4.45312 39.7705 4.45312 39.7705C4.45312 39.7705 178.25 9.23221 132.598 37.1744C119.6 45.2315 152.588 42.1976 181.855 37.1437C209.879 32.3049 240.675 23.2571 240.675 23.2571C239.015 23.4722 139.065 39.0869 164.018 22.9729Z" fill="url(#paint0_linear_2272_11729)"/><path d="M33.512 67.7894V51.7522H4.45312V67.7894H8.77529V56.0534H29.1898V67.7894H33.512Z" fill="white"/><path d="M171.815 63.711V51.7522H142.756V67.7894H147.078V63.711H171.815ZM147.086 56.0534H167.493V59.4098H147.086V56.0534Z" fill="white"/><path d="M236.352 57.6434V67.7896H240.674V51.6909H235.742L226.149 63.0122L216.555 51.6909H211.623L211.615 67.7896H215.945V57.6434L224.535 67.7896H227.762L236.352 57.6434Z" fill="white"/><path d="M136.92 67.7894V51.7522H107.861V67.7894H112.183V63.711H132.59V67.7894H136.92ZM112.191 59.4098V56.0534H132.598V59.4098H112.191Z" fill="white"/><path d="M102.026 67.7894V51.7522H72.9751V63.4575H69.502V67.7587H77.2973V56.0534H97.7041V67.7894H102.026Z" fill="white"/><path d="M191.743 60.5467L180.636 51.6909H173.729L188.3 63.3118L188.1 63.473H180.706V67.7819H189.628L209.61 51.6909H202.733L191.743 60.5467Z" fill="white"/><path d="M59.0138 51.7292H45.3063C41.0613 51.7292 37.6113 55.1625 37.6113 59.3869V60.1319C37.6113 64.3102 40.9996 67.7204 45.1828 67.7818C45.2214 67.7818 45.26 67.7895 45.3063 67.7895H59.0138C59.0524 67.7895 59.0909 67.7818 59.1373 67.7818C63.3205 67.7204 66.7088 64.3102 66.7088 60.1319V59.3869C66.7088 55.1702 63.2587 51.7292 59.0138 51.7292ZM62.348 60.1396C62.348 61.9676 60.8507 63.4576 59.0138 63.4576H45.3063C43.4694 63.4576 41.9721 61.9676 41.9721 60.1396V59.3945C41.9721 57.5665 43.4694 56.0765 45.3063 56.0765H59.0138C60.8507 56.0765 62.348 57.5665 62.348 59.3945V60.1396Z" fill="white"/><path d="M200.371 10.945H195.871C194.065 10.945 192.599 9.48566 192.599 7.68839V3.20288H190.885V7.6807C190.885 9.47798 189.419 10.9373 187.613 10.9373H183.113V12.6424H187.613C189.419 12.6424 190.885 14.1017 190.885 15.899V20.3768H192.599V15.899C192.599 14.1017 194.065 12.6424 195.871 12.6424H200.371V10.945Z" fill="white"/><path d="M248.941 55.3774C248.856 55.2852 248.748 55.2084 248.625 55.1316C248.887 55.0932 249.08 55.001 249.203 54.8628C249.335 54.7168 249.396 54.5402 249.396 54.3174C249.396 54.1408 249.358 53.9872 249.265 53.8566C249.18 53.7183 249.064 53.6262 248.926 53.5724C248.787 53.5186 248.555 53.4956 248.239 53.4956H246.988V56.4219H247.583V55.2007H247.706C247.845 55.2007 247.945 55.2084 248.007 55.2314C248.069 55.2545 248.131 55.2929 248.185 55.3543C248.239 55.4158 248.347 55.5617 248.501 55.7844L248.933 56.4219H249.643L249.281 55.8536C249.142 55.6231 249.026 55.4619 248.941 55.3774ZM248.03 54.7322H247.59V53.9872H248.053C248.293 53.9872 248.439 53.9872 248.486 53.9948C248.578 54.0102 248.655 54.0486 248.709 54.1101C248.763 54.1715 248.787 54.256 248.787 54.3482C248.787 54.4403 248.763 54.5095 248.725 54.5709C248.686 54.6247 248.632 54.6707 248.555 54.6938C248.493 54.7245 248.316 54.7322 248.03 54.7322Z" fill="white"/><path d="M248.154 51.6755C246.31 51.6755 244.805 53.1733 244.805 55.0089C244.805 56.8446 246.31 58.3423 248.154 58.3423C249.999 58.3423 251.504 56.8446 251.504 55.0089C251.504 53.1733 249.999 51.6755 248.154 51.6755ZM248.154 57.8354C246.595 57.8354 245.322 56.5681 245.322 55.0089C245.322 53.4575 246.595 52.1901 248.154 52.1901C249.721 52.1901 250.995 53.4575 250.995 55.0089C250.987 56.5681 249.713 57.8354 248.154 57.8354Z" fill="white"/><defs><linearGradient id="paint0_linear_2272_11729" x1="4.45459" y1="27.9852" x2="240.677" y2="27.9852" gradientUnits="userSpaceOnUse"><stop stop-color="#2FAC66"/><stop offset="0.4498" stop-color="#00939D"/><stop offset="0.8328" stop-color="#7F5CA3"/></linearGradient></defs></svg>