<svg width="573" height="260" viewBox="0 0 573 260" fill="none" xmlns="http://www.w3.org/2000/svg">
<path d="M572.816 125.876C567.199 70.3341 434.502 32.5483 276.431 41.4784C118.357 50.4091 -5.23395 102.675 0.382841 158.217C5.99955 213.759 138.696 251.545 296.77 242.614C454.843 233.684 578.433 181.419 572.816 125.876Z" fill="#FEF7F3"/>
<path d="M506.314 90.3369C448.305 90.3369 381.137 15.8581 367.129 15.8889C355.474 15.9191 332.942 36.5058 311.76 51.2677C294.736 63.1011 272.78 63.2234 255.7 51.4806L255.328 51.207C248.066 46.2044 238.909 45.7776 231.446 50.1698C211.698 61.8202 192.437 74.4462 173.78 87.9881C172.516 88.9038 171.167 87.1039 172.258 85.9752C178.86 79.2047 184.256 74.4462 189.997 69.1396C193.614 65.8151 189.94 59.6851 185.577 61.7902C144.673 81.705 96.0785 90.3369 41.1963 90.3369" stroke="#40444E" stroke-miterlimit="10"/>
<path d="M256.186 63.6328L253.225 64.9188L253.22 66.2211L183.418 91.8879M256.186 63.6328L259.795 64.9548L259.789 66.257L299.487 77.4739M256.186 63.6328L255.759 202.342M183.418 91.8879L164.321 98.8628L162.346 99.5879M183.418 91.8879L181.198 196.836M299.487 77.4739L299.145 199.649M299.487 77.4739L334.259 87.3005M255.759 202.342L258.713 202.03L258.719 201.706L299.145 199.649M255.759 202.342L252.799 201.996L252.804 201.348L181.198 196.836M162.346 99.5879L138.486 107.343V194.545L160.506 195.551M162.346 99.5879L160.506 195.551M181.198 196.836L162.147 195.659L160.506 195.551M299.145 199.649L334.971 197.637M334.259 87.3005L334.971 197.637M334.259 87.3005L362.805 95.3647M334.971 197.637L364.222 196.745M141.741 148.194L160.005 145.075L160.676 104.463L142.238 111.201L140.923 111.519V150.797M140.923 150.797V154.224M140.923 150.797L253.186 132.319M140.923 154.224L140.516 192.755L159.201 193.67L159.898 151.513L140.923 154.224ZM362.805 95.3647L364.222 196.745M362.805 95.3647L387.079 102.225M364.222 196.745L388.542 194.926L387.079 102.225M387.079 102.225L406.436 107.695M238.697 77.1422L238.224 131.587M238.224 131.587L252.872 129.062L253.522 71.107L223.126 81.686M238.224 131.587L221.743 134.427M223.126 81.686L221.743 134.427M223.126 81.686L208.968 86.6155M221.743 134.427L208.695 136.676M208.968 86.6155L208.695 136.676M208.968 86.6155L185.37 94.8294L185.12 140.738L196.905 138.708M208.695 136.676L196.905 138.708M196.905 138.708L197.172 90.7225M172.831 99.3203L164.239 102.529L164.216 103.506L163.281 144.529L172.591 142.966M172.831 99.3203L181.42 96.1103L180.185 141.688L172.591 142.966M172.831 99.3203L172.591 142.966M238.174 141.028L237.866 196.984M237.866 196.984L252.827 197.768L253.152 138.506L244.271 139.76L221.697 142.938M237.866 196.984L221.407 196.125M221.697 142.938L208.484 144.796M221.697 142.938L221.549 169.534L221.407 196.125M221.407 196.125L208.206 195.438M208.484 144.796L208.206 195.438M208.484 144.796L196.865 146.432M208.206 195.438L196.597 194.83M196.865 146.432L195.276 146.654L185.08 148.052L183.845 194.13L196.597 194.83M196.865 146.432L196.597 194.83M162.158 193.687L178.539 194.545L180.15 148.734L163.131 151.07L162.158 193.687ZM259.431 71.1395L295.855 80.1289L296.544 134.184L259.118 129.096L259.431 71.1395ZM259.066 138.538L296.503 142.324L296.202 196.699L259.066 197.802V138.538ZM332.295 146.103L301.758 142.352L302.117 196.404L332.028 195.267L332.295 146.103ZM336.565 146.125L361.523 149.518L362.263 194.13L337.282 194.972L336.565 146.125ZM336.867 91.0987L336.281 138.309L361.563 141.704L360.493 97.0885L336.867 91.0987ZM302.088 82.117L331.618 90.0931L332.341 138.288L301.804 134.213L302.088 82.117ZM364.427 98.738L385.098 104.712L385.861 145.092L365.172 142.699L364.427 98.738ZM389.476 145.114L406.219 147.808L405.44 110.358L388.047 105.705L389.476 145.114ZM366.209 193.823L386.254 192.96L385.827 151.28L365.133 149.535L366.209 193.823ZM390.199 192.653L407.29 191.772L406.185 153.996L389.442 151.297L390.199 192.653ZM267.253 82.9037L288.92 87.0525L288.773 113.629L267.765 109.932L267.253 82.9037ZM270.19 86.9499L270.076 107.666L286.159 110.358L285.943 89.8435L270.19 86.9499ZM288.892 151.399L267.544 149.655L267.389 177.985L289.074 178.098L288.892 151.399ZM287.241 153.019L287.446 175.814L269.046 175.712L269.177 151.616L287.241 153.019ZM308.602 152.809L326.011 153.883L326.204 177.98L308.465 177.883L308.602 152.809ZM310.884 155.753L324.023 156.474L323.927 174.711L323.921 175.36L310.776 175.291L310.884 155.753ZM342.759 155.276L356.884 156.657L356.764 178.474L342.634 178.07L342.759 155.276ZM343.733 157.236L355.232 158.276L355.79 176.189L343.63 176.121L343.733 157.236ZM308.277 92.5703L325.663 96.8987L325.538 120.341L308.14 117.316L308.277 92.5703ZM310.554 96.165L323.021 99.1629L323.255 117.399L310.121 115.048L310.554 96.165ZM342.07 101.221L355.523 104.551L356.063 126.044L341.951 123.036L342.07 101.221ZM343.368 103.832L353.542 106.168L353.781 123.101L343.277 121.09L343.368 103.832ZM368.981 107.49L380.794 110.55L381.341 130.415L369.192 128.395L368.981 107.49ZM370.279 110.492L379.138 112.494L379.383 127.799L370.194 126.121L370.279 110.492ZM392.277 113.217L392.499 132.43L402.348 134.111L402.12 116.201L392.277 113.217ZM393.58 115.829L400.799 117.497L401.05 131.825L393.496 130.481L393.58 115.829ZM370.348 157.378L382.172 158.424L382.388 178.934L370.563 178.547L370.348 157.378ZM371.645 160.316L380.515 160.692L380.76 176.326L371.89 176.275L371.645 160.316ZM393.341 159.458L403.521 160.168L403.749 178.729L393.233 178.672L393.341 159.458ZM394.309 162.073L401.869 162.112L401.79 176.763L394.559 176.399L394.309 162.073Z" stroke="#40444E"/>
<path d="M253.379 64.9103L253.373 66.2049L183.475 91.6998L164.356 98.6268L162.377 99.3476L138.486 107.344V150.701L140.552 150.337L253.339 131.868L259.59 131.902L409.857 150.717L408.741 107.584L406.811 107.148L387.421 101.977L363.111 95.162L334.527 87.1483L299.703 77.385L259.954 66.2408L259.96 64.9462L256.345 63.6328L253.379 64.9103Z" fill="#EA5B0C"/>
<path d="M140.726 147.751L160.035 144.534L160.706 104.191L140.552 110.376V150.337M140.552 150.337L253.339 131.868L259.59 131.902L409.857 150.717M140.552 150.337L138.486 150.701V107.344L162.377 99.3476L164.356 98.6268L183.475 91.6998L253.373 66.2049L253.379 64.9103L256.345 63.6328L259.96 64.9462L259.954 66.2408L299.703 77.385L334.527 87.1483L363.111 95.162L387.421 101.977L406.811 107.148L408.741 107.584L409.857 150.717M409.857 150.717L410.978 193.852L388.389 194.972M238.834 77.0524L238.361 131.138M238.361 131.138L253.032 128.631L253.675 71.0583L223.246 81.5663M238.361 131.138L221.857 133.96M223.246 81.5663L221.857 133.96M223.246 81.5663L209.065 86.4633M221.857 133.96L208.791 136.194M209.065 86.4633L208.791 136.194M209.065 86.4633L185.434 94.6216L185.189 140.227L196.99 138.212M208.791 136.194L196.99 138.212M196.99 138.212L197.252 90.5429M172.877 99.0817L164.274 102.269L164.251 103.24L163.316 143.989L172.639 142.437M172.877 99.0817L181.482 95.894L180.247 141.17L172.639 142.437M172.877 99.0817L172.639 142.437M259.596 71.0908L296.071 80.0229L296.766 133.723L259.283 128.666L259.596 71.0908ZM337.14 90.9217L336.554 137.821L361.871 141.192L360.795 96.873L337.14 90.9217ZM302.31 81.9981L331.88 89.923L332.603 137.8L302.026 133.751L302.31 81.9981ZM364.734 98.5122L385.433 104.448L386.197 144.563L365.486 142.182L364.734 98.5122ZM389.817 144.58L406.583 147.263L405.804 110.058L388.389 105.434L389.817 144.58ZM267.43 82.778L289.12 86.9003L288.978 113.302L267.942 109.628L267.43 82.778ZM270.367 86.7977L270.253 107.377L286.364 110.052L286.148 89.6733L270.367 86.7977ZM308.504 92.383L325.919 96.6832L325.794 119.972L308.368 116.966L308.504 92.383ZM310.788 95.953L323.278 98.9329L323.505 117.049L310.355 114.712L310.788 95.953ZM342.35 100.977L355.819 104.286L356.36 125.638L342.23 122.649L342.35 100.977ZM343.653 103.573L353.838 105.892L354.077 122.714L343.557 120.716L343.653 103.573ZM369.294 107.207L381.124 110.246L381.671 129.982L369.511 127.974L369.294 107.207ZM370.592 110.189L379.467 112.179L379.712 127.382L370.507 125.715L370.592 110.189ZM392.624 112.897L392.852 131.982L402.712 133.654L402.478 115.863L392.624 112.897ZM393.928 115.492L401.157 117.149L401.408 131.383L393.848 130.047L393.928 115.492Z" stroke="#40444E"/>
<path d="M121.28 105.951L119.637 108.793H122.924L121.28 105.951ZM121.565 195.074V108.509H120.996V195.074H121.565Z" fill="#40444E"/>
<path d="M458.823 203.167L455.874 201.718L456.084 204.991L458.823 203.167ZM350.974 210.481L456.284 203.616L456.244 203.053L350.935 209.913L350.974 210.481Z" fill="#40444E"/>
<path d="M423.912 150.769L457.393 154.906L458.293 190.579L444.515 191.432L424.824 192.841M423.912 150.769L424.824 190.107V192.841M423.912 150.769L408.211 151.747L409.173 189.016L424.824 192.841M428.871 190.107L442.648 189.562L441.891 156.373L426.958 154.906C427.419 152.667 427.533 177.439 427.533 190.107H428.871ZM455.657 157.685L445.643 156.702L446.406 189.374L456.425 189.016L455.657 157.685ZM431.222 161.277L439.358 161.942L439.58 178.07L431.132 178.025L431.222 161.277ZM432.156 162.522L438.412 162.863L438.651 176.826L432.389 176.792L432.156 162.522Z" stroke="#40444E"/>
<path d="M456.288 119.429L457.194 154.559L423.924 150.45L408.53 151.775V115.347L423.924 109.802L442.204 115.347L456.288 119.429Z" fill="#EA5B0C"/>
<path d="M423.924 109.802L442.204 115.347L456.288 119.429L457.194 154.559L423.924 150.45M423.924 109.802V150.45M423.924 109.802L408.53 115.347V151.775L423.924 150.45M426.856 113.722L440.627 117.803L441.39 150.16L427.294 148.541L426.856 113.722ZM444.066 118.712L444.834 150.45L455.486 151.775L454.706 121.886L444.066 118.712ZM429.64 120.516L430.181 136.849L438.322 138.434L438.094 122.718L429.64 120.516ZM430.881 122.679L436.517 124.251L437.075 136.578L431.126 135.314L430.881 122.679Z" stroke="#40444E"/>
</svg>
