<svg width="573" height="260" viewBox="0 0 573 260" fill="none" xmlns="http://www.w3.org/2000/svg"><g clip-path="url(#clip0_2618_10014)"><path d="M0.374154 176.54C-7.64001 127.878 114.059 67.5935 272.195 41.8897C430.335 16.1859 565.029 34.7973 573.043 83.4593C581.058 132.121 459.359 192.407 301.219 218.11C143.082 243.814 8.38878 225.203 0.374154 176.54Z" fill="#FEF7F3"/><path d="M368.143 59.3007C349.061 40.3008 322.915 29.8882 295.461 30.3533C268.007 30.8185 241.496 42.123 221.75 61.7809" stroke="#EA5B0C"/><path d="M221.906 53.3733L221.75 61.7805L230.197 61.6274" stroke="#EA5B0C"/><path d="M119.933 198.584L191.704 179.21L194.908 82.5988L123.067 66.583L119.933 198.584Z" fill="#EA5B0C"/><path d="M164.014 161.298C162.818 155.551 160.499 144.239 160.268 142.487L162.557 167.385L164.014 161.298Z" fill="black"/><path d="M69.1942 68.7427L67.592 69.5136L65.9897 175.605L67.592 176.632L111.928 206.943M69.1942 68.7427L74.5364 70.2839V71.825M69.1942 68.7427V74.3939M111.928 206.943L114.866 62.5773M111.928 206.943L282.058 159.421L282.589 105.273V93.4028L280.987 92.8893M74.5364 71.825L111.928 54.6146M74.5364 71.825L69.1942 74.3939M69.1942 74.3939V79.2747L111.928 61.807M114.866 62.5773L115.133 48.7061M114.866 62.5773L111.928 63.6049V61.807M114.866 62.5773L122.877 64.1191M280.987 92.8893V94.9446L279.386 94.548M280.987 92.8893H279.386V94.548M111.928 54.6146L112.195 49.9904L115.133 48.7061M111.928 54.6146V61.807M115.133 48.7061L123.411 50.5045L123.2 55.899M123.2 55.899L122.877 64.1191M123.2 55.899L279.386 94.548M122.877 64.1191L122.81 66.9447M122.81 66.9447L119.672 198.21L158.481 187.803M122.81 66.9447L162.829 75.8073M158.481 187.803L191.514 178.944L194.723 82.8713L162.829 75.8073M158.481 187.803L158.637 183.741L162.557 167.385M162.829 75.8073L160.25 142.279M162.557 167.385L164.014 161.298C162.817 155.551 160.499 144.239 160.267 142.487M162.557 167.385L160.267 142.487M160.25 142.279L160.267 142.487M160.25 142.279C160.244 142.313 160.25 142.383 160.267 142.487M86.9228 75.4215L69.4614 81.5869L67.8591 170.21L85.2194 180.944M86.9228 75.4215L111.661 66.6879L108.99 195.641L85.2194 180.944M86.9228 75.4215L85.2194 180.944M228.277 89.3417L256.165 94.9446V97.5348L255.251 162.171L227.571 169.776M228.277 89.3417L199.019 82.8713L197.193 177.542L227.571 169.776M228.277 89.3417L227.571 169.776M268.51 97.5348L279.941 99.8111L279.386 156.253L268.052 158.984M268.51 97.5348L259.356 95.4582L258.455 161.26L268.052 158.984M268.51 97.5348L268.052 158.984" stroke="black" stroke-width="0.5"/><path d="M174.827 141.556L173.306 143.298L173.07 145.335L171.549 147.076L170.028 148.817L168.433 149.757L167.819 152.23L166.489 153.754L163.298 160.538M172.336 139.544L170.814 141.285L170.583 143.323L169.369 143.828C169.352 144.434 169.155 145.661 168.49 145.717C167.825 145.773 166.264 147.382 165.565 148.18L165.559 150.401L164.68 152.291L161.644 158.636M169.317 138.586L167.987 140.109L167.334 142.181L165.321 143.156L163.986 146.9C163.644 146.995 163.066 147.926 163.298 148.572C163.743 149.826 162.72 150.705 162.714 151.446L161.644 153.552" stroke="black" stroke-width="0.5"/><path d="M147.724 155.093L149.45 156.025L150.165 157.716L151.89 158.647L153.616 159.579L155.197 159.782L156.342 161.705L157.858 162.52L162.269 167.214M149.315 152.366L151.04 153.298L151.756 154.988L152.907 154.959C153.074 155.483 153.552 156.48 154.128 156.27C154.706 156.06 156.429 156.86 157.221 157.288L157.793 159.226L159.014 160.538L163.177 164.91M151.624 150.353L153.132 151.168L154.208 152.727L156.152 152.799L158.233 155.552C158.546 155.503 159.269 156.093 159.239 156.747C159.176 158.018 160.262 158.388 160.454 159.034L161.893 160.462" stroke="black" stroke-width="0.5"/><path d="M377.167 174.822L445.194 155.216L446.917 62.211L378.341 47.7664L377.167 174.822Z" fill="#EA5B0C"/><path d="M378.539 174.803L379.649 47.7478L374.214 47.8243L373.792 173.383L378.539 174.803Z" fill="#40444E"/><path d="M378.539 174.803L445.254 155.215L446.919 62.2109L379.649 47.7478M378.539 174.803L379.649 47.7478M378.539 174.803L373.792 173.383L374.214 47.8243L379.649 47.7478M381.575 55.9247L423.258 62.5454L420.905 159.287L380.464 170.301L381.575 55.9247ZM384.865 59.6075L420.806 65.0659L418.65 158.574L383.922 168.263L384.865 59.6075ZM390.988 104.768C394.896 109.462 397.025 112.141 397.915 119.089L398.181 120.08L398.921 119.572C397.285 109.899 394.931 108.762 391.728 104.26L390.988 104.768ZM387.865 112.767C387.865 112.966 387.895 115.005 387.912 115.999L389.901 115.971L389.86 112.988L387.865 112.767Z" stroke="#40444E" stroke-width="0.5"/><path d="M510.876 178.797L440.287 199.143L441.501 67.2996L512.656 82.2883L510.876 178.797Z" fill="#EA5B0C"/><path d="M441.835 198.784L443.003 66.8618L437.331 66.9418L436.886 197.31L441.835 198.784Z" fill="#40444E"/><path d="M441.835 198.784L511.389 178.441L513.129 81.8747L443.003 66.8618M441.835 198.784L443.003 66.8618M441.835 198.784L436.886 197.31L437.331 66.9418L443.003 66.8618" stroke="#40444E" stroke-width="0.5"/><path fill-rule="evenodd" clip-rule="evenodd" d="M460.639 89.1212L477.234 91.7441L477.529 112.396L460.766 112.162L460.639 89.1212ZM459.257 86.9248L479.315 90.2652L479.541 113.981L459.129 113.497L459.257 86.9248Z" fill="#40444E" stroke="#40444E" stroke-width="0.5"/></g><defs><clipPath id="clip0_2618_10014"><rect width="573" height="260" fill="white"/></clipPath></defs></svg>