<?xml version="1.0" encoding="utf-8"?><svg viewBox="0 0 36 36" xmlns="http://www.w3.org/2000/svg" xmlns:xlink="http://www.w3.org/1999/xlink"><style>:root>svg{display:none}:root>svg:target{display:block}</style><svg fill="none" viewBox="0 0 24 25" id="arrow" xmlns="http://www.w3.org/2000/svg"><path d="m16.172 11.5-4.657-4.657a1 1 0 1 1 1.414-1.414l6.364 6.364a1 1 0 0 1 0 1.414l-6.364 6.364a1 1 0 0 1-1.414-1.414l4.657-4.657H5a1 1 0 1 1 0-2h11.172Z" fill="currentColor"/></svg><svg fill="none" viewBox="0 0 24 24" id="bed" xmlns="http://www.w3.org/2000/svg"><path d="M3 20v-8a2 2 0 0 1 2-2m0 0h14M5 10V6a2 2 0 0 1 2-2h10a2 2 0 0 1 2 2v4m0 0a2 2 0 0 1 2 2v8M3 18h18" stroke="#fff" stroke-width="2" stroke-linecap="round" stroke-linejoin="round"/></svg><svg fill="none" viewBox="0 0 24 24" id="calendar" xmlns="http://www.w3.org/2000/svg"><g clip-path="url(#ca)"><path d="M17 3h4a1 1 0 0 1 1 1v16a1 1 0 0 1-1 1H3a1 1 0 0 1-1-1V4a1 1 0 0 1 1-1h4V1h2v2h6V1h2v2Zm-2 2H9v2H7V5H4v4h16V5h-3v2h-2V5Zm5 6H4v8h16v-8Z" fill="#fff"/></g><defs><clipPath id="ca"><path fill="#fff" d="M0 0h24v24H0z"/></clipPath></defs></svg><svg fill="none" viewBox="0 0 24 24" id="car" xmlns="http://www.w3.org/2000/svg"><path d="M8.965 18a3.5 3.5 0 0 1-6.93 0H1V6a1 1 0 0 1 1-1h14a1 1 0 0 1 1 1v2h3l3 4.056V18h-2.035a3.5 3.5 0 0 1-6.93 0h-5.07ZM15 7H3v8.05a3.5 3.5 0 0 1 5.663.95h5.674c.168-.353.393-.674.663-.95V7Zm2 6h4v-.285L18.992 10H17v3Zm.5 6a1.5 1.5 0 1 0 0-3.001 1.5 1.5 0 0 0 0 3.001ZM7 17.5a1.5 1.5 0 1 0-3 0 1.5 1.5 0 0 0 3 0Z" fill="#fff"/></svg><svg fill="none" viewBox="0 0 24 24" id="chevron" xmlns="http://www.w3.org/2000/svg"><path d="m7 10 4.5 4 4.5-4" stroke="#8D8E8F" stroke-width="2" stroke-linecap="round" stroke-linejoin="round"/></svg><svg fill="none" viewBox="0 0 24 24" id="clock" xmlns="http://www.w3.org/2000/svg"><g clip-path="url(#fa)"><path d="M12 22a9 9 0 1 1 0-18 9 9 0 0 1 0 18Zm0-2a7 7 0 1 0 0-14 7 7 0 0 0 0 14Zm1-7h3v2h-5V8h2v5ZM1.747 6.282l3.535-3.535 1.415 1.414L3.16 7.697 1.747 6.282Zm16.97-3.535 3.536 3.535-1.414 1.415-3.536-3.536 1.415-1.414h-.001Z" fill="#fff"/></g><defs><clipPath id="fa"><path fill="#fff" d="M0 0h24v24H0z"/></clipPath></defs></svg><svg fill="none" viewBox="0 0 24 24" id="close" xmlns="http://www.w3.org/2000/svg"><path d="M18 6 6 18M6 6l12 12" stroke="#545862" stroke-width="2" stroke-linecap="round" stroke-linejoin="round"/></svg><svg fill="none" viewBox="0 0 24 24" id="dice" xmlns="http://www.w3.org/2000/svg"><path d="M16 8h.01M8 8h.01M8 16h.01M16 16h.01M12 12h.01M5 3h14a2 2 0 0 1 2 2v14a2 2 0 0 1-2 2H5a2 2 0 0 1-2-2V5a2 2 0 0 1 2-2Z" stroke="#fff" stroke-width="2" stroke-linecap="round" stroke-linejoin="round"/></svg><svg fill="none" viewBox="0 0 24 24" id="document" xmlns="http://www.w3.org/2000/svg"><g clip-path="url(#ia)"><path d="m3 8 6.003-6h10.995C20.55 2 21 2.455 21 2.992v18.016a.993.993 0 0 1-.993.992H3.993A1 1 0 0 1 3 20.993V8Zm7-4.5L4.5 9H10V3.5Z" fill="currentColor"/></g><defs><clipPath id="ia"><path fill="#fff" d="M0 0h24v24H0z"/></clipPath></defs></svg><svg fill="none" viewBox="0 0 36 36" id="hands" xmlns="http://www.w3.org/2000/svg"><path d="m28.137 26.634-6.857 2.604a2.844 2.844 0 0 0-2.846-2.285c-1.143 0-2.491-.285-6.388-1.747a17.07 17.07 0 0 0-6.332-.172.845.845 0 0 0-.845-.8H.857a.869.869 0 0 0-.857.857v9.812a.868.868 0 0 0 .857.857h3.954a.811.811 0 0 0 .686-.377c2.647.411 5.322.617 8 .617 4.012 0 8.057-.48 10.469-1.782a116.906 116.906 0 0 0 5.908-3.427 2.286 2.286 0 0 0 1.383-2.981 2.351 2.351 0 0 0-2.224-1.386c-.31.01-.614.082-.896.21ZM3.954 33.977H1.67v-7.996h2.285v7.996Zm25.143-4.717s-2.868 1.747-5.908 3.427c-3.669 1.987-12.252 1.838-17.52.97v-6.922c1.893-.32 3.829-.297 5.714.069 4.126 1.542 5.588 1.839 6.948 1.839a1.143 1.143 0 0 1 1.143.914v.057h-5.76a.857.857 0 1 0 0 1.713h6.72a.87.87 0 0 0 .309-.057l8-3.038c.526-.195.834 0 .937.24.103.24-.069.582-.583.833v-.045ZM35.143.236h-3.954a.812.812 0 0 0-.686.377C25.13-.255 16.137-.461 12 1.755a116.83 116.83 0 0 0-5.909 3.427 2.286 2.286 0 0 0-1.348 2.981 2.285 2.285 0 0 0 2.103 1.37 2.801 2.801 0 0 0 1.017-.193l6.857-2.605a2.844 2.844 0 0 0 2.846 2.285c1.143 0 2.491.285 6.388 1.748 1.04.274 2.114.397 3.189.365a25.182 25.182 0 0 0 3.166-.217.845.845 0 0 0 .845.8h3.989a.868.868 0 0 0 .857-.857V1.093a.868.868 0 0 0-.857-.857ZM24.57 9.168c-4.125-1.542-5.588-1.839-6.948-1.839a1.143 1.143 0 0 1-1.143-.913h5.863a.857.857 0 1 0 0-1.714h-6.777a.87.87 0 0 0-.309 0l-8 3.004c-.526.194-.834 0-.937-.24-.103-.24.069-.582.583-.833 0 0 2.868-1.748 5.908-3.427 3.669-1.976 12.252-1.84 17.52-.96v6.99c-1.908.327-3.86.303-5.76-.068Zm9.715.88H32V1.995h2.286v8.053Zm-17.92 11.537h1.143v-1.028h1.497v-.914h-1.463v-.811h1.04c.391.018.782-.052 1.143-.206.29-.11.55-.291.754-.525.186-.204.326-.446.411-.708.09-.25.136-.512.138-.777a2.65 2.65 0 0 0-.229-1.062 1.817 1.817 0 0 0-.754-.834 2.687 2.687 0 0 0-1.417-.332h-2.263v3.336h-.8v1.142h.8v.811h-.8v.914h.8v.994Zm1.143-6.089h1.142c.243-.013.483.051.686.183.16.102.281.255.343.434.065.16.1.33.103.503.002.178-.037.354-.114.514a.903.903 0 0 1-.355.423c-.198.123-.43.183-.663.17H17.51v-2.226Zm.457 10.2a7.717 7.717 0 0 0 7.151-4.735 7.707 7.707 0 0 0-5.6-10.534 7.718 7.718 0 0 0-7.929 3.273 7.707 7.707 0 0 0-1.302 4.287A7.72 7.72 0 0 0 18 25.697h-.034Zm0-13.706a6.002 6.002 0 0 1 5.567 3.678 5.994 5.994 0 0 1-4.35 8.198 6.003 6.003 0 0 1-6.17-2.544A5.995 5.995 0 0 1 12 17.987a6.007 6.007 0 0 1 6-5.997h-.034Z" fill="#fff"/></svg><svg fill="none" viewBox="0 0 24 24" id="home" xmlns="http://www.w3.org/2000/svg"><g clip-path="url(#ka)"><path d="M19 19V9.799l-7-5.522-7 5.522v9.2h14Zm2 1a1 1 0 0 1-1 1H4a1 1 0 0 1-1-1V9.314a1 1 0 0 1 .38-.785l8-6.311a1 1 0 0 1 1.24 0l8 6.31a1 1 0 0 1 .38.786V20ZM7 12h2a3 3 0 1 0 6 0h2a5 5 0 0 1-10 0Z" fill="#fff"/></g><defs><clipPath id="ka"><path fill="#fff" d="M0 0h24v24H0z"/></clipPath></defs></svg><svg fill="none" viewBox="0 0 24 24" id="open-arm" xmlns="http://www.w3.org/2000/svg"><g clip-path="url(#la)"><path d="M17.871 16.666v4.667h-1.957v-4.666c0-4.155 2.588-7.733 6.31-9.349l.81 1.699a8.703 8.703 0 0 0-3.761 3.1 8.122 8.122 0 0 0-1.402 4.55Zm-9.785 0v4.667H6.129v-4.666a8.122 8.122 0 0 0-1.402-4.549 8.703 8.703 0 0 0-3.76-3.1l.81-1.7a10.636 10.636 0 0 1 4.595 3.79 9.927 9.927 0 0 1 1.714 5.558ZM12 12a5.016 5.016 0 0 1-3.46-1.367 4.56 4.56 0 0 1-1.433-3.3 4.56 4.56 0 0 1 1.433-3.3A5.016 5.016 0 0 1 12 2.666c1.298 0 2.542.492 3.46 1.367a4.56 4.56 0 0 1 1.433 3.3 4.56 4.56 0 0 1-1.433 3.3A5.016 5.016 0 0 1 12 12Zm0-1.867c.386 0 .767-.072 1.123-.213.357-.14.68-.347.953-.607.272-.26.489-.569.636-.908a2.687 2.687 0 0 0 0-2.143 2.795 2.795 0 0 0-.636-.909 2.95 2.95 0 0 0-.953-.607A3.06 3.06 0 0 0 12 4.533a3.01 3.01 0 0 0-2.076.82 2.736 2.736 0 0 0-.86 1.98c0 .743.31 1.455.86 1.98a3.01 3.01 0 0 0 2.076.82Z" fill="#fff"/></g><defs><clipPath id="la"><path fill="#fff" d="M0 0h24v24H0z"/></clipPath></defs></svg><svg fill="none" viewBox="0 0 24 24" id="pin" xmlns="http://www.w3.org/2000/svg"><g clip-path="url(#ma)"><path d="M11 17.938A8.001 8.001 0 0 1 12 2a8 8 0 0 1 1 15.938v2.074c3.946.092 7 .723 7 1.488 0 .828-3.582 1.5-8 1.5s-8-.672-8-1.5c0-.765 3.054-1.396 7-1.488v-2.074ZM12 16a6 6 0 1 0 0-12 6 6 0 0 0 0 12Zm0-4a2 2 0 1 1 0-4 2 2 0 0 1 0 4Z" fill="#fff"/></g><defs><clipPath id="ma"><path fill="#fff" d="M0 0h24v24H0z"/></clipPath></defs></svg><svg fill="none" viewBox="0 0 24 24" id="refrigerator" xmlns="http://www.w3.org/2000/svg"><path d="M5 10h14m-4-3v6M5 6a4 4 0 0 1 4-4h6a4 4 0 0 1 4 4v14a2 2 0 0 1-2 2H7a2 2 0 0 1-2-2V6Z" stroke="#fff" stroke-width="2" stroke-linecap="round" stroke-linejoin="round"/></svg><svg fill="none" viewBox="0 0 16 16" id="resize" xmlns="http://www.w3.org/2000/svg"><g clip-path="url(#oa)"><path d="M14 0H2a2 2 0 0 0-2 2v12a2 2 0 0 0 2 2h12a2 2 0 0 0 2-2V2a2 2 0 0 0-2-2ZM7 14H2.514a.496.496 0 0 1-.356-.15A.445.445 0 0 1 2 13.5V9a.5.5 0 0 1 1 0l-.016 3.287 3.394-3.393.707.707L3.685 13H7a.5.5 0 0 1 0 1Zm7-7a.5.5 0 0 1-1 0l.016-3.288-3.394 3.395-.707-.708L12.315 3H9a.5.5 0 0 1 0-1h4.486c.14 0 .265.058.356.15A.445.445 0 0 1 14 2.5V7Z" fill="#F7620F"/></g><defs><clipPath id="oa"><path fill="#fff" d="M0 0h16v16H0z"/></clipPath></defs></svg><svg fill="none" viewBox="0 0 24 24" id="safely" xmlns="http://www.w3.org/2000/svg"><path d="M18 6 7 17l-5-5m20-2-7.5 7.5L13 16" stroke="#fff" stroke-width="2" stroke-linecap="round" stroke-linejoin="round"/></svg><svg fill="none" viewBox="0 0 24 24" id="scale" xmlns="http://www.w3.org/2000/svg"><path d="M12 3H5a2 2 0 0 0-2 2v14a2 2 0 0 0 2 2h14a2 2 0 0 0 2-2v-7m-7 3H9m0 0v-5m0 5L21 3m-5 0h5m0 0v5" stroke="#fff" stroke-width="2" stroke-linecap="round" stroke-linejoin="round"/></svg><svg fill="none" viewBox="0 0 24 24" id="star" xmlns="http://www.w3.org/2000/svg"><g clip-path="url(#ra)" fill="#fff"><path d="m12 3.236 1.519 4.674a2 2 0 0 0 1.902 1.382h4.914l-3.976 2.888a2 2 0 0 0-.726 2.236l1.518 4.674-3.975-2.888a2 2 0 0 0-2.352 0L6.85 19.09l1.518-4.674a2 2 0 0 0-.726-2.236L3.665 9.292h4.914a2 2 0 0 0 1.902-1.382L12 3.236Z" stroke="#fff" stroke-width="2"/><circle cx="16" cy="16" r="2"/></g><defs><clipPath id="ra"><path fill="#fff" d="M0 0h24v24H0z"/></clipPath></defs></svg><svg fill="none" viewBox="0 0 16 16" id="timer" xmlns="http://www.w3.org/2000/svg"><g clip-path="url(#sa)"><path d="M8.003.665C3.961.665.665 3.96.665 8.003s3.296 7.332 7.338 7.332c4.043 0 7.332-3.29 7.332-7.332a.666.666 0 1 0-1.333 0 5.988 5.988 0 0 1-5.999 5.999 5.993 5.993 0 0 1-6.005-5.999 5.999 5.999 0 0 1 6.005-6.005.667.667 0 0 0 0-1.333Zm2.53.5a.666.666 0 0 0-.247 1.285c.008.004.013.009.02.011a.667.667 0 1 0 .516-1.23l-.028-.014a.664.664 0 0 0-.26-.051Zm2.17 1.444a.667.667 0 0 0-.467 1.142l.014.014a.667.667 0 1 0 .945-.94l-.02-.02a.668.668 0 0 0-.472-.196Zm-4.7.724a.666.666 0 0 0-.67.669v4.001a.667.667 0 0 0 .37.595l2.666 1.333a.667.667 0 1 0 .597-1.195L8.668 7.59V4.002a.667.667 0 0 0-.665-.67Zm6.157 1.433a.667.667 0 0 0-.621.928c.003.009.007.013.01.02a.667.667 0 1 0 1.236-.507l-.01-.024a.668.668 0 0 0-.615-.417Z" fill="#F7620F"/></g><defs><clipPath id="sa"><path fill="#fff" d="M0 0h16v16H0z"/></clipPath></defs></svg><svg fill="none" viewBox="0 0 28 28" id="vk" xmlns="http://www.w3.org/2000/svg"><g clip-path="url(#ta)"><path d="M27.75 20.261c-.075-.126-.54-1.137-2.78-3.216-2.346-2.178-2.03-1.824.794-5.589 1.72-2.292 2.408-3.692 2.193-4.29-.205-.571-1.47-.42-1.47-.42l-4.207.024s-.312-.042-.545.096c-.226.136-.37.451-.37.451s-.668 1.775-1.557 3.284c-1.874 3.183-2.625 3.351-2.931 3.153-.712-.46-.534-1.851-.534-2.838 0-3.086.467-4.372-.912-4.705-.458-.11-.794-.183-1.965-.196-1.502-.015-2.774.006-3.493.357-.48.235-.85.758-.623.788.278.037.908.17 1.242.625.432.586.417 1.906.417 1.906s.248 3.631-.58 4.083c-.568.31-1.347-.322-3.019-3.212-.855-1.479-1.503-3.115-1.503-3.115s-.124-.305-.346-.467c-.27-.198-.648-.261-.648-.261l-4 .024s-.601.018-.822.279c-.196.232-.015.712-.015.712s3.132 7.328 6.678 11.022c3.254 3.387 6.946 3.165 6.946 3.165h1.674s.505-.056.763-.335c.238-.255.229-.735.229-.735s-.033-2.245 1.01-2.576c1.027-.325 2.347 2.17 3.745 3.131 1.057.726 1.86.567 1.86.567l3.74-.052s1.957-.121 1.03-1.66Z" fill="currentColor"/></g><defs><clipPath id="ta"><path fill="currentColor" d="M0 0h28v28H0z"/></clipPath></defs></svg><svg fill="none" viewBox="0 0 24 24" id="wallet" xmlns="http://www.w3.org/2000/svg"><path d="M17 14h.01M7 7h12a2 2 0 0 1 2 2v10a2 2 0 0 1-2 2H5a2 2 0 0 1-2-2V5a2 2 0 0 1 2-2h14" stroke="#fff" stroke-width="2" stroke-linecap="round" stroke-linejoin="round"/></svg><svg fill="none" viewBox="0 0 24 24" id="windy" xmlns="http://www.w3.org/2000/svg"><g clip-path="url(#va)"><path d="M10.5 17H4v-2h6.5a3.5 3.5 0 1 1-3.278 4.73l1.873-.703A1.5 1.5 0 1 0 10.5 17ZM5 11h13.5a3.5 3.5 0 1 1-3.278 4.73l1.873-.703A1.5 1.5 0 1 0 18.5 13H5a3 3 0 0 1 0-6h8.5a1.5 1.5 0 1 0-1.405-2.027l-1.873-.702A3.501 3.501 0 0 1 17 5.501 3.5 3.5 0 0 1 13.5 9H5a1 1 0 0 0 0 2Z" fill="#fff"/></g><defs><clipPath id="va"><path fill="#fff" d="M0 0h24v24H0z"/></clipPath></defs></svg><svg fill="none" viewBox="0 0 28 28" id="youtube" xmlns="http://www.w3.org/2000/svg"><path d="M26.57 7.44a3.288 3.288 0 0 0-2.313-2.314c-2.054-.563-10.271-.563-10.271-.563s-8.216 0-10.27.541A3.355 3.355 0 0 0 1.401 7.44c-.54 2.054-.54 6.314-.54 6.314s0 4.281.54 6.314a3.29 3.29 0 0 0 2.314 2.313c2.075.563 10.27.563 10.27.563s8.217 0 10.27-.541a3.289 3.289 0 0 0 2.315-2.314c.54-2.054.54-6.313.54-6.313s.022-4.282-.54-6.336Zm-15.2 10.248v-7.87l6.833 3.935-6.833 3.935Z" fill="currentColor"/></svg></svg>